<svg width="363" height="363" viewBox="0 0 363 363" fill="none" xmlns="http://www.w3.org/2000/svg">
<g clip-path="url(#clip0_11_164)">
<path d="M363 181.5C363.063 224.344 347.908 265.817 320.238 298.527C319.233 299.72 318.209 300.894 317.167 302.062C304.898 315.86 290.607 327.716 274.781 337.226C271.151 339.405 267.441 341.459 263.652 343.387C263.269 343.581 262.88 343.776 262.497 343.964C262.038 344.197 261.574 344.423 261.109 344.649C251.52 349.342 241.533 353.171 231.265 356.092C230.197 356.393 229.128 356.686 228.056 356.971C214.548 360.545 200.673 362.545 186.706 362.931C185.978 362.95 185.262 362.962 184.571 362.975C184.326 362.981 184.088 362.987 183.849 362.987C183.064 362.994 182.285 363 181.5 363C166.782 363.011 152.116 361.233 137.827 357.706C136.395 357.354 134.969 356.983 133.55 356.594C126.074 354.553 118.738 352.029 111.588 349.039C107.82 347.469 104.119 345.775 100.484 343.958C99.6617 343.544 98.839 343.129 98.0289 342.702C97.6834 342.533 97.3443 342.35 97.0052 342.175C77.6357 331.951 60.2657 318.323 45.7267 301.943C44.7219 300.819 43.7359 299.676 42.7624 298.527C26.7431 279.533 14.7938 257.454 7.65448 233.655C0.515163 209.856 -1.66212 184.844 1.25751 160.17C4.17713 135.495 12.1315 111.683 24.6279 90.2072C37.1243 68.7317 53.8967 50.0504 73.9063 35.3203C74.9363 34.5604 75.9725 33.8067 77.0214 33.0719C77.2286 32.9275 77.4358 32.783 77.6431 32.6386C96.0715 19.7301 116.756 10.3892 138.625 5.09957C139.868 4.79184 141.112 4.50295 142.368 4.2329C166.055 -0.948518 190.535 -1.37759 214.39 2.97056C215.64 3.20293 216.889 3.44158 218.133 3.69908C239.806 8.14458 260.478 16.5386 279.114 28.4622C279.529 28.726 279.943 28.9898 280.358 29.2661C281.193 29.8062 282.028 30.3588 282.851 30.9178C307.539 47.5155 327.764 69.9332 341.742 96.1939C355.719 122.455 363.02 151.751 363 181.5Z" fill="white"/>
<path d="M135.654 275.396L77.643 280.546L77.0212 280.603V33.0719C77.2285 32.9275 77.4357 32.783 77.643 32.6386C89.733 24.182 102.811 17.2348 116.587 11.9514L119.551 52.836L119.821 56.579L122.754 97.1245L123.659 109.597L135.547 273.952L135.654 275.396Z" fill="#CCCCCC"/>
<path d="M279.114 28.4622C279.529 28.726 279.943 28.9898 280.358 29.2661V280.603L279.114 280.49L221.731 275.396L221.838 273.952L233.727 109.597L234.631 97.1245L237.564 56.579L237.834 52.836L240.943 9.96051C254.349 14.6075 267.161 20.8175 279.114 28.4622Z" fill="#CCCCCC"/>
<path d="M279.114 28.4622V284.032C279.114 288.937 275.736 292.925 271.578 292.925H85.1795C81.7379 292.925 78.8176 290.186 77.9321 286.45C77.7387 285.658 77.6418 284.846 77.6432 284.032V32.6386C77.4359 32.7831 77.2287 32.9275 77.0214 33.0719C75.9726 33.8067 74.9364 34.5604 73.9064 35.3203V284.032C73.8508 287.757 75.242 291.359 77.7876 294.08C79.1224 295.479 80.8108 296.49 82.6737 297.007C83.4904 297.229 84.3331 297.341 85.1795 297.34H271.578C272.427 297.341 273.271 297.229 274.09 297.007C279.102 295.657 282.851 290.356 282.851 284.032V30.9178C282.029 30.3589 281.193 29.8062 280.358 29.2661C279.943 28.9898 279.529 28.726 279.114 28.4622Z" fill="#CCCCCC"/>
<path d="M280.984 52.8385H75.7749V56.5809H280.984V52.8385Z" fill="#CCCCCC"/>
<path d="M138.625 5.09958C139.868 4.79185 141.112 4.50296 142.368 4.23291V105.854H138.625V5.09958Z" fill="#CCCCCC"/>
<path d="M214.39 2.97058C215.64 3.20295 216.889 3.4416 218.133 3.6991V105.854H214.39V2.97058Z" fill="#CCCCCC"/>
<path d="M304.374 273.952H58.6201C54.1528 273.952 49.8686 275.727 46.7098 278.885C43.551 282.044 41.7764 286.328 41.7764 290.796C41.7764 295.263 43.551 299.547 46.7098 302.706C49.8686 305.865 54.1528 307.639 58.6201 307.639H304.374C306.766 307.64 309.13 307.13 311.309 306.143C313.488 305.156 315.432 303.716 317.01 301.918C317.724 301.105 318.359 300.226 318.906 299.293C319.33 298.577 319.697 297.83 320.005 297.057C321.031 294.502 321.415 291.734 321.122 288.996C320.829 286.258 319.869 283.633 318.326 281.353C316.783 279.072 314.704 277.205 312.272 275.914C309.839 274.624 307.127 273.95 304.374 273.952Z" fill="#CCCCCC"/>
<path d="M280.984 97.1238H77.0222V109.599H280.984V97.1238Z" fill="#CCCCCC"/>
<path d="M177.132 93.3814H180.875C181.776 93.3814 182.668 93.5588 183.5 93.9036C184.333 94.2485 185.089 94.7538 185.726 95.3909C186.363 96.0281 186.869 96.7844 187.213 97.6169C187.558 98.4493 187.736 99.3415 187.736 100.242H170.271C170.271 98.4228 170.994 96.6777 172.281 95.3909C173.567 94.1042 175.312 93.3814 177.132 93.3814H177.132Z" fill="#CCCCCC"/>
<path d="M320.238 298.527C314.782 304.991 308.881 311.067 302.578 316.708H60.4226C54.1194 311.067 48.2183 304.991 42.7625 298.527H320.238Z" fill="#3F3D56"/>
<path d="M201.773 235.554H161.001C160.781 235.552 160.563 235.586 160.354 235.655C159.912 235.792 159.525 236.067 159.25 236.44C158.975 236.813 158.827 237.264 158.828 237.727V302.138H203.952V237.727C203.952 237.442 203.895 237.159 203.785 236.895C203.676 236.631 203.515 236.391 203.313 236.189C203.11 235.987 202.87 235.827 202.606 235.718C202.342 235.61 202.058 235.554 201.773 235.554ZM186.342 267.333C186.343 268.377 185.999 269.393 185.362 270.222C184.755 271.025 183.91 271.618 182.948 271.917C181.985 272.215 180.953 272.204 179.998 271.885C179.042 271.566 178.21 270.955 177.62 270.138C177.03 269.322 176.711 268.34 176.708 267.333V259.859C176.72 258.589 177.233 257.375 178.135 256.482C179.037 255.588 180.255 255.087 181.525 255.087C182.795 255.087 184.013 255.588 184.915 256.482C185.818 257.375 186.33 258.589 186.342 259.859V267.333Z" fill="#2F2E41"/>
<path d="M158.69 300.078V306.289C158.69 306.611 158.817 306.92 159.045 307.148C159.272 307.377 159.58 307.506 159.902 307.507H202.878C203.2 307.505 203.507 307.375 203.734 307.147C203.961 306.919 204.089 306.611 204.09 306.289V300.078H158.69Z" fill="#3F3D56"/>
<path d="M269.286 135.039H95.008C93.5106 135.04 92.0749 135.636 91.0155 136.694C89.9561 137.752 89.3593 139.187 89.3557 140.684V258.289C89.3569 259.788 89.9528 261.225 91.0125 262.284C92.0723 263.344 93.5093 263.94 95.008 263.941H269.286C270.784 263.94 272.221 263.344 273.281 262.284C274.341 261.225 274.937 259.788 274.938 258.289V140.684C274.934 139.187 274.337 137.752 273.278 136.694C272.219 135.636 270.783 135.04 269.286 135.039Z" fill="#3F3D56"/>
<path d="M267.829 139.121H96.4588C95.6571 139.122 94.8888 139.442 94.3225 140.01C93.7562 140.577 93.4381 141.346 93.438 142.148V256.838C93.4394 257.639 93.7581 258.406 94.3243 258.973C94.8905 259.539 95.6581 259.858 96.4588 259.859H267.829C268.629 259.858 269.397 259.539 269.963 258.973C270.529 258.406 270.848 257.639 270.85 256.838V142.148C270.849 141.346 270.531 140.577 269.965 140.01C269.399 139.442 268.63 139.122 267.829 139.121Z" fill="#6C63FF"/>
<path d="M236.289 307.407L234.707 299.889C234.641 299.583 234.5 299.298 234.296 299.06C234.092 298.822 233.831 298.638 233.538 298.527C233.326 298.443 233.101 298.401 232.873 298.401H134.078C133.85 298.401 133.624 298.443 133.412 298.527C133.119 298.638 132.859 298.822 132.655 299.06C132.451 299.298 132.309 299.583 132.244 299.889L130.661 307.407C130.604 307.68 130.608 307.962 130.674 308.233C130.74 308.504 130.865 308.757 131.04 308.974C131.216 309.19 131.438 309.365 131.689 309.485C131.941 309.605 132.216 309.668 132.495 309.668H234.449C234.729 309.669 235.005 309.607 235.258 309.487C235.51 309.366 235.732 309.189 235.906 308.971C236.082 308.755 236.208 308.503 236.274 308.232C236.34 307.962 236.346 307.68 236.289 307.407Z" fill="#2F2E41"/>
<path d="M137.635 299.755H135.108C134.939 299.755 134.802 299.892 134.802 300.062V301.332C134.802 301.502 134.939 301.639 135.108 301.639H137.635C137.805 301.639 137.942 301.502 137.942 301.332V300.062C137.942 299.892 137.805 299.755 137.635 299.755Z" fill="#3F3D56"/>
<path d="M143.916 299.755H141.389C141.219 299.755 141.082 299.892 141.082 300.062V301.332C141.082 301.502 141.219 301.639 141.389 301.639H143.916C144.085 301.639 144.222 301.502 144.222 301.332V300.062C144.222 299.892 144.085 299.755 143.916 299.755Z" fill="#3F3D56"/>
<path d="M150.196 299.755H147.669C147.5 299.755 147.362 299.892 147.362 300.062V301.332C147.362 301.502 147.5 301.639 147.669 301.639H150.196C150.365 301.639 150.502 301.502 150.502 301.332V300.062C150.502 299.892 150.365 299.755 150.196 299.755Z" fill="#3F3D56"/>
<path d="M156.476 299.755H153.949C153.78 299.755 153.643 299.892 153.643 300.062V301.332C153.643 301.502 153.78 301.639 153.949 301.639H156.476C156.645 301.639 156.783 301.502 156.783 301.332V300.062C156.783 299.892 156.645 299.755 156.476 299.755Z" fill="#3F3D56"/>
<path d="M162.756 299.755H160.229C160.06 299.755 159.923 299.892 159.923 300.062V301.332C159.923 301.502 160.06 301.639 160.229 301.639H162.756C162.926 301.639 163.063 301.502 163.063 301.332V300.062C163.063 299.892 162.926 299.755 162.756 299.755Z" fill="#3F3D56"/>
<path d="M169.037 299.755H166.51C166.34 299.755 166.203 299.892 166.203 300.062V301.332C166.203 301.502 166.34 301.639 166.51 301.639H169.037C169.206 301.639 169.343 301.502 169.343 301.332V300.062C169.343 299.892 169.206 299.755 169.037 299.755Z" fill="#3F3D56"/>
<path d="M175.317 299.755H172.79C172.621 299.755 172.483 299.892 172.483 300.062V301.332C172.483 301.502 172.621 301.639 172.79 301.639H175.317C175.486 301.639 175.624 301.502 175.624 301.332V300.062C175.624 299.892 175.486 299.755 175.317 299.755Z" fill="#3F3D56"/>
<path d="M181.597 299.755H179.07C178.901 299.755 178.764 299.892 178.764 300.062V301.332C178.764 301.502 178.901 301.639 179.07 301.639H181.597C181.767 301.639 181.904 301.502 181.904 301.332V300.062C181.904 299.892 181.767 299.755 181.597 299.755Z" fill="#3F3D56"/>
<path d="M187.877 299.755H185.351C185.181 299.755 185.044 299.892 185.044 300.062V301.332C185.044 301.502 185.181 301.639 185.351 301.639H187.877C188.047 301.639 188.184 301.502 188.184 301.332V300.062C188.184 299.892 188.047 299.755 187.877 299.755Z" fill="#3F3D56"/>
<path d="M194.158 299.755H191.631C191.461 299.755 191.324 299.892 191.324 300.062V301.332C191.324 301.502 191.461 301.639 191.631 301.639H194.158C194.327 301.639 194.464 301.502 194.464 301.332V300.062C194.464 299.892 194.327 299.755 194.158 299.755Z" fill="#3F3D56"/>
<path d="M200.438 299.755H197.911C197.742 299.755 197.604 299.892 197.604 300.062V301.332C197.604 301.502 197.742 301.639 197.911 301.639H200.438C200.607 301.639 200.745 301.502 200.745 301.332V300.062C200.745 299.892 200.607 299.755 200.438 299.755Z" fill="#3F3D56"/>
<path d="M206.718 299.755H204.191C204.022 299.755 203.885 299.892 203.885 300.062V301.332C203.885 301.502 204.022 301.639 204.191 301.639H206.718C206.888 301.639 207.025 301.502 207.025 301.332V300.062C207.025 299.892 206.888 299.755 206.718 299.755Z" fill="#3F3D56"/>
<path d="M212.999 299.755H210.472C210.302 299.755 210.165 299.892 210.165 300.062V301.332C210.165 301.502 210.302 301.639 210.472 301.639H212.999C213.168 301.639 213.305 301.502 213.305 301.332V300.062C213.305 299.892 213.168 299.755 212.999 299.755Z" fill="#3F3D56"/>
<path d="M219.279 299.755H216.752C216.583 299.755 216.445 299.892 216.445 300.062V301.332C216.445 301.502 216.583 301.639 216.752 301.639H219.279C219.448 301.639 219.585 301.502 219.585 301.332V300.062C219.585 299.892 219.448 299.755 219.279 299.755Z" fill="#3F3D56"/>
<path d="M225.559 299.755H223.032C222.863 299.755 222.726 299.892 222.726 300.062V301.332C222.726 301.502 222.863 301.639 223.032 301.639H225.559C225.728 301.639 225.866 301.502 225.866 301.332V300.062C225.866 299.892 225.728 299.755 225.559 299.755Z" fill="#3F3D56"/>
<path d="M231.839 299.755H229.312C229.143 299.755 229.006 299.892 229.006 300.062V301.332C229.006 301.502 229.143 301.639 229.312 301.639H231.839C232.009 301.639 232.146 301.502 232.146 301.332V300.062C232.146 299.892 232.009 299.755 231.839 299.755Z" fill="#3F3D56"/>
<path d="M137.561 302.895H135.034C134.865 302.895 134.728 303.032 134.728 303.202V304.473C134.728 304.642 134.865 304.779 135.034 304.779H137.561C137.73 304.779 137.868 304.642 137.868 304.473V303.202C137.868 303.032 137.73 302.895 137.561 302.895Z" fill="#3F3D56"/>
<path d="M143.841 302.895H141.314C141.145 302.895 141.008 303.032 141.008 303.202V304.473C141.008 304.642 141.145 304.779 141.314 304.779H143.841C144.011 304.779 144.148 304.642 144.148 304.473V303.202C144.148 303.032 144.011 302.895 143.841 302.895Z" fill="#3F3D56"/>
<path d="M150.122 302.895H147.595C147.425 302.895 147.288 303.032 147.288 303.202V304.473C147.288 304.642 147.425 304.779 147.595 304.779H150.122C150.291 304.779 150.428 304.642 150.428 304.473V303.202C150.428 303.032 150.291 302.895 150.122 302.895Z" fill="#3F3D56"/>
<path d="M156.402 302.895H153.875C153.706 302.895 153.568 303.032 153.568 303.202V304.473C153.568 304.642 153.706 304.779 153.875 304.779H156.402C156.571 304.779 156.708 304.642 156.708 304.473V303.202C156.708 303.032 156.571 302.895 156.402 302.895Z" fill="#3F3D56"/>
<path d="M162.682 302.895H160.155C159.986 302.895 159.849 303.032 159.849 303.202V304.473C159.849 304.642 159.986 304.779 160.155 304.779H162.682C162.852 304.779 162.989 304.642 162.989 304.473V303.202C162.989 303.032 162.852 302.895 162.682 302.895Z" fill="#3F3D56"/>
<path d="M168.962 302.895H166.436C166.266 302.895 166.129 303.032 166.129 303.202V304.473C166.129 304.642 166.266 304.779 166.436 304.779H168.962C169.132 304.779 169.269 304.642 169.269 304.473V303.202C169.269 303.032 169.132 302.895 168.962 302.895Z" fill="#3F3D56"/>
<path d="M175.243 302.895H172.716C172.546 302.895 172.409 303.032 172.409 303.202V304.473C172.409 304.642 172.546 304.779 172.716 304.779H175.243C175.412 304.779 175.549 304.642 175.549 304.473V303.202C175.549 303.032 175.412 302.895 175.243 302.895Z" fill="#3F3D56"/>
<path d="M181.523 302.895H178.996C178.827 302.895 178.689 303.032 178.689 303.202V304.473C178.689 304.642 178.827 304.779 178.996 304.779H181.523C181.692 304.779 181.83 304.642 181.83 304.473V303.202C181.83 303.032 181.692 302.895 181.523 302.895Z" fill="#3F3D56"/>
<path d="M187.803 302.895H185.276C185.107 302.895 184.97 303.032 184.97 303.202V304.473C184.97 304.642 185.107 304.779 185.276 304.779H187.803C187.973 304.779 188.11 304.642 188.11 304.473V303.202C188.11 303.032 187.973 302.895 187.803 302.895Z" fill="#3F3D56"/>
<path d="M194.084 302.895H191.557C191.387 302.895 191.25 303.032 191.25 303.202V304.473C191.25 304.642 191.387 304.779 191.557 304.779H194.084C194.253 304.779 194.39 304.642 194.39 304.473V303.202C194.39 303.032 194.253 302.895 194.084 302.895Z" fill="#3F3D56"/>
<path d="M200.364 302.895H197.837C197.668 302.895 197.53 303.032 197.53 303.202V304.473C197.53 304.642 197.668 304.779 197.837 304.779H200.364C200.533 304.779 200.67 304.642 200.67 304.473V303.202C200.67 303.032 200.533 302.895 200.364 302.895Z" fill="#3F3D56"/>
<path d="M206.644 302.895H204.117C203.948 302.895 203.811 303.032 203.811 303.202V304.473C203.811 304.642 203.948 304.779 204.117 304.779H206.644C206.813 304.779 206.951 304.642 206.951 304.473V303.202C206.951 303.032 206.813 302.895 206.644 302.895Z" fill="#3F3D56"/>
<path d="M212.924 302.895H210.397C210.228 302.895 210.091 303.032 210.091 303.202V304.473C210.091 304.642 210.228 304.779 210.397 304.779H212.924C213.094 304.779 213.231 304.642 213.231 304.473V303.202C213.231 303.032 213.094 302.895 212.924 302.895Z" fill="#3F3D56"/>
<path d="M219.205 302.895H216.678C216.508 302.895 216.371 303.032 216.371 303.202V304.473C216.371 304.642 216.508 304.779 216.678 304.779H219.205C219.374 304.779 219.511 304.642 219.511 304.473V303.202C219.511 303.032 219.374 302.895 219.205 302.895Z" fill="#3F3D56"/>
<path d="M225.485 302.895H222.958C222.789 302.895 222.651 303.032 222.651 303.202V304.473C222.651 304.642 222.789 304.779 222.958 304.779H225.485C225.654 304.779 225.792 304.642 225.792 304.473V303.202C225.792 303.032 225.654 302.895 225.485 302.895Z" fill="#3F3D56"/>
<path d="M231.765 302.895H229.238C229.069 302.895 228.932 303.032 228.932 303.202V304.473C228.932 304.642 229.069 304.779 229.238 304.779H231.765C231.935 304.779 232.072 304.642 232.072 304.473V303.202C232.072 303.032 231.935 302.895 231.765 302.895Z" fill="#3F3D56"/>
<path d="M189.687 306.663H165.179C165.01 306.663 164.873 306.801 164.873 306.97V308.241C164.873 308.41 165.01 308.547 165.179 308.547H189.687C189.857 308.547 189.994 308.41 189.994 308.241V306.97C189.994 306.801 189.857 306.663 189.687 306.663Z" fill="#3F3D56"/>
<path d="M259.217 154.92H98.8672C98.7005 154.916 98.5419 154.847 98.4253 154.728C98.3087 154.609 98.2434 154.449 98.2434 154.282C98.2434 154.115 98.3087 153.955 98.4253 153.836C98.5419 153.717 98.7005 153.648 98.8672 153.644H259.217C259.384 153.648 259.543 153.717 259.659 153.836C259.776 153.955 259.841 154.115 259.841 154.282C259.841 154.449 259.776 154.609 259.659 154.728C259.543 154.847 259.384 154.916 259.217 154.92Z" fill="#3F3D56"/>
<path d="M109.782 150.389C111.846 150.389 113.519 148.678 113.519 146.568C113.519 144.458 111.846 142.748 109.782 142.748C107.719 142.748 106.045 144.458 106.045 146.568C106.045 148.678 107.719 150.389 109.782 150.389Z" fill="#3F3D56"/>
<path d="M122.692 150.389C124.756 150.389 126.429 148.678 126.429 146.568C126.429 144.458 124.756 142.748 122.692 142.748C120.628 142.748 118.955 144.458 118.955 146.568C118.955 148.678 120.628 150.389 122.692 150.389Z" fill="#3F3D56"/>
<path d="M135.602 150.389C137.666 150.389 139.339 148.678 139.339 146.568C139.339 144.458 137.666 142.748 135.602 142.748C133.538 142.748 131.865 144.458 131.865 146.568C131.865 148.678 133.538 150.389 135.602 150.389Z" fill="#3F3D56"/>
<path d="M251.443 143.693H242.274C242.093 143.697 241.921 143.772 241.794 143.902C241.667 144.031 241.596 144.205 241.596 144.387C241.596 144.568 241.667 144.742 241.794 144.872C241.921 145.001 242.093 145.076 242.274 145.081H251.443C251.626 145.078 251.8 145.004 251.928 144.874C252.056 144.744 252.128 144.569 252.128 144.387C252.128 144.204 252.056 144.029 251.928 143.899C251.8 143.77 251.626 143.695 251.443 143.693Z" fill="#3F3D56"/>
<path d="M251.443 146.299H242.274C242.093 146.303 241.92 146.378 241.793 146.508C241.666 146.637 241.595 146.812 241.595 146.993C241.595 147.174 241.666 147.349 241.793 147.478C241.92 147.608 242.093 147.683 242.274 147.687H251.443C251.626 147.685 251.8 147.611 251.929 147.481C252.057 147.351 252.129 147.176 252.129 146.993C252.129 146.81 252.057 146.635 251.929 146.505C251.8 146.375 251.626 146.301 251.443 146.299Z" fill="#3F3D56"/>
<path d="M251.443 148.905H242.274C242.093 148.91 241.921 148.985 241.794 149.114C241.667 149.244 241.596 149.418 241.596 149.599C241.596 149.781 241.667 149.955 241.794 150.084C241.921 150.214 242.093 150.289 242.274 150.293H251.443C251.626 150.291 251.8 150.216 251.928 150.087C252.056 149.957 252.128 149.782 252.128 149.599C252.128 149.417 252.056 149.242 251.928 149.112C251.8 148.982 251.626 148.908 251.443 148.905Z" fill="#3F3D56"/>
<path d="M112.694 169.739H109.399C108.4 169.739 107.59 170.549 107.59 171.548C107.59 172.547 108.4 173.356 109.399 173.356H112.694C113.692 173.356 114.502 172.547 114.502 171.548C114.502 170.549 113.692 169.739 112.694 169.739Z" fill="#E6E6E6"/>
<path d="M150.375 169.739H147.08C146.082 169.739 145.272 170.549 145.272 171.548C145.272 172.547 146.082 173.356 147.08 173.356H150.375C151.374 173.356 152.184 172.547 152.184 171.548C152.184 170.549 151.374 169.739 150.375 169.739Z" fill="#E6E6E6"/>
<path d="M161.052 169.739H157.757C156.758 169.739 155.948 170.549 155.948 171.548C155.948 172.547 156.758 173.356 157.757 173.356H161.052C162.051 173.356 162.86 172.547 162.86 171.548C162.86 170.549 162.051 169.739 161.052 169.739Z" fill="#E6E6E6"/>
<path d="M140.126 169.438H119.648C118.649 169.438 117.84 170.247 117.84 171.246C117.84 172.245 118.649 173.055 119.648 173.055H140.126C141.125 173.055 141.934 172.245 141.934 171.246C141.934 170.247 141.125 169.438 140.126 169.438Z" fill="#E6E6E6"/>
<path d="M190.368 169.438H169.89C168.892 169.438 168.082 170.247 168.082 171.246C168.082 172.245 168.892 173.055 169.89 173.055H190.368C191.367 173.055 192.177 172.245 192.177 171.246C192.177 170.247 191.367 169.438 190.368 169.438Z" fill="#E6E6E6"/>
<path d="M122.742 177.903H119.447C118.448 177.903 117.638 178.713 117.638 179.712C117.638 180.711 118.448 181.521 119.447 181.521H122.742C123.741 181.521 124.551 180.711 124.551 179.712C124.551 178.713 123.741 177.903 122.742 177.903Z" fill="#E6E6E6"/>
<path d="M160.424 177.903H157.129C156.13 177.903 155.32 178.713 155.32 179.712C155.32 180.711 156.13 181.521 157.129 181.521H160.424C161.422 181.521 162.232 180.711 162.232 179.712C162.232 178.713 161.422 177.903 160.424 177.903Z" fill="#E6E6E6"/>
<path d="M171.1 177.903H167.805C166.806 177.903 165.997 178.713 165.997 179.712C165.997 180.711 166.806 181.521 167.805 181.521H171.1C172.099 181.521 172.909 180.711 172.909 179.712C172.909 178.713 172.099 177.903 171.1 177.903Z" fill="#E6E6E6"/>
<path d="M150.174 177.602H129.697C128.698 177.602 127.888 178.412 127.888 179.411C127.888 180.41 128.698 181.219 129.697 181.219H150.174C151.173 181.219 151.983 180.41 151.983 179.411C151.983 178.412 151.173 177.602 150.174 177.602Z" fill="#E6E6E6"/>
<path d="M200.416 177.602H179.939C178.94 177.602 178.13 178.412 178.13 179.411C178.13 180.41 178.94 181.219 179.939 181.219H200.416C201.415 181.219 202.225 180.41 202.225 179.411C202.225 178.412 201.415 177.602 200.416 177.602Z" fill="#E6E6E6"/>
<path d="M132.79 186.068H129.496C128.497 186.068 127.687 186.878 127.687 187.876C127.687 188.875 128.497 189.685 129.496 189.685H132.79C133.789 189.685 134.599 188.875 134.599 187.876C134.599 186.878 133.789 186.068 132.79 186.068Z" fill="#E6E6E6"/>
<path d="M170.472 186.068H167.177C166.178 186.068 165.369 186.878 165.369 187.876C165.369 188.875 166.178 189.685 167.177 189.685H170.472C171.471 189.685 172.281 188.875 172.281 187.876C172.281 186.878 171.471 186.068 170.472 186.068Z" fill="#E6E6E6"/>
<path d="M181.148 186.068H177.854C176.855 186.068 176.045 186.878 176.045 187.876C176.045 188.875 176.855 189.685 177.854 189.685H181.148C182.147 189.685 182.957 188.875 182.957 187.876C182.957 186.878 182.147 186.068 181.148 186.068Z" fill="#E6E6E6"/>
<path d="M160.223 185.766H139.745C138.746 185.766 137.937 186.576 137.937 187.575C137.937 188.574 138.746 189.384 139.745 189.384H160.223C161.221 189.384 162.031 188.574 162.031 187.575C162.031 186.576 161.221 185.766 160.223 185.766Z" fill="#E6E6E6"/>
<path d="M210.465 185.766H189.987C188.988 185.766 188.179 186.576 188.179 187.575C188.179 188.574 188.988 189.384 189.987 189.384H210.465C211.464 189.384 212.273 188.574 212.273 187.575C212.273 186.576 211.464 185.766 210.465 185.766Z" fill="#E6E6E6"/>
<path d="M142.839 194.232H139.544C138.545 194.232 137.735 195.042 137.735 196.041C137.735 197.04 138.545 197.85 139.544 197.85H142.839C143.838 197.85 144.647 197.04 144.647 196.041C144.647 195.042 143.838 194.232 142.839 194.232Z" fill="#E6E6E6"/>
<path d="M180.52 194.232H177.226C176.227 194.232 175.417 195.042 175.417 196.041C175.417 197.04 176.227 197.85 177.226 197.85H180.52C181.519 197.85 182.329 197.04 182.329 196.041C182.329 195.042 181.519 194.232 180.52 194.232Z" fill="#E6E6E6"/>
<path d="M191.197 194.232H187.902C186.903 194.232 186.094 195.042 186.094 196.041C186.094 197.04 186.903 197.85 187.902 197.85H191.197C192.196 197.85 193.006 197.04 193.006 196.041C193.006 195.042 192.196 194.232 191.197 194.232Z" fill="#E6E6E6"/>
<path d="M170.271 193.931H149.794C148.795 193.931 147.985 194.74 147.985 195.739C147.985 196.738 148.795 197.548 149.794 197.548H170.271C171.27 197.548 172.08 196.738 172.08 195.739C172.08 194.74 171.27 193.931 170.271 193.931Z" fill="#E6E6E6"/>
<path d="M150.375 226.697H147.08C146.082 226.697 145.272 227.507 145.272 228.506C145.272 229.505 146.082 230.315 147.08 230.315H150.375C151.374 230.315 152.184 229.505 152.184 228.506C152.184 227.507 151.374 226.697 150.375 226.697Z" fill="#E6E6E6"/>
<path d="M161.052 226.697H157.757C156.758 226.697 155.948 227.507 155.948 228.506C155.948 229.505 156.758 230.315 157.757 230.315H161.052C162.051 230.315 162.86 229.505 162.86 228.506C162.86 227.507 162.051 226.697 161.052 226.697Z" fill="#E6E6E6"/>
<path d="M190.368 226.999H169.89C168.892 226.999 168.082 227.808 168.082 228.807C168.082 229.806 168.892 230.616 169.89 230.616H190.368C191.367 230.616 192.177 229.806 192.177 228.807C192.177 227.808 191.367 226.999 190.368 226.999Z" fill="#E6E6E6"/>
<path d="M112.694 226.697H109.399C108.4 226.697 107.59 227.507 107.59 228.506C107.59 229.505 108.4 230.315 109.399 230.315H112.694C113.692 230.315 114.502 229.505 114.502 228.506C114.502 227.507 113.692 226.697 112.694 226.697Z" fill="#E6E6E6"/>
<path d="M140.126 226.999H119.648C118.649 226.999 117.84 227.808 117.84 228.807C117.84 229.806 118.649 230.616 119.648 230.616H140.126C141.125 230.616 141.934 229.806 141.934 228.807C141.934 227.808 141.125 226.999 140.126 226.999Z" fill="#E6E6E6"/>
<path d="M122.742 218.533H119.447C118.448 218.533 117.638 219.343 117.638 220.341C117.638 221.34 118.448 222.15 119.447 222.15H122.742C123.741 222.15 124.551 221.34 124.551 220.341C124.551 219.343 123.741 218.533 122.742 218.533Z" fill="#E6E6E6"/>
<path d="M160.424 218.533H157.129C156.13 218.533 155.32 219.343 155.32 220.341C155.32 221.34 156.13 222.15 157.129 222.15H160.424C161.422 222.15 162.232 221.34 162.232 220.341C162.232 219.343 161.422 218.533 160.424 218.533Z" fill="#E6E6E6"/>
<path d="M171.1 218.533H167.805C166.806 218.533 165.997 219.343 165.997 220.341C165.997 221.34 166.806 222.15 167.805 222.15H171.1C172.099 222.15 172.909 221.34 172.909 220.341C172.909 219.343 172.099 218.533 171.1 218.533Z" fill="#E6E6E6"/>
<path d="M150.174 218.834H129.697C128.698 218.834 127.888 219.644 127.888 220.643C127.888 221.642 128.698 222.452 129.697 222.452H150.174C151.173 222.452 151.983 221.642 151.983 220.643C151.983 219.644 151.173 218.834 150.174 218.834Z" fill="#E6E6E6"/>
<path d="M132.79 210.368H129.496C128.497 210.368 127.687 211.178 127.687 212.177C127.687 213.176 128.497 213.986 129.496 213.986H132.79C133.789 213.986 134.599 213.176 134.599 212.177C134.599 211.178 133.789 210.368 132.79 210.368Z" fill="#E6E6E6"/>
<path d="M170.472 210.368H167.177C166.178 210.368 165.369 211.178 165.369 212.177C165.369 213.176 166.178 213.986 167.177 213.986H170.472C171.471 213.986 172.281 213.176 172.281 212.177C172.281 211.178 171.471 210.368 170.472 210.368Z" fill="#E6E6E6"/>
<path d="M181.148 210.368H177.854C176.855 210.368 176.045 211.178 176.045 212.177C176.045 213.176 176.855 213.986 177.854 213.986H181.148C182.147 213.986 182.957 213.176 182.957 212.177C182.957 211.178 182.147 210.368 181.148 210.368Z" fill="#E6E6E6"/>
<path d="M160.223 210.67H139.745C138.746 210.67 137.937 211.48 137.937 212.479C137.937 213.478 138.746 214.287 139.745 214.287H160.223C161.221 214.287 162.031 213.478 162.031 212.479C162.031 211.48 161.221 210.67 160.223 210.67Z" fill="#E6E6E6"/>
<path d="M142.839 202.204H139.544C138.545 202.204 137.735 203.014 137.735 204.013C137.735 205.012 138.545 205.821 139.544 205.821H142.839C143.838 205.821 144.647 205.012 144.647 204.013C144.647 203.014 143.838 202.204 142.839 202.204Z" fill="#E6E6E6"/>
<path d="M180.52 202.204H177.226C176.227 202.204 175.417 203.014 175.417 204.013C175.417 205.012 176.227 205.821 177.226 205.821H180.52C181.519 205.821 182.329 205.012 182.329 204.013C182.329 203.014 181.519 202.204 180.52 202.204Z" fill="#E6E6E6"/>
<path d="M191.197 202.204H187.902C186.903 202.204 186.094 203.014 186.094 204.013C186.094 205.012 186.903 205.821 187.902 205.821H191.197C192.196 205.821 193.006 205.012 193.006 204.013C193.006 203.014 192.196 202.204 191.197 202.204Z" fill="#E6E6E6"/>
<path d="M170.271 202.506H149.794C148.795 202.506 147.985 203.315 147.985 204.314C147.985 205.313 148.795 206.123 149.794 206.123H170.271C171.27 206.123 172.08 205.313 172.08 204.314C172.08 203.315 171.27 202.506 170.271 202.506Z" fill="#E6E6E6"/>
<path d="M261.14 344.643C260.757 344.837 260.368 345.032 259.985 345.221C250.062 350.182 242.123 353.002 231.265 356.092C230.348 345.855 229.462 327.862 228.602 316.708C228.376 313.813 228.15 311.382 227.93 309.668C227.875 308.756 227.688 307.857 227.377 306.999L227.415 309.668L227.509 316.708L228.056 356.971C214.548 360.545 200.673 362.545 186.706 362.931C185.978 362.95 185.262 362.962 184.571 362.975C184.326 362.981 184.087 362.987 183.849 362.987C183.064 362.994 182.285 363 181.5 363C166.782 363.011 152.116 361.233 137.827 357.706C138.135 347.576 138.442 329.784 138.738 316.708C138.8 314.152 138.857 311.772 138.92 309.668C139.039 305.171 139.165 301.931 139.284 300.844C139.178 301.037 139.096 301.241 139.039 301.453C138.457 304.161 138.061 306.906 137.852 309.668C137.632 311.772 137.412 314.152 137.193 316.708C136.024 330.292 134.806 348.763 133.55 356.594C126.074 354.553 118.738 352.029 111.588 349.039C107.82 347.469 104.119 345.775 100.484 343.958C101.175 339.436 101.897 334.368 102.639 329.112C103.216 325.036 103.813 320.847 104.422 316.708C105.364 310.315 106.331 304.047 107.311 298.527C108.743 290.463 110.213 283.982 111.67 281.005C113.051 278.179 114.433 275.39 115.771 272.721C116.235 271.785 116.7 270.862 117.152 269.964C117.259 269.75 117.366 269.543 117.473 269.336C118.433 267.446 119.363 265.637 120.248 263.941C121.008 262.49 121.731 261.121 122.415 259.859C124.073 256.794 125.48 254.351 126.522 252.806C130.881 246.195 137.37 241.273 144.911 238.858L145.099 238.808L145.231 238.864L158.075 234.92L159.952 234.342L161.215 233.953L165.661 230.568L168.079 228.728L170.346 227.001L174.78 223.628L202.231 225.318L207.576 238.186L219.546 242.563L219.753 242.469L219.935 242.394L220.124 242.444C227.664 244.861 234.152 249.783 238.512 256.392C239.103 257.278 239.819 258.446 240.629 259.859C241.32 261.059 242.073 262.428 242.89 263.941C244.051 266.095 245.32 268.526 246.664 271.157C246.959 271.735 247.261 272.325 247.562 272.922C248.121 274.027 248.688 275.156 249.264 276.307C250.602 278.976 251.983 281.765 253.365 284.597C254.565 287.053 255.777 292.102 256.97 298.527C257.956 303.865 258.936 310.158 259.884 316.708C261.128 325.199 259.802 335.367 260.927 343.179C260.996 343.676 261.071 344.159 261.14 344.643Z" fill="#3F3D56"/>
<path d="M181.886 213.357C199.519 213.357 213.813 199.062 213.813 181.43C213.813 163.797 199.519 149.503 181.886 149.503C164.254 149.503 149.959 163.797 149.959 181.43C149.959 199.062 164.254 213.357 181.886 213.357Z" fill="#A0616A"/>
<path d="M234.537 139.121C233.906 137.647 233.066 136.273 232.044 135.038C227.195 129.116 218.378 126.51 209.328 133.519C207.586 133.129 205.77 133.234 204.084 133.82C203.288 134.108 202.542 134.519 201.873 135.038C200.503 136.107 199.434 137.514 198.771 139.121C198.416 139.969 198.184 140.864 198.08 141.777C195.843 140.615 193.475 139.723 191.027 139.121C185.02 137.627 178.739 137.627 172.733 139.121C170.808 139.608 168.954 140.342 167.219 141.306C164.279 143.002 162.59 145.143 162.289 147.524C158.049 147.762 153.641 149.992 150.356 153.647C149.985 154.055 149.627 154.482 149.295 154.922C146.532 158.536 145.048 162.965 145.074 167.514V168.311H145.872C148.057 168.309 150.222 168.732 152.246 169.555C153.558 170.082 154.8 170.767 155.945 171.596C156.695 172.127 157.402 172.715 158.062 173.354C159.592 174.835 160.888 176.54 161.905 178.41C164.515 183.136 165.419 188.615 164.468 193.929C164.25 195.159 163.93 196.369 163.513 197.546C162.92 199.226 162.138 200.834 161.183 202.338C161.146 202.394 161.114 202.451 161.076 202.508C160.656 203.18 160.254 203.864 159.877 204.555C159.594 205.07 159.331 205.597 159.086 206.125C158.37 207.593 157.765 209.113 157.277 210.672C156.403 213.429 155.888 216.287 155.745 219.175C155.701 219.942 155.688 220.708 155.713 221.474C155.75 223.449 155.967 225.416 156.36 227.352C156.416 227.616 156.473 227.874 156.53 228.137L156.988 230.141L158.074 234.92L158.828 238.211L159.525 241.263L160.555 239.787C160.907 239.285 161.792 237.74 162.979 235.554C163.764 234.129 164.675 232.427 165.661 230.568C167.036 227.962 168.544 225.054 170.02 222.152C170.616 220.978 171.207 219.81 171.778 218.667C172.858 216.5 173.876 214.409 174.749 212.55C175.552 210.835 176.237 209.315 176.746 208.097C176.903 208.895 177.035 209.705 177.135 210.521C177.248 211.35 177.33 212.192 177.374 213.033C177.386 213.159 177.393 213.291 177.399 213.416L177.424 213.931L177.43 214.082L178.096 214.17C181.936 214.581 185.806 214.611 189.652 214.258H189.658C194.752 213.874 199.75 212.663 204.454 210.672C207.126 209.513 209.621 207.982 211.865 206.125C212.914 205.257 213.892 204.308 214.792 203.286C215.018 203.029 215.238 202.771 215.451 202.508C216.694 200.98 217.758 199.315 218.623 197.546C219.202 196.379 219.693 195.169 220.092 193.929C222.504 186.625 222.366 177.512 219.678 166.685C220.404 166.545 221.099 166.277 221.731 165.894C223.703 164.707 225.072 162.352 225.5 159.475L226.178 159.657C228.582 158.537 230.724 156.924 232.464 154.922C232.809 154.514 233.132 154.089 233.432 153.647C236.503 149.125 236.528 143.699 234.537 139.121Z" fill="#2F2E41"/>
<path opacity="0.2" d="M129.575 298.499L134.911 277.905L139.623 295.675L129.575 298.499Z" fill="black"/>
<path d="M271.578 285.081C269.669 311.382 271.647 322.963 261.109 344.649C251.52 349.342 241.533 353.171 231.265 356.092C230.197 356.393 229.127 356.686 228.056 356.971C214.548 360.545 200.673 362.545 186.706 362.931C185.978 362.95 185.262 362.962 184.571 362.975C184.326 362.981 184.087 362.987 183.849 362.987C183.064 362.994 182.285 363 181.5 363C166.782 363.011 152.116 361.233 137.827 357.706C136.395 357.354 134.969 356.983 133.55 356.594C126.074 354.553 118.738 352.029 111.588 349.039C107.82 347.469 104.119 345.775 100.484 343.958C99.6616 343.544 98.8389 343.129 98.0288 342.702C93.8649 335.379 91.4973 326.474 91.447 315.772C94.3297 297.333 265.21 269.179 271.578 285.081Z" fill="#2F2E41"/>
<path opacity="0.2" d="M271.573 289.585C271.671 287.957 271.78 286.275 271.907 284.523C265.539 268.621 94.6585 296.776 91.7759 315.215C91.7838 316.905 91.8561 318.546 91.9777 320.148C98.9586 301.949 261.297 275.189 271.573 289.585Z" fill="black"/>
<path d="M102.429 214.881C102.47 214.311 102.389 213.74 102.191 213.204C101.994 212.669 101.683 212.182 101.282 211.776C100.88 211.37 100.396 211.056 99.862 210.853C99.3283 210.65 98.7574 210.564 98.1876 210.6C97.9753 210.608 97.7641 210.635 97.5564 210.679L72.5847 216.321C72.0267 216.456 71.5032 216.707 71.048 217.057C70.5927 217.406 70.2158 217.848 69.9415 218.352C69.5753 218.366 69.2116 218.419 68.8567 218.51C68.0796 218.686 67.3448 219.014 66.6943 219.474C66.0437 219.934 65.4902 220.518 65.0652 221.192C64.6403 221.866 64.3523 222.617 64.2176 223.402C64.083 224.188 64.1043 224.992 64.2805 225.769C64.4566 226.546 64.7841 227.281 65.2442 227.931C65.7043 228.582 66.2881 229.135 66.9621 229.56C68.3234 230.418 69.9698 230.701 71.5392 230.345C72.4325 230.138 73.2682 229.733 73.9851 229.162L82.4471 252.989C82.8698 253.736 83.5229 254.326 84.3086 254.671C85.0943 255.016 85.9705 255.097 86.8063 254.903L103.04 251.234C103.869 251.039 104.616 250.587 105.172 249.942C105.729 249.297 106.066 248.493 106.137 247.644L102.429 214.881ZM71.1645 228.649C70.0436 228.902 68.8682 228.7 67.8961 228.087C66.9239 227.475 66.2342 226.502 65.9784 225.382C65.7225 224.261 65.9212 223.086 66.5311 222.112C67.1409 221.138 68.112 220.446 69.2314 220.187C69.3103 220.167 69.3893 220.187 69.4681 220.167C69.4622 220.886 69.6459 221.593 70.0008 222.218L73.0975 227.623C72.5584 228.134 71.8901 228.489 71.1645 228.649Z" fill="#2F2E41"/>
<path d="M98.1876 210.6C98.4243 213.756 93.0197 217.386 85.7807 218.826C79.1333 220.187 73.1764 219.24 71.4998 216.755C71.8368 216.555 72.2028 216.408 72.5847 216.321L97.5564 210.679C97.7642 210.635 97.9753 210.608 98.1876 210.6Z" fill="#3F3D56"/>
<path d="M80.9171 290.717L94.9433 283.704L83.2548 252.145L80.1744 236.23C79.7742 234.162 78.8383 232.236 77.4603 230.643C76.0823 229.05 74.3104 227.847 72.3218 227.154C70.3331 226.46 68.1973 226.301 66.1277 226.692C64.0582 227.082 62.1274 228.009 60.5283 229.38C58.1587 231.411 56.6708 234.283 56.3788 237.39C56.0867 240.498 57.0133 243.597 58.9629 246.034L70.3976 260.327L80.9171 290.717Z" fill="#A0616A"/>
<path d="M94.9432 277.86L76.2417 287.211L90.4342 331.681C91.4534 334.874 93.2803 337.75 95.738 340.03C98.1957 342.309 101.201 343.915 104.462 344.691C108.482 345.649 112.704 345.3 116.513 343.697C120.323 342.094 123.523 339.319 125.65 335.775L163.284 271.268C165.951 266.823 166.774 261.511 165.578 256.467C164.382 251.424 161.26 247.048 156.881 244.274C154.526 242.782 151.883 241.803 149.124 241.401C146.365 240.998 143.553 241.181 140.869 241.937C138.186 242.693 135.692 244.006 133.549 245.79C131.406 247.574 129.664 249.789 128.434 252.291L105.463 301.237L94.9432 277.86Z" fill="#3F3D56"/>
<path d="M89.1592 237.672C89.1244 237.672 89.0899 237.666 89.0571 237.655L84.974 236.249C84.9246 236.232 84.8803 236.203 84.845 236.165C84.8096 236.126 84.7844 236.08 84.7716 236.029C84.7588 235.979 84.7588 235.926 84.7715 235.875C84.7843 235.825 84.8096 235.778 84.8449 235.74L87.8817 232.433C87.9095 232.403 87.9431 232.378 87.9805 232.361C88.0179 232.343 88.0584 232.333 88.0997 232.331C88.141 232.329 88.1822 232.336 88.2211 232.35C88.2599 232.364 88.2956 232.385 88.3261 232.413C88.3565 232.441 88.3811 232.475 88.3985 232.512C88.4159 232.55 88.4257 232.591 88.4274 232.632C88.4291 232.673 88.4226 232.714 88.4083 232.753C88.394 232.792 88.3722 232.827 88.3441 232.858L85.6318 235.811L89.2613 237.061C89.3316 237.085 89.391 237.133 89.429 237.197C89.467 237.261 89.4811 237.336 89.4689 237.409C89.4566 237.483 89.4188 237.549 89.3621 237.597C89.3054 237.645 89.2335 237.672 89.1592 237.672Z" fill="#6C63FF"/>
<path d="M94.7557 236.526C94.6932 236.526 94.632 236.507 94.5802 236.472C94.5283 236.437 94.4881 236.388 94.4646 236.33C94.4411 236.272 94.4355 236.208 94.4485 236.147C94.4615 236.086 94.4924 236.03 94.5374 235.986L97.2973 233.318L93.5898 231.79C93.5516 231.774 93.5169 231.751 93.4876 231.722C93.4584 231.693 93.4351 231.659 93.4192 231.621C93.4033 231.583 93.3951 231.542 93.395 231.5C93.3949 231.459 93.403 231.418 93.4187 231.38C93.4344 231.342 93.4575 231.307 93.4867 231.278C93.5158 231.249 93.5504 231.226 93.5885 231.21C93.6266 231.194 93.6675 231.186 93.7088 231.186C93.75 231.186 93.7909 231.194 93.829 231.21L97.9799 232.92C98.0281 232.94 98.0706 232.972 98.1036 233.012C98.1366 233.052 98.159 233.1 98.1688 233.152C98.1786 233.203 98.1755 233.256 98.1597 233.305C98.144 233.355 98.1161 233.4 98.0786 233.436L94.974 236.438C94.9155 236.494 94.8372 236.526 94.7557 236.526Z" fill="#6C63FF"/>
<path d="M90.0163 239.593C89.985 239.593 89.9538 239.588 89.924 239.578C89.8845 239.566 89.8479 239.547 89.8161 239.52C89.7843 239.494 89.758 239.462 89.7386 239.425C89.7193 239.389 89.7074 239.349 89.7035 239.308C89.6997 239.267 89.7039 239.225 89.7161 239.186L92.6143 229.766C92.639 229.686 92.6943 229.62 92.7678 229.581C92.8414 229.542 92.9273 229.534 93.0068 229.559C93.0862 229.583 93.1527 229.638 93.1917 229.712C93.2306 229.785 93.2389 229.871 93.2147 229.951L90.3165 239.371C90.2967 239.435 90.2568 239.491 90.2028 239.531C90.1488 239.571 90.0834 239.593 90.0163 239.593Z" fill="#6C63FF"/>
</g>
<defs>
<clipPath id="clip0_11_164">
<rect width="363" height="363" fill="white"/>
</clipPath>
</defs>
</svg>
