<svg width="19" height="19" viewBox="0 0 19 19" fill="none" xmlns="http://www.w3.org/2000/svg">
<path fill-rule="evenodd" clip-rule="evenodd" d="M9.11692 0.800049C4.31335 0.800049 0.417725 4.69516 0.417725 9.50034C0.417725 13.3436 2.91031 16.6047 6.36745 17.7557C6.80273 17.8353 6.96135 17.5666 6.96135 17.3359C6.96135 17.1292 6.95388 16.5823 6.9496 15.8565C4.52966 16.382 4.01907 14.69 4.01907 14.69C3.62331 13.6849 3.05291 13.4173 3.05291 13.4173C2.263 12.8779 3.11273 12.8886 3.11273 12.8886C3.98596 12.95 4.44527 13.7853 4.44527 13.7853C5.2213 15.1147 6.48174 14.7306 6.97738 14.5079C7.05642 13.9461 7.28127 13.5626 7.52962 13.3452C5.59783 13.1252 3.5667 12.3791 3.5667 9.04529C3.5667 8.09515 3.90585 7.31913 4.46237 6.7108C4.37264 6.49076 4.07408 5.6063 4.54782 4.40834C4.54782 4.40834 5.27791 4.17441 6.93999 5.29973C7.63376 5.10692 8.37828 5.01079 9.11799 5.00705C9.85717 5.01079 10.6012 5.10692 11.296 5.29973C12.957 4.17441 13.686 4.40834 13.686 4.40834C14.1608 5.6063 13.8623 6.49076 13.7731 6.7108C14.3307 7.31913 14.6672 8.09515 14.6672 9.04529C14.6672 12.3876 12.6328 13.123 10.6952 13.3383C11.0071 13.6069 11.2853 14.1378 11.2853 14.9496C11.2853 16.1123 11.2746 17.0507 11.2746 17.3359C11.2746 17.5688 11.4317 17.8396 11.8728 17.7546C15.3273 16.6015 17.8177 13.3431 17.8177 9.50034C17.8177 4.69516 13.9221 0.800049 9.11692 0.800049Z" fill="white"/>
</svg>
