<svg width="25" height="24" viewBox="0 0 25 24" fill="none" xmlns="http://www.w3.org/2000/svg">
<path fill-rule="evenodd" clip-rule="evenodd" d="M12.526 2C7.017 2 2.552 6.465 2.552 11.974C2.552 16.38 5.409 20.119 9.373 21.439C9.872 21.529 10.052 21.222 10.052 20.958C10.052 20.721 10.044 20.093 10.041 19.262C7.266 19.864 6.68 17.924 6.68 17.924C6.228 16.772 5.573 16.465 5.573 16.465C4.668 15.846 5.642 15.86 5.642 15.86C6.644 15.93 7.169 16.888 7.169 16.888C8.059 18.412 9.505 17.972 10.071 17.717C10.162 17.072 10.422 16.632 10.706 16.383C8.492 16.132 6.164 15.276 6.164 11.453C6.164 10.366 6.553 9.474 7.188 8.778C7.087 8.525 6.742 7.51 7.287 6.138C7.287 6.138 8.124 5.869 10.029 7.159C10.8426 6.93767 11.6818 6.8247 12.525 6.823C13.3682 6.82437 14.2075 6.93735 15.021 7.159C16.927 5.868 17.763 6.138 17.763 6.138C18.308 7.51 17.966 8.525 17.862 8.778C18.502 9.474 18.886 10.365 18.886 11.453C18.886 15.286 16.556 16.128 14.334 16.375C14.689 16.683 15.009 17.291 15.009 18.221C15.009 19.555 14.997 20.631 14.997 20.958C14.997 21.225 15.175 21.535 15.684 21.437C19.646 20.115 22.5 16.379 22.5 11.974C22.5 6.465 18.035 2 12.526 2Z" fill="#CECECE"/>
</svg>