<svg width="19" height="19" viewBox="0 0 19 19" fill="none" xmlns="http://www.w3.org/2000/svg">
<path fill-rule="evenodd" clip-rule="evenodd" d="M15.6085 15.9908C16.0014 15.598 16.3078 15.1274 16.5082 14.6092C16.701 14.1131 16.8329 13.5461 16.8708 12.7158C16.9087 11.8839 16.9177 11.6183 16.9177 9.49996C16.9177 7.38163 16.9087 7.11589 16.8708 6.28405C16.8329 5.4538 16.701 4.88683 16.5082 4.39069C16.3123 3.87024 16.0054 3.39876 15.6085 3.00915C15.2189 2.61229 14.7474 2.3052 14.227 2.10931C13.7308 1.91662 13.1638 1.78479 12.3335 1.74704C11.5017 1.70893 11.2361 1.69995 9.1177 1.69995C6.99934 1.69995 6.73362 1.70893 5.90179 1.7469C5.07154 1.78479 4.50456 1.91662 4.00842 2.10945C3.48797 2.30532 3.0165 2.61234 2.62689 3.00913C2.23001 3.39871 1.92291 3.87018 1.72698 4.39065C1.5343 4.88683 1.40247 5.4538 1.36471 6.28405C1.3266 7.11589 1.31763 7.3816 1.31763 9.49996C1.31763 11.6183 1.3266 11.8841 1.36471 12.7158C1.40262 13.5461 1.53445 14.1131 1.72728 14.6092C1.92315 15.1298 2.23017 15.6011 2.62696 15.9908C3.01656 16.3876 3.48803 16.6946 4.00848 16.8904C4.50466 17.0832 5.07164 17.2151 5.90185 17.253C6.7338 17.291 6.99942 17.3 9.11777 17.3C11.2361 17.3 11.5018 17.291 12.3336 17.253C13.1639 17.2151 13.7309 17.0832 14.227 16.8904C14.7451 16.69 15.2158 16.3836 15.6085 15.9908ZM2.51701 8.5819C2.51732 8.83424 2.51769 9.13447 2.51769 9.49998C2.51769 9.86548 2.51732 10.1657 2.51701 10.418C2.51582 11.4031 2.51551 11.6582 2.54118 12.2186C2.57313 12.921 2.6115 13.4373 2.72868 13.8263C2.84134 14.2004 2.96769 14.581 3.38019 15.0405C3.79269 15.4998 4.19056 15.7079 4.69737 15.8608C5.20418 16.0136 5.84115 16.0464 6.39425 16.0716C7.02161 16.1003 7.27025 16.1002 8.58619 16.0998H9.1177C9.46928 16.0998 9.76046 16.1001 10.0067 16.1004C11.016 16.1015 11.2707 16.1018 11.8365 16.0758C12.5391 16.0439 13.0553 16.0055 13.4443 15.8884C13.8184 15.7757 14.199 15.6494 14.6584 15.2368C15.1177 14.8244 15.3258 14.4264 15.4787 13.9197C15.6316 13.4128 15.6645 12.7758 15.6897 12.2228C15.7182 11.5962 15.7181 11.3483 15.7179 10.0369V10.0368L15.7177 9.50042V8.96892C15.7181 7.65297 15.7182 7.40433 15.6895 6.77697C15.6643 6.22387 15.6315 5.5869 15.4787 5.08009C15.3258 4.57329 15.1177 4.17541 14.6584 3.76291C14.199 3.35041 13.8183 3.22406 13.4443 3.1114C13.0552 2.99422 12.5389 2.95585 11.8365 2.9239C11.2707 2.89798 11.016 2.89826 10.0067 2.89936C9.76047 2.89964 9.46929 2.89996 9.1177 2.89996L8.58608 2.89987C7.27024 2.89952 7.0216 2.89945 6.39425 2.92807C5.84115 2.9533 5.20418 2.98615 4.69737 3.139C4.19056 3.29186 3.79269 3.49994 3.38019 3.95932C2.96769 4.4187 2.84134 4.79938 2.72868 5.17339C2.6115 5.56244 2.57313 6.07868 2.54118 6.7812C2.51551 7.34152 2.51582 7.59676 2.51701 8.5819ZM9.11758 6.80013C7.62652 6.80013 6.41777 8.00888 6.41777 9.49994C6.41777 10.991 7.62652 12.1997 9.11758 12.1997C10.6086 12.1997 11.8174 10.991 11.8174 9.49994C11.8174 8.00888 10.6086 6.80013 9.11758 6.80013ZM5.21777 9.49994C5.21777 7.34613 6.96377 5.60013 9.11758 5.60013C11.2714 5.60013 13.0174 7.34613 13.0174 9.49994C13.0174 11.6537 11.2714 13.3997 9.11758 13.3997C6.96377 13.3997 5.21777 11.6537 5.21777 9.49994ZM13.2813 6.23631C13.7783 6.23631 14.1813 5.83338 14.1813 5.33631C14.1813 4.83926 13.7783 4.43631 13.2813 4.43631C12.7842 4.43631 12.3813 4.83926 12.3813 5.33631C12.3813 5.83338 12.7842 6.23631 13.2813 6.23631Z" fill="white"/>
</svg>
