<svg width="56" height="56" viewBox="0 0 56 56" fill="none" xmlns="http://www.w3.org/2000/svg">
<path d="M0 0V56H56V0H0ZM30 43.5C30 48.9512 26.78 51.6087 22.1187 51.6087C17.9087 51.6087 15.465 49.4287 14.225 46.7975L18.51 44.2038C19.3363 45.67 19.9637 46.91 21.7675 46.91C23.2675 46.91 24.5 46.2337 24.5 43.6025V26H30V43.5ZM42.4188 51.4837C37.5325 51.4837 34.375 49.2787 32.8338 46.2337L37.125 43.75C38.25 45.5925 39.7188 46.82 42.3125 46.82C44.4925 46.82 45.7588 45.855 45.7588 44.3512C45.7588 42.5475 44.455 41.9087 42.0488 40.8512L40.7337 40.2863C36.9362 38.6712 34.4188 36.6413 34.4188 32.355C34.4188 28.4087 37.425 25.5263 42.1237 25.5263C45.47 25.5263 47.8737 26.5663 49.605 29.6113L45.5 32.25C44.5975 30.6338 43.625 30 42.1175 30C40.5763 30 39.5988 30.9775 39.5988 32.25C39.5988 33.8288 40.5762 34.4675 42.8312 35.445L44.1463 36.0088C48.62 37.9263 51.1387 39.8838 51.1387 44.2788C51.14 49.0163 47.4188 51.4837 42.4188 51.4837Z" fill="#CECECE"/>
</svg>