<svg xmlns="http://www.w3.org/2000/svg" xmlns:xlink="http://www.w3.org/1999/xlink" width="50" zoomAndPan="magnify" viewBox="0 0 37.5 37.499999" height="50" preserveAspectRatio="xMidYMid meet" version="1.0"><defs><g/><clipPath id="6f5541b535"><path d="M 19 0.40625 L 21 0.40625 L 21 2 L 19 2 Z M 19 0.40625 " clip-rule="nonzero"/></clipPath><clipPath id="21a5b90e3d"><path d="M 27 4 L 28.738281 4 L 28.738281 7 L 27 7 Z M 27 4 " clip-rule="nonzero"/></clipPath><clipPath id="992e44fb93"><path d="M 11.488281 4 L 13 4 L 13 7 L 11.488281 7 Z M 11.488281 4 " clip-rule="nonzero"/></clipPath><clipPath id="90a1ae9597"><path d="M 12 2 L 28 2 L 28 13.90625 L 12 13.90625 Z M 12 2 " clip-rule="nonzero"/></clipPath><clipPath id="8555585e20"><path d="M 12.976562 17.007812 L 19.527344 17.007812 L 19.527344 29.671875 L 12.976562 29.671875 Z M 12.976562 17.007812 " clip-rule="nonzero"/></clipPath><clipPath id="ee89232973"><path d="M 16.199219 17.007812 L 19.425781 29.667969 L 12.976562 29.667969 L 16.199219 17.007812 " clip-rule="nonzero"/></clipPath><clipPath id="314e43eac5"><path d="M 7.613281 24.183594 L 14.410156 24.183594 L 14.410156 24.558594 L 7.613281 24.558594 Z M 7.613281 24.183594 " clip-rule="nonzero"/></clipPath><clipPath id="20b898ff31"><path d="M 7.804688 25.15625 L 14.230469 25.15625 L 14.230469 25.546875 L 7.804688 25.546875 Z M 7.804688 25.15625 " clip-rule="nonzero"/></clipPath><clipPath id="a7d3330fc7"><path d="M 7.378906 23.234375 L 14.625 23.234375 L 14.625 23.65625 L 7.378906 23.65625 Z M 7.378906 23.234375 " clip-rule="nonzero"/></clipPath><clipPath id="932a31e69c"><path d="M 0 0 L 37.007812 0 L 37.007812 32 L 0 32 Z M 0 0 " clip-rule="nonzero"/></clipPath></defs><g clip-path="url(#6f5541b535)"><path fill="#ffc5b2" d="M 20.902344 1.136719 C 20.902344 1.335938 20.828125 1.507812 20.683594 1.648438 C 20.539062 1.789062 20.363281 1.859375 20.160156 1.859375 C 19.953125 1.859375 19.777344 1.789062 19.632812 1.648438 C 19.488281 1.507812 19.414062 1.335938 19.414062 1.136719 C 19.414062 0.933594 19.488281 0.761719 19.632812 0.621094 C 19.777344 0.480469 19.953125 0.410156 20.160156 0.410156 C 20.363281 0.410156 20.539062 0.480469 20.683594 0.621094 C 20.828125 0.761719 20.902344 0.933594 20.902344 1.136719 Z M 20.902344 1.136719 " fill-opacity="1" fill-rule="nonzero"/></g><g clip-path="url(#21a5b90e3d)"><path fill="#ffc5b2" d="M 28.734375 5.46875 C 28.734375 5.667969 28.664062 5.839844 28.519531 5.984375 C 28.371094 6.125 28.195312 6.195312 27.992188 6.195312 C 27.785156 6.195312 27.609375 6.125 27.464844 5.984375 C 27.320312 5.839844 27.246094 5.667969 27.246094 5.46875 C 27.246094 5.269531 27.320312 5.097656 27.464844 4.957031 C 27.609375 4.8125 27.785156 4.742188 27.992188 4.742188 C 28.195312 4.742188 28.371094 4.8125 28.519531 4.957031 C 28.664062 5.097656 28.734375 5.269531 28.734375 5.46875 Z M 28.734375 5.46875 " fill-opacity="1" fill-rule="nonzero"/></g><g clip-path="url(#992e44fb93)"><path fill="#ffc5b2" d="M 12.976562 5.46875 C 12.976562 5.667969 12.902344 5.839844 12.757812 5.984375 C 12.613281 6.125 12.4375 6.195312 12.230469 6.195312 C 12.027344 6.195312 11.851562 6.125 11.703125 5.984375 C 11.558594 5.839844 11.488281 5.667969 11.488281 5.46875 C 11.488281 5.269531 11.558594 5.097656 11.703125 4.957031 C 11.851562 4.8125 12.027344 4.742188 12.230469 4.742188 C 12.4375 4.742188 12.613281 4.8125 12.757812 4.957031 C 12.902344 5.097656 12.976562 5.269531 12.976562 5.46875 Z M 12.976562 5.46875 " fill-opacity="1" fill-rule="nonzero"/></g><path fill="#ffc5b2" d="M 24.15625 6.542969 C 24.15625 6.699219 24.101562 6.835938 23.984375 6.945312 C 23.871094 7.058594 23.734375 7.113281 23.570312 7.113281 C 23.410156 7.113281 23.273438 7.058594 23.160156 6.945312 C 23.042969 6.835938 22.988281 6.699219 22.988281 6.542969 C 22.988281 6.382812 23.042969 6.25 23.160156 6.136719 C 23.273438 6.027344 23.410156 5.972656 23.570312 5.972656 C 23.734375 5.972656 23.871094 6.027344 23.984375 6.136719 C 24.101562 6.25 24.15625 6.382812 24.15625 6.542969 Z M 24.15625 6.542969 " fill-opacity="1" fill-rule="nonzero"/><path fill="#ffc5b2" d="M 17.222656 6.441406 C 17.222656 6.597656 17.167969 6.734375 17.050781 6.84375 C 16.9375 6.957031 16.800781 7.011719 16.640625 7.011719 C 16.476562 7.011719 16.339844 6.957031 16.226562 6.84375 C 16.109375 6.734375 16.054688 6.597656 16.054688 6.441406 C 16.054688 6.28125 16.109375 6.148438 16.226562 6.035156 C 16.339844 5.925781 16.476562 5.871094 16.640625 5.871094 C 16.800781 5.871094 16.9375 5.925781 17.050781 6.035156 C 17.167969 6.148438 17.222656 6.28125 17.222656 6.441406 Z M 17.222656 6.441406 " fill-opacity="1" fill-rule="nonzero"/><g clip-path="url(#90a1ae9597)"><path fill="#ffc5b2" d="M 27.632812 6.683594 L 27.511719 6.839844 L 25.039062 10.082031 C 24.734375 10.480469 24.308594 10.761719 23.835938 10.890625 L 23.570312 7.449219 C 23.566406 7.355469 23.449219 7.332031 23.414062 7.417969 L 22.085938 10.679688 C 21.664062 10.40625 21.367188 9.96875 21.285156 9.460938 L 20.300781 3.363281 L 20.304688 3.339844 L 20.117188 2.230469 L 18.953125 9.460938 C 18.871094 9.96875 18.574219 10.40625 18.152344 10.679688 L 16.824219 7.417969 C 16.789062 7.332031 16.671875 7.355469 16.664062 7.449219 L 16.402344 10.902344 C 15.933594 10.769531 15.515625 10.492188 15.210938 10.097656 L 12.738281 6.855469 L 12.617188 6.699219 C 12.546875 6.605469 12.402344 6.675781 12.433594 6.785156 L 14.191406 12.882812 L 14.363281 13.480469 L 14.367188 13.5 C 14.375 13.519531 14.378906 13.535156 14.386719 13.550781 C 14.386719 13.554688 14.390625 13.558594 14.390625 13.566406 C 14.398438 13.574219 14.402344 13.585938 14.40625 13.597656 C 14.410156 13.601562 14.414062 13.609375 14.417969 13.613281 C 14.421875 13.625 14.425781 13.632812 14.433594 13.640625 C 14.4375 13.648438 14.441406 13.652344 14.445312 13.65625 C 14.449219 13.667969 14.457031 13.675781 14.460938 13.683594 C 14.464844 13.6875 14.46875 13.695312 14.472656 13.699219 C 14.480469 13.707031 14.488281 13.714844 14.496094 13.722656 C 14.5 13.726562 14.503906 13.730469 14.507812 13.734375 C 14.515625 13.742188 14.523438 13.75 14.53125 13.757812 C 14.535156 13.761719 14.539062 13.765625 14.546875 13.769531 C 14.554688 13.777344 14.5625 13.785156 14.574219 13.792969 C 14.578125 13.792969 14.582031 13.796875 14.585938 13.800781 C 14.597656 13.808594 14.613281 13.816406 14.628906 13.824219 C 14.632812 13.828125 14.636719 13.832031 14.640625 13.832031 C 14.648438 13.839844 14.660156 13.84375 14.671875 13.847656 C 14.675781 13.851562 14.683594 13.855469 14.691406 13.855469 C 14.699219 13.859375 14.707031 13.863281 14.71875 13.867188 C 14.726562 13.871094 14.730469 13.871094 14.738281 13.875 C 14.746094 13.878906 14.757812 13.878906 14.765625 13.882812 C 14.773438 13.882812 14.78125 13.886719 14.789062 13.886719 C 14.796875 13.890625 14.804688 13.890625 14.8125 13.890625 C 14.820312 13.894531 14.832031 13.894531 14.839844 13.894531 C 14.847656 13.898438 14.855469 13.898438 14.863281 13.898438 C 14.871094 13.898438 14.882812 13.898438 14.890625 13.898438 C 14.898438 13.902344 14.90625 13.890625 14.914062 13.890625 C 14.921875 13.890625 14.933594 13.878906 14.941406 13.878906 C 14.945312 13.878906 14.945312 13.878906 14.945312 13.878906 C 14.949219 13.878906 14.957031 13.886719 14.960938 13.886719 C 14.972656 13.886719 14.984375 13.890625 14.992188 13.890625 C 15.011719 13.886719 15.027344 13.886719 15.046875 13.882812 C 16.0625 13.632812 18.34375 13.132812 20.117188 13.132812 C 21.890625 13.132812 24.175781 13.636719 25.191406 13.882812 C 25.207031 13.886719 25.226562 13.890625 25.246094 13.894531 C 25.253906 13.894531 25.265625 13.886719 25.277344 13.886719 C 25.28125 13.886719 25.289062 13.878906 25.292969 13.878906 C 25.304688 13.878906 25.316406 13.890625 25.324219 13.890625 C 25.332031 13.890625 25.339844 13.894531 25.347656 13.894531 C 25.355469 13.894531 25.367188 13.898438 25.375 13.894531 C 25.382812 13.894531 25.390625 13.894531 25.398438 13.894531 C 25.40625 13.894531 25.414062 13.894531 25.425781 13.890625 C 25.433594 13.890625 25.441406 13.890625 25.449219 13.886719 C 25.457031 13.886719 25.464844 13.882812 25.472656 13.882812 C 25.480469 13.878906 25.488281 13.878906 25.5 13.875 C 25.503906 13.871094 25.511719 13.871094 25.519531 13.867188 C 25.53125 13.863281 25.539062 13.859375 25.546875 13.855469 C 25.554688 13.855469 25.558594 13.851562 25.566406 13.847656 C 25.578125 13.84375 25.585938 13.839844 25.597656 13.832031 C 25.601562 13.832031 25.605469 13.828125 25.609375 13.824219 C 25.625 13.816406 25.640625 13.808594 25.652344 13.800781 C 25.65625 13.796875 25.660156 13.792969 25.664062 13.792969 C 25.671875 13.785156 25.683594 13.777344 25.691406 13.769531 C 25.695312 13.765625 25.703125 13.761719 25.707031 13.757812 C 25.714844 13.75 25.722656 13.742188 25.730469 13.734375 C 25.734375 13.730469 25.738281 13.726562 25.742188 13.722656 C 25.75 13.714844 25.757812 13.707031 25.761719 13.699219 C 25.765625 13.695312 25.769531 13.6875 25.777344 13.683594 C 25.78125 13.675781 25.789062 13.667969 25.792969 13.65625 C 25.796875 13.652344 25.800781 13.648438 25.804688 13.640625 C 25.8125 13.632812 25.816406 13.625 25.820312 13.613281 C 25.824219 13.609375 25.828125 13.601562 25.832031 13.597656 C 25.835938 13.585938 25.839844 13.574219 25.84375 13.566406 C 25.847656 13.558594 25.851562 13.554688 25.851562 13.550781 C 25.859375 13.535156 25.863281 13.519531 25.867188 13.5 L 25.875 13.480469 L 26.046875 12.882812 L 27.777344 6.886719 L 27.789062 6.871094 L 27.816406 6.773438 C 27.847656 6.664062 27.699219 6.59375 27.632812 6.683594 Z M 27.632812 6.683594 " fill-opacity="1" fill-rule="nonzero"/></g><g fill="#1e1e1e" fill-opacity="1"><g transform="translate(0.0000005, 29.441379)"><g><path d="M 16.078125 0 L 16.078125 -6 C 16.078125 -6.738281 16.101562 -7.5 16.15625 -8.28125 C 16.21875 -9.0625 16.28125 -9.71875 16.34375 -10.25 C 16.40625 -10.78125 16.445312 -11.117188 16.46875 -11.265625 L 16.359375 -11.265625 L 13.296875 0 L 9.109375 0 L 6.015625 -11.234375 L 5.921875 -11.234375 C 5.941406 -11.085938 5.984375 -10.753906 6.046875 -10.234375 C 6.117188 -9.710938 6.1875 -9.0625 6.25 -8.28125 C 6.320312 -7.5 6.359375 -6.738281 6.359375 -6 L 6.359375 0 L 1.453125 0 L 1.453125 -16.625 L 8.984375 -16.625 L 11.5 -7.03125 L 11.609375 -7.03125 L 14.09375 -16.625 L 21.375 -16.625 L 21.375 0 Z M 16.078125 0 "/></g></g></g><g fill="#1e1e1e" fill-opacity="1"><g transform="translate(17.87652, 29.29138)"><g><path d="M 9.71875 -16.921875 C 12.1875 -16.921875 14.132812 -16.300781 15.5625 -15.0625 C 17 -13.832031 17.71875 -12.078125 17.71875 -9.796875 L 12.625 -9.796875 C 12.625 -10.753906 12.367188 -11.515625 11.859375 -12.078125 C 11.347656 -12.648438 10.625 -12.9375 9.6875 -12.9375 C 8.613281 -12.9375 7.820312 -12.597656 7.3125 -11.921875 C 6.800781 -11.242188 6.546875 -10.300781 6.546875 -9.09375 L 6.546875 -7.546875 C 6.546875 -6.347656 6.800781 -5.40625 7.3125 -4.71875 C 7.820312 -4.039062 8.597656 -3.703125 9.640625 -3.703125 C 10.671875 -3.703125 11.453125 -3.96875 11.984375 -4.5 C 12.515625 -5.03125 12.78125 -5.78125 12.78125 -6.75 L 17.71875 -6.75 C 17.71875 -4.46875 17.019531 -2.722656 15.625 -1.515625 C 14.226562 -0.304688 12.257812 0.296875 9.71875 0.296875 C 6.882812 0.296875 4.738281 -0.425781 3.28125 -1.875 C 1.820312 -3.332031 1.09375 -5.476562 1.09375 -8.3125 C 1.09375 -11.144531 1.820312 -13.285156 3.28125 -14.734375 C 4.738281 -16.191406 6.882812 -16.921875 9.71875 -16.921875 Z M 9.71875 -16.921875 "/></g></g></g><g clip-path="url(#8555585e20)"><g clip-path="url(#ee89232973)"><path fill="#ffffff" d="M 12.976562 17.007812 L 19.527344 17.007812 L 19.527344 29.671875 L 12.976562 29.671875 Z M 12.976562 17.007812 " fill-opacity="1" fill-rule="nonzero"/></g></g><g clip-path="url(#314e43eac5)"><path fill="#ffffff" d="M 7.613281 24.183594 L 14.484375 24.183594 L 14.484375 24.585938 L 7.613281 24.585938 Z M 7.613281 24.183594 " fill-opacity="1" fill-rule="nonzero"/></g><g clip-path="url(#20b898ff31)"><path fill="#ffffff" d="M 7.804688 25.15625 L 14.273438 25.15625 L 14.273438 25.5625 L 7.804688 25.5625 Z M 7.804688 25.15625 " fill-opacity="1" fill-rule="nonzero"/></g><g clip-path="url(#a7d3330fc7)"><path fill="#ffffff" d="M 7.378906 23.234375 L 14.65625 23.234375 L 14.65625 23.636719 L 7.378906 23.636719 Z M 7.378906 23.234375 " fill-opacity="1" fill-rule="nonzero"/></g><path stroke-linecap="butt" transform="matrix(0.734226, 0, 0, 0.75, 19.424422, 26.561376)" fill="none" stroke-linejoin="miter" d="M 0.0018515 2.001498 L 8.173727 2.001498 " stroke="#1e1e1e" stroke-width="4" stroke-opacity="1" stroke-miterlimit="4"/><g clip-path="url(#932a31e69c)"><path stroke-linecap="butt" transform="matrix(0.744167, 0.00526888, -0.00531004, 0.749981, 14.164873, 12.6595)" fill="none" stroke-linejoin="miter" d="M -0.00255861 2.000944 L 14.122917 2.000668 " stroke="#1e1e1e" stroke-width="4" stroke-opacity="1" stroke-miterlimit="4"/></g></svg>