<svg xmlns="http://www.w3.org/2000/svg" xmlns:xlink="http://www.w3.org/1999/xlink" width="500" zoomAndPan="magnify" viewBox="0 0 375 374.999991" height="500" preserveAspectRatio="xMidYMid meet" version="1.0"><defs><g/><clipPath id="7d5386c384"><path d="M 129.769531 170.09375 L 195 170.09375 L 195 296.722656 L 129.769531 296.722656 Z M 129.769531 170.09375 " clip-rule="nonzero"/></clipPath><clipPath id="15e06b78e0"><path d="M 162.007812 170.09375 L 194.246094 296.667969 L 129.769531 296.667969 L 162.007812 170.09375 " clip-rule="nonzero"/></clipPath><clipPath id="760b569f4b"><path d="M 69.027344 241.824219 L 163.703125 241.824219 L 163.703125 246 L 69.027344 246 Z M 69.027344 241.824219 " clip-rule="nonzero"/></clipPath><clipPath id="662759539f"><path d="M 186 17.050781 L 201 17.050781 L 201 32 L 186 32 Z M 186 17.050781 " clip-rule="nonzero"/></clipPath><clipPath id="53cf6496af"><path d="M 264 61 L 279.265625 61 L 279.265625 77 L 264 77 Z M 264 61 " clip-rule="nonzero"/></clipPath><clipPath id="6abcb183d7"><path d="M 106.765625 61 L 122 61 L 122 77 L 106.765625 77 Z M 106.765625 61 " clip-rule="nonzero"/></clipPath><clipPath id="b58a8e4481"><path d="M 116 35 L 271 35 L 271 155.050781 L 116 155.050781 Z M 116 35 " clip-rule="nonzero"/></clipPath><clipPath id="1bd29f1ad1"><path d="M 68.164062 251.164062 L 162.84375 251.164062 L 162.84375 255.476562 L 68.164062 255.476562 Z M 68.164062 251.164062 " clip-rule="nonzero"/></clipPath><clipPath id="4349cc3de5"><path d="M 75.0625 232.339844 L 169.738281 232.339844 L 169.738281 236.652344 L 75.0625 236.652344 Z M 75.0625 232.339844 " clip-rule="nonzero"/></clipPath></defs><g fill="#000000" fill-opacity="1"><g transform="translate(0.0000045, 293.122302)"><g><path d="M 160.75 0 L 160.75 -59.953125 C 160.75 -67.359375 161.03125 -74.96875 161.59375 -82.78125 C 162.164062 -90.601562 162.769531 -97.171875 163.40625 -102.484375 C 164.050781 -107.804688 164.457031 -111.191406 164.625 -112.640625 L 163.65625 -112.640625 L 132.953125 0 L 91.140625 0 L 60.1875 -112.40625 L 59.21875 -112.40625 C 59.382812 -110.957031 59.828125 -107.613281 60.546875 -102.375 C 61.273438 -97.132812 61.960938 -90.601562 62.609375 -82.78125 C 63.253906 -74.96875 63.578125 -67.359375 63.578125 -59.953125 L 63.578125 0 L 14.5 0 L 14.5 -166.3125 L 89.921875 -166.3125 L 115.0625 -70.34375 L 116.03125 -70.34375 L 140.9375 -166.3125 L 213.6875 -166.3125 L 213.6875 0 Z M 160.75 0 "/></g></g></g><g fill="#000000" fill-opacity="1"><g transform="translate(180.272369, 293.122302)"><g><path d="M 97.171875 -169.21875 C 121.828125 -169.21875 141.328125 -163.050781 155.671875 -150.71875 C 170.015625 -138.394531 177.1875 -120.789062 177.1875 -97.90625 L 126.1875 -97.90625 C 126.1875 -107.570312 123.644531 -115.222656 118.5625 -120.859375 C 113.488281 -126.503906 106.28125 -129.328125 96.9375 -129.328125 C 86.132812 -129.328125 78.195312 -125.941406 73.125 -119.171875 C 68.050781 -112.398438 65.515625 -102.972656 65.515625 -90.890625 L 65.515625 -75.421875 C 65.515625 -63.492188 68.050781 -54.101562 73.125 -47.25 C 78.195312 -40.40625 85.972656 -36.984375 96.453125 -36.984375 C 106.765625 -36.984375 114.578125 -39.640625 119.890625 -44.953125 C 125.210938 -50.273438 127.875 -57.769531 127.875 -67.4375 L 177.1875 -67.4375 C 177.1875 -44.71875 170.21875 -27.3125 156.28125 -15.21875 C 142.34375 -3.132812 122.640625 2.90625 97.171875 2.90625 C 68.804688 2.90625 47.332031 -4.34375 32.75 -18.84375 C 18.164062 -33.351562 10.875 -54.789062 10.875 -83.15625 C 10.875 -111.519531 18.164062 -132.953125 32.75 -147.453125 C 47.332031 -161.960938 68.804688 -169.21875 97.171875 -169.21875 Z M 97.171875 -169.21875 "/></g></g></g><g clip-path="url(#7d5386c384)"><g clip-path="url(#15e06b78e0)"><path fill="#ffffff" d="M 129.769531 170.09375 L 195.265625 170.09375 L 195.265625 296.722656 L 129.769531 296.722656 Z M 129.769531 170.09375 " fill-opacity="1" fill-rule="nonzero"/></g></g><g clip-path="url(#760b569f4b)"><path fill="#ffffff" d="M 69.027344 241.824219 L 164.027344 241.824219 L 164.027344 245.867188 L 69.027344 245.867188 Z M 69.027344 241.824219 " fill-opacity="1" fill-rule="nonzero"/></g><g clip-path="url(#662759539f)"><path fill="#000000" d="M 200.929688 24.488281 C 200.929688 24.976562 200.878906 25.460938 200.785156 25.9375 C 200.691406 26.414062 200.546875 26.878906 200.359375 27.332031 C 200.175781 27.78125 199.945312 28.207031 199.671875 28.613281 C 199.402344 29.019531 199.09375 29.394531 198.746094 29.738281 C 198.402344 30.085938 198.027344 30.390625 197.621094 30.664062 C 197.214844 30.933594 196.785156 31.164062 196.332031 31.347656 C 195.882812 31.535156 195.417969 31.675781 194.9375 31.773438 C 194.457031 31.867188 193.972656 31.914062 193.484375 31.914062 C 192.996094 31.914062 192.511719 31.867188 192.03125 31.773438 C 191.554688 31.675781 191.089844 31.535156 190.636719 31.347656 C 190.183594 31.164062 189.757812 30.933594 189.351562 30.664062 C 188.945312 30.390625 188.566406 30.085938 188.222656 29.738281 C 187.875 29.394531 187.566406 29.019531 187.296875 28.613281 C 187.023438 28.207031 186.796875 27.78125 186.609375 27.332031 C 186.421875 26.878906 186.28125 26.414062 186.183594 25.9375 C 186.089844 25.460938 186.042969 24.976562 186.042969 24.488281 C 186.042969 24 186.089844 23.519531 186.183594 23.039062 C 186.28125 22.5625 186.421875 22.097656 186.609375 21.648438 C 186.796875 21.195312 187.023438 20.769531 187.296875 20.363281 C 187.566406 19.957031 187.875 19.582031 188.222656 19.238281 C 188.566406 18.894531 188.945312 18.585938 189.351562 18.3125 C 189.757812 18.042969 190.183594 17.816406 190.636719 17.628906 C 191.089844 17.441406 191.554688 17.300781 192.03125 17.207031 C 192.511719 17.109375 192.996094 17.0625 193.484375 17.0625 C 193.972656 17.0625 194.457031 17.109375 194.9375 17.207031 C 195.417969 17.300781 195.882812 17.441406 196.332031 17.628906 C 196.785156 17.816406 197.214844 18.042969 197.621094 18.3125 C 198.027344 18.585938 198.402344 18.894531 198.746094 19.238281 C 199.09375 19.582031 199.402344 19.957031 199.671875 20.363281 C 199.945312 20.769531 200.175781 21.195312 200.359375 21.648438 C 200.546875 22.097656 200.691406 22.5625 200.785156 23.039062 C 200.878906 23.519531 200.929688 24 200.929688 24.488281 Z M 200.929688 24.488281 " fill-opacity="1" fill-rule="nonzero"/></g><g clip-path="url(#53cf6496af)"><path fill="#000000" d="M 279.257812 68.816406 C 279.257812 69.304688 279.210938 69.785156 279.117188 70.265625 C 279.019531 70.742188 278.878906 71.207031 278.691406 71.65625 C 278.503906 72.109375 278.277344 72.535156 278.003906 72.941406 C 277.734375 73.347656 277.425781 73.722656 277.078125 74.066406 C 276.734375 74.410156 276.359375 74.71875 275.953125 74.992188 C 275.546875 75.261719 275.117188 75.488281 274.664062 75.675781 C 274.214844 75.863281 273.746094 76.003906 273.269531 76.097656 C 272.789062 76.195312 272.304688 76.242188 271.816406 76.242188 C 271.328125 76.242188 270.84375 76.195312 270.363281 76.097656 C 269.886719 76.003906 269.417969 75.863281 268.96875 75.675781 C 268.515625 75.488281 268.089844 75.261719 267.679688 74.992188 C 267.273438 74.71875 266.898438 74.410156 266.554688 74.066406 C 266.207031 73.722656 265.898438 73.347656 265.628906 72.941406 C 265.355469 72.535156 265.128906 72.109375 264.941406 71.65625 C 264.753906 71.207031 264.613281 70.742188 264.515625 70.265625 C 264.421875 69.785156 264.375 69.304688 264.375 68.816406 C 264.375 68.328125 264.421875 67.84375 264.515625 67.367188 C 264.613281 66.890625 264.753906 66.425781 264.941406 65.972656 C 265.128906 65.523438 265.355469 65.097656 265.628906 64.691406 C 265.898438 64.285156 266.207031 63.910156 266.554688 63.566406 C 266.898438 63.21875 267.273438 62.914062 267.679688 62.640625 C 268.089844 62.371094 268.515625 62.140625 268.96875 61.957031 C 269.417969 61.769531 269.886719 61.628906 270.363281 61.53125 C 270.84375 61.4375 271.328125 61.390625 271.816406 61.390625 C 272.304688 61.390625 272.789062 61.4375 273.269531 61.53125 C 273.746094 61.628906 274.214844 61.769531 274.664062 61.957031 C 275.117188 62.140625 275.546875 62.371094 275.953125 62.640625 C 276.359375 62.914062 276.734375 63.21875 277.078125 63.566406 C 277.425781 63.910156 277.734375 64.285156 278.003906 64.691406 C 278.277344 65.097656 278.503906 65.523438 278.691406 65.972656 C 278.878906 66.425781 279.019531 66.890625 279.117188 67.367188 C 279.210938 67.84375 279.257812 68.328125 279.257812 68.816406 Z M 279.257812 68.816406 " fill-opacity="1" fill-rule="nonzero"/></g><g clip-path="url(#6abcb183d7)"><path fill="#000000" d="M 121.65625 68.816406 C 121.65625 69.304688 121.605469 69.785156 121.511719 70.265625 C 121.417969 70.742188 121.273438 71.207031 121.089844 71.65625 C 120.902344 72.109375 120.671875 72.535156 120.398438 72.941406 C 120.128906 73.347656 119.820312 73.722656 119.472656 74.066406 C 119.128906 74.410156 118.753906 74.71875 118.347656 74.992188 C 117.941406 75.261719 117.511719 75.488281 117.058594 75.675781 C 116.609375 75.863281 116.144531 76.003906 115.664062 76.097656 C 115.183594 76.195312 114.699219 76.242188 114.210938 76.242188 C 113.722656 76.242188 113.238281 76.195312 112.761719 76.097656 C 112.28125 76.003906 111.816406 75.863281 111.363281 75.675781 C 110.910156 75.488281 110.484375 75.261719 110.078125 74.992188 C 109.671875 74.71875 109.292969 74.410156 108.949219 74.066406 C 108.601562 73.722656 108.292969 73.347656 108.023438 72.941406 C 107.75 72.535156 107.523438 72.109375 107.335938 71.65625 C 107.148438 71.207031 107.007812 70.742188 106.910156 70.265625 C 106.816406 69.785156 106.769531 69.304688 106.769531 68.816406 C 106.769531 68.328125 106.816406 67.84375 106.910156 67.367188 C 107.007812 66.890625 107.148438 66.425781 107.335938 65.972656 C 107.523438 65.523438 107.75 65.097656 108.023438 64.691406 C 108.292969 64.285156 108.601562 63.910156 108.949219 63.566406 C 109.292969 63.21875 109.671875 62.914062 110.078125 62.640625 C 110.484375 62.371094 110.910156 62.140625 111.363281 61.957031 C 111.816406 61.769531 112.28125 61.628906 112.761719 61.53125 C 113.238281 61.4375 113.722656 61.390625 114.210938 61.390625 C 114.699219 61.390625 115.183594 61.4375 115.664062 61.53125 C 116.144531 61.628906 116.609375 61.769531 117.058594 61.957031 C 117.511719 62.140625 117.941406 62.371094 118.347656 62.640625 C 118.753906 62.914062 119.128906 63.21875 119.472656 63.566406 C 119.820312 63.910156 120.128906 64.285156 120.398438 64.691406 C 120.671875 65.097656 120.902344 65.523438 121.089844 65.972656 C 121.273438 66.425781 121.417969 66.890625 121.511719 67.367188 C 121.605469 67.84375 121.65625 68.328125 121.65625 68.816406 Z M 121.65625 68.816406 " fill-opacity="1" fill-rule="nonzero"/></g><path fill="#000000" d="M 233.472656 79.789062 C 233.472656 80.171875 233.4375 80.550781 233.359375 80.929688 C 233.285156 81.304688 233.175781 81.667969 233.027344 82.023438 C 232.882812 82.378906 232.699219 82.714844 232.488281 83.03125 C 232.273438 83.351562 232.03125 83.644531 231.761719 83.917969 C 231.488281 84.1875 231.191406 84.429688 230.875 84.644531 C 230.554688 84.855469 230.21875 85.035156 229.863281 85.183594 C 229.507812 85.328125 229.140625 85.441406 228.765625 85.515625 C 228.386719 85.589844 228.007812 85.628906 227.625 85.628906 C 227.238281 85.628906 226.859375 85.589844 226.480469 85.515625 C 226.105469 85.441406 225.738281 85.328125 225.382812 85.183594 C 225.03125 85.035156 224.691406 84.855469 224.371094 84.644531 C 224.054688 84.429688 223.757812 84.1875 223.484375 83.917969 C 223.214844 83.644531 222.972656 83.351562 222.757812 83.03125 C 222.546875 82.714844 222.363281 82.378906 222.21875 82.023438 C 222.070312 81.667969 221.960938 81.304688 221.886719 80.929688 C 221.808594 80.550781 221.773438 80.171875 221.773438 79.789062 C 221.773438 79.40625 221.808594 79.027344 221.886719 78.652344 C 221.960938 78.273438 222.070312 77.910156 222.21875 77.554688 C 222.363281 77.203125 222.546875 76.867188 222.757812 76.546875 C 222.972656 76.226562 223.214844 75.933594 223.484375 75.664062 C 223.757812 75.390625 224.054688 75.148438 224.371094 74.9375 C 224.691406 74.722656 225.03125 74.542969 225.382812 74.398438 C 225.738281 74.25 226.105469 74.140625 226.480469 74.066406 C 226.859375 73.988281 227.238281 73.953125 227.625 73.953125 C 228.007812 73.953125 228.386719 73.988281 228.765625 74.066406 C 229.140625 74.140625 229.507812 74.25 229.863281 74.398438 C 230.21875 74.542969 230.554688 74.722656 230.875 74.9375 C 231.191406 75.148438 231.488281 75.390625 231.761719 75.664062 C 232.03125 75.933594 232.273438 76.226562 232.488281 76.546875 C 232.699219 76.867188 232.882812 77.203125 233.027344 77.554688 C 233.175781 77.910156 233.285156 78.273438 233.359375 78.652344 C 233.4375 79.027344 233.472656 79.40625 233.472656 79.789062 Z M 233.472656 79.789062 " fill-opacity="1" fill-rule="nonzero"/><path fill="#000000" d="M 164.140625 78.746094 C 164.140625 79.128906 164.101562 79.511719 164.027344 79.886719 C 163.953125 80.261719 163.839844 80.628906 163.695312 80.980469 C 163.546875 81.335938 163.367188 81.671875 163.152344 81.992188 C 162.941406 82.308594 162.699219 82.605469 162.425781 82.875 C 162.152344 83.144531 161.859375 83.386719 161.539062 83.601562 C 161.21875 83.8125 160.882812 83.992188 160.527344 84.140625 C 160.171875 84.285156 159.808594 84.398438 159.429688 84.472656 C 159.054688 84.546875 158.671875 84.585938 158.289062 84.585938 C 157.90625 84.585938 157.523438 84.546875 157.148438 84.472656 C 156.769531 84.398438 156.40625 84.285156 156.050781 84.140625 C 155.695312 83.992188 155.359375 83.8125 155.039062 83.601562 C 154.71875 83.386719 154.421875 83.144531 154.152344 82.875 C 153.878906 82.605469 153.636719 82.308594 153.425781 81.992188 C 153.210938 81.671875 153.03125 81.335938 152.882812 80.980469 C 152.738281 80.628906 152.625 80.261719 152.550781 79.886719 C 152.476562 79.511719 152.4375 79.128906 152.4375 78.746094 C 152.4375 78.363281 152.476562 77.984375 152.550781 77.609375 C 152.625 77.234375 152.738281 76.867188 152.882812 76.511719 C 153.03125 76.160156 153.210938 75.824219 153.425781 75.503906 C 153.636719 75.1875 153.878906 74.890625 154.152344 74.621094 C 154.421875 74.347656 154.71875 74.105469 155.039062 73.894531 C 155.359375 73.679688 155.695312 73.5 156.050781 73.355469 C 156.40625 73.207031 156.769531 73.097656 157.148438 73.023438 C 157.523438 72.949219 157.90625 72.910156 158.289062 72.910156 C 158.671875 72.910156 159.054688 72.949219 159.429688 73.023438 C 159.808594 73.097656 160.171875 73.207031 160.527344 73.355469 C 160.882812 73.5 161.21875 73.679688 161.539062 73.894531 C 161.859375 74.105469 162.152344 74.347656 162.425781 74.621094 C 162.699219 74.890625 162.941406 75.1875 163.152344 75.503906 C 163.367188 75.824219 163.546875 76.160156 163.695312 76.511719 C 163.839844 76.867188 163.953125 77.234375 164.027344 77.609375 C 164.101562 77.984375 164.140625 78.363281 164.140625 78.746094 Z M 164.140625 78.746094 " fill-opacity="1" fill-rule="nonzero"/><g clip-path="url(#b58a8e4481)"><path fill="#000000" d="M 268.21875 81.230469 L 267.007812 82.851562 L 242.273438 116 C 239.226562 120.082031 234.96875 122.929688 230.253906 124.269531 L 227.625 89.058594 C 227.550781 88.097656 226.398438 87.875 226.050781 88.753906 L 212.777344 122.121094 C 208.550781 119.316406 205.570312 114.835938 204.75 109.632812 L 194.917969 47.285156 L 194.957031 47.050781 L 193.089844 35.6875 L 181.429688 109.632812 C 180.609375 114.835938 177.632812 119.316406 173.40625 122.121094 L 160.132812 88.753906 C 159.78125 87.875 158.628906 88.097656 158.558594 89.058594 L 155.917969 124.390625 C 151.25 123.039062 147.039062 120.203125 144.015625 116.152344 L 119.28125 83.003906 L 118.070312 81.382812 C 117.378906 80.453125 115.910156 81.175781 116.222656 82.289062 L 133.808594 144.621094 L 135.53125 150.738281 L 135.59375 150.953125 C 135.640625 151.128906 135.699219 151.296875 135.761719 151.460938 C 135.78125 151.511719 135.804688 151.558594 135.824219 151.605469 C 135.875 151.71875 135.921875 151.832031 135.976562 151.941406 C 136.003906 152 136.035156 152.054688 136.066406 152.105469 C 136.117188 152.207031 136.171875 152.300781 136.230469 152.398438 C 136.265625 152.453125 136.300781 152.507812 136.339844 152.5625 C 136.398438 152.648438 136.460938 152.734375 136.523438 152.820312 C 136.5625 152.875 136.605469 152.925781 136.648438 152.976562 C 136.714844 153.058594 136.78125 153.136719 136.855469 153.214844 C 136.898438 153.261719 136.941406 153.3125 136.988281 153.359375 C 137.0625 153.433594 137.140625 153.507812 137.21875 153.578125 C 137.265625 153.621094 137.308594 153.664062 137.355469 153.703125 C 137.449219 153.78125 137.542969 153.851562 137.636719 153.925781 C 137.675781 153.953125 137.714844 153.984375 137.753906 154.011719 C 137.890625 154.109375 138.027344 154.199219 138.171875 154.28125 C 138.210938 154.304688 138.253906 154.324219 138.296875 154.347656 C 138.402344 154.40625 138.503906 154.460938 138.613281 154.511719 C 138.675781 154.542969 138.742188 154.566406 138.808594 154.59375 C 138.894531 154.632812 138.984375 154.667969 139.074219 154.703125 C 139.148438 154.730469 139.222656 154.75 139.296875 154.777344 C 139.378906 154.800781 139.464844 154.828125 139.550781 154.851562 C 139.628906 154.871094 139.710938 154.890625 139.792969 154.910156 C 139.871094 154.925781 139.957031 154.945312 140.039062 154.957031 C 140.125 154.972656 140.210938 154.988281 140.296875 154.996094 C 140.375 155.007812 140.453125 155.015625 140.535156 155.019531 C 140.625 155.027344 140.714844 155.035156 140.808594 155.039062 C 140.878906 155.042969 140.953125 154.933594 141.023438 154.933594 C 141.125 154.933594 141.226562 154.820312 141.328125 154.820312 C 141.335938 154.820312 141.339844 154.820312 141.34375 154.820312 C 141.402344 154.820312 141.460938 154.914062 141.519531 154.910156 C 141.625 154.898438 141.730469 154.945312 141.835938 154.929688 C 142.011719 154.902344 142.191406 154.894531 142.367188 154.851562 C 152.527344 152.316406 175.355469 147.175781 193.089844 147.175781 C 210.824219 147.175781 233.652344 152.335938 243.8125 154.871094 C 243.988281 154.914062 244.167969 154.953125 244.34375 154.976562 C 244.449219 154.996094 244.554688 154.898438 244.660156 154.90625 C 244.71875 154.914062 244.777344 154.820312 244.835938 154.820312 C 244.839844 154.820312 244.84375 154.820312 244.851562 154.820312 C 244.953125 154.820312 245.054688 154.933594 245.15625 154.933594 C 245.226562 154.933594 245.300781 154.988281 245.371094 154.984375 C 245.464844 154.984375 245.554688 155 245.648438 154.992188 C 245.726562 154.988281 245.804688 154.992188 245.882812 154.984375 C 245.972656 154.972656 246.054688 154.964844 246.140625 154.949219 C 246.222656 154.9375 246.308594 154.921875 246.390625 154.90625 C 246.46875 154.886719 246.550781 154.871094 246.628906 154.847656 C 246.714844 154.828125 246.800781 154.800781 246.882812 154.773438 C 246.957031 154.75 247.03125 154.726562 247.105469 154.703125 C 247.195312 154.667969 247.285156 154.632812 247.371094 154.59375 C 247.4375 154.566406 247.503906 154.539062 247.566406 154.511719 C 247.671875 154.460938 247.777344 154.402344 247.882812 154.347656 C 247.925781 154.324219 247.96875 154.304688 248.007812 154.28125 C 248.152344 154.199219 248.289062 154.109375 248.425781 154.011719 C 248.464844 153.984375 248.5 153.953125 248.539062 153.925781 C 248.636719 153.851562 248.730469 153.78125 248.824219 153.703125 C 248.871094 153.664062 248.914062 153.621094 248.960938 153.578125 C 249.039062 153.507812 249.117188 153.433594 249.191406 153.355469 C 249.238281 153.3125 249.28125 153.261719 249.324219 153.214844 C 249.398438 153.136719 249.464844 153.058594 249.53125 152.976562 C 249.574219 152.925781 249.617188 152.875 249.65625 152.820312 C 249.71875 152.734375 249.78125 152.648438 249.839844 152.558594 C 249.878906 152.503906 249.914062 152.453125 249.949219 152.394531 C 250.007812 152.300781 250.0625 152.207031 250.113281 152.105469 C 250.144531 152.050781 250.175781 152 250.203125 151.941406 C 250.257812 151.832031 250.304688 151.71875 250.355469 151.605469 C 250.375 151.558594 250.398438 151.511719 250.417969 151.460938 C 250.480469 151.296875 250.539062 151.128906 250.585938 150.953125 L 250.648438 150.738281 L 252.371094 144.621094 L 269.664062 83.320312 L 269.667969 83.304688 L 269.773438 83.167969 L 270.0625 82.132812 C 270.378906 81.019531 268.910156 80.296875 268.21875 81.230469 Z M 268.21875 81.230469 " fill-opacity="1" fill-rule="nonzero"/></g><g clip-path="url(#1bd29f1ad1)"><path fill="#ffffff" d="M 68.164062 251.164062 L 163.164062 251.164062 L 163.164062 255.207031 L 68.164062 255.207031 Z M 68.164062 251.164062 " fill-opacity="1" fill-rule="nonzero"/></g><g clip-path="url(#4349cc3de5)"><path fill="#ffffff" d="M 75.0625 232.339844 L 170.058594 232.339844 L 170.058594 236.382812 L 75.0625 236.382812 Z M 75.0625 232.339844 " fill-opacity="1" fill-rule="nonzero"/></g><path stroke-linecap="butt" transform="matrix(0.752437, 0, 0, 0.75, 194.24422, 266.738771)" fill="none" stroke-linejoin="miter" d="M 0.00249058 18.499348 L 81.74206 18.499348 " stroke="#000000" stroke-width="37" stroke-opacity="1" stroke-miterlimit="4"/><path stroke-linecap="butt" transform="matrix(0.752437, 0, 0, 0.75, 194.24422, 266.738771)" fill="none" stroke-linejoin="miter" d="M 0.00249058 18.499348 L 81.74206 18.499348 " stroke="#000000" stroke-width="37" stroke-opacity="1" stroke-miterlimit="4"/><path stroke-linecap="butt" transform="matrix(0.750896, 0, 0, 0.75, 157.410198, 127.544874)" fill="none" stroke-linejoin="miter" d="M -0.0000558179 18.497461 L 130.854111 18.497461 " stroke="#000000" stroke-width="37" stroke-opacity="1" stroke-miterlimit="4"/></svg>