<svg width="48" height="57" viewBox="0 0 48 57" fill="none" xmlns="http://www.w3.org/2000/svg">
<path d="M45.7201 12.2589L26.2913 0.60635C25.5934 0.208496 24.804 -0.000732422 24.0007 -0.000732422C23.1974 -0.000732422 22.4079 0.208496 21.7101 0.60635L2.28006 12.2576C1.57986 12.6867 1.00216 13.2891 0.602762 14.0067C0.203367 14.7242 -0.00421676 15.5326 6.49181e-05 16.3538V39.6251C-0.00413589 40.4468 0.203451 41.2557 0.602807 41.9739C1.00216 42.692 1.57982 43.2951 2.28006 43.7251L7.37506 46.7676L7.40382 46.7838C9.97632 48.1001 10.9613 48.1001 12.1026 48.1001C16.1201 48.1001 18.6163 45.5001 18.6163 41.3139V18.7501C18.6186 18.4684 18.5091 18.1973 18.3118 17.9962C18.1145 17.7952 17.8455 17.6806 17.5638 17.6776H14.7663C14.4846 17.6806 14.2156 17.7952 14.0183 17.9962C13.821 18.1973 13.7115 18.4684 13.7138 18.7501V41.3139C13.724 41.6369 13.6505 41.957 13.5005 42.2433C13.3505 42.5295 13.129 42.7722 12.8576 42.9476C12.1201 43.3976 11.0488 43.3026 9.84007 42.6788L4.95757 39.7401C4.93887 39.7273 4.92362 39.7102 4.91315 39.6901C4.90269 39.6701 4.89733 39.6477 4.89756 39.6251V16.6826C4.89837 16.6562 4.90548 16.6304 4.91832 16.6074C4.93115 16.5843 4.94932 16.5647 4.97131 16.5501L23.9513 4.9251C23.9655 4.91805 23.9811 4.91439 23.9969 4.91439C24.0128 4.91439 24.0284 4.91805 24.0426 4.9251L43.0338 16.5501C43.0554 16.5659 43.0729 16.5866 43.0849 16.6105C43.0969 16.6344 43.1029 16.6609 43.1026 16.6876V39.6251C43.103 39.6488 43.0982 39.6723 43.0885 39.6939C43.0788 39.7155 43.0644 39.7347 43.0463 39.7501L24.0388 51.0813C24.0064 51.0926 23.9712 51.0926 23.9388 51.0813L19.0851 48.1988C18.941 48.1047 18.7745 48.0503 18.6026 48.0413C18.4307 48.0323 18.2595 48.069 18.1063 48.1476L18.0638 48.1726C16.7238 48.9664 16.3638 49.1726 15.1213 49.6251C14.9188 49.6988 14.4426 49.8751 14.4013 50.3463C14.3601 50.8176 14.8126 51.1526 15.2151 51.3863L21.7026 55.3701C22.3938 55.7842 23.1843 56.0032 23.9901 56.0038H24.0626C24.8482 55.9915 25.6168 55.773 26.2913 55.3701L45.7201 43.7288C46.4199 43.2976 46.9972 42.6936 47.3965 41.975C47.7957 41.2564 48.0036 40.4472 48.0001 39.6251V16.3538C48.004 15.5329 47.7963 14.7247 47.3969 14.0075C46.9975 13.2902 46.42 12.6879 45.7201 12.2589Z" fill="#CECECE"/>
</svg>