<svg width="61" height="54" viewBox="0 0 61 54" fill="none" xmlns="http://www.w3.org/2000/svg">
<path d="M49.3325 17.5899C48.6933 17.3716 48.0496 17.1682 47.4012 16.9799C47.5087 16.5424 47.6079 16.1024 47.6987 15.6599C49.1613 8.5474 48.205 2.8174 44.9412 0.93115C41.8162 -0.87885 36.6913 1.0074 31.5213 5.5174C31.0129 5.9624 30.515 6.42073 30.0275 6.8924C29.7025 6.57907 29.3692 6.2724 29.0275 5.9724C23.6087 1.1499 18.1775 -0.88135 14.9175 1.01115C11.7925 2.8249 10.8638 8.21115 12.18 14.9524C12.3117 15.6191 12.4596 16.2828 12.6237 16.9436C11.8767 17.1554 11.136 17.3889 10.4025 17.6436C4.0575 19.8624 0 23.3411 0 26.9486C0 30.6761 4.355 34.4137 10.9712 36.6799C11.5079 36.8624 12.0496 37.032 12.5962 37.1887C12.4187 37.8962 12.2617 38.6116 12.125 39.3349C10.875 45.9599 11.85 51.2187 14.9688 53.0212C18.19 54.8824 23.5938 52.9699 28.8612 48.3574C29.2779 47.9924 29.6946 47.607 30.1113 47.2011C30.6379 47.7103 31.1796 48.2045 31.7363 48.6837C36.8363 53.0812 41.8725 54.8574 44.9863 53.0499C48.205 51.1824 49.2513 45.5324 47.8925 38.6586C47.7883 38.1336 47.6683 37.5978 47.5325 37.0512C47.9125 36.9387 48.2846 36.8224 48.6488 36.7024C55.5238 34.4187 60.0025 30.7261 60.0025 26.9524C60 23.3274 55.8125 19.8261 49.3325 17.5899ZM33.2075 7.4549C37.6362 3.59115 41.7762 2.06615 43.6637 3.15615C45.6725 4.3174 46.4538 8.9999 45.1912 15.1412C45.1079 15.5412 45.0179 15.9399 44.9212 16.3374C42.2783 15.7362 39.5982 15.312 36.8988 15.0674C35.3532 12.841 33.6589 10.7216 31.8275 8.72365C32.2758 8.28865 32.735 7.86573 33.205 7.4549H33.2075ZM17.7162 30.0311C18.2587 31.0811 18.8258 32.1182 19.4175 33.1424C20.02 34.1874 20.6479 35.217 21.3013 36.2312C19.4438 36.0292 17.5981 35.7317 15.7712 35.3399C16.3013 33.6249 16.9537 31.8436 17.7162 30.0311ZM17.7162 23.9899C16.9662 22.2161 16.3312 20.4711 15.81 18.7861C17.5225 18.4024 19.3475 18.0886 21.25 17.8511C20.6125 18.8461 19.9992 19.8557 19.41 20.8799C18.8208 21.9041 18.255 22.9407 17.7125 23.9899H17.7162ZM19.0788 27.0111C19.8688 25.3636 20.7196 23.7478 21.6313 22.1636C22.5421 20.5803 23.5117 19.0332 24.54 17.5224C26.325 17.3874 28.155 17.3161 30.0037 17.3161C31.8525 17.3161 33.6938 17.3874 35.4775 17.5236C36.495 19.0311 37.4588 20.5728 38.3688 22.1486C39.2788 23.7245 40.1408 25.3328 40.955 26.9736C40.1517 28.627 39.2917 30.2495 38.375 31.8412C37.4658 33.4245 36.5075 34.9762 35.5 36.4962C33.7188 36.6212 31.875 36.6899 30 36.6899C28.125 36.6899 26.3162 36.6312 24.5675 36.5174C23.5317 35.0016 22.5542 33.4478 21.635 31.8561C20.7158 30.2645 19.8625 28.6495 19.075 27.0111H19.0788ZM40.5938 33.1249C41.1979 32.0766 41.7779 31.0145 42.3338 29.9387C43.0957 31.6663 43.7682 33.4319 44.3488 35.2286C42.5005 35.6448 40.6317 35.964 38.75 36.1849C39.385 35.1774 39.9996 34.1574 40.5938 33.1249ZM42.3088 23.9911C41.7554 22.937 41.18 21.8953 40.5825 20.8661C39.9992 19.8511 39.3913 18.8486 38.7588 17.8586C40.6725 18.1011 42.5088 18.4236 44.23 18.8174C43.6766 20.5731 43.0354 22.2998 42.3088 23.9911ZM30.0288 10.5599C31.2769 11.9238 32.4555 13.3498 33.56 14.8324C31.1975 14.7199 28.8333 14.7199 26.4675 14.8324C27.6338 13.2899 28.8275 11.8587 30.0288 10.5599ZM16.2075 3.2324C18.215 2.0674 22.6538 3.7324 27.3325 7.89115C27.6313 8.1574 27.9325 8.43615 28.2325 8.7249C26.3917 10.7225 24.6855 12.8401 23.125 15.0636C20.4316 15.3063 17.7568 15.7239 15.1175 16.3136C14.965 15.7003 14.8275 15.0828 14.705 14.4612C13.5737 8.6824 14.3225 4.32615 16.2075 3.2324ZM13.2812 34.7136C12.7812 34.5711 12.2875 34.4166 11.8 34.2499C8.875 33.2499 6.45875 31.9449 4.8 30.5236C3.315 29.2499 2.5625 27.9786 2.5625 26.9486C2.5625 24.7599 5.82 21.9674 11.2525 20.0736C11.935 19.8361 12.6233 19.6191 13.3175 19.4224C14.1243 22.0153 15.1014 24.552 16.2425 27.0161C15.0878 29.5143 14.0986 32.0857 13.2812 34.7136ZM27.1725 46.4224C24.8438 48.4624 22.5112 49.9087 20.455 50.6374C18.6075 51.2912 17.1362 51.3099 16.2475 50.7962C14.355 49.7024 13.5675 45.4787 14.6413 39.8137C14.7688 39.147 14.9146 38.4803 15.0788 37.8137C17.7444 38.3879 20.4461 38.78 23.165 38.9874C24.7407 41.2225 26.461 43.3521 28.315 45.3624C27.9425 45.7286 27.5613 46.0812 27.1725 46.4224ZM30.1 43.5199C28.885 42.2062 27.6725 40.7524 26.49 39.1899C27.6392 39.2349 28.8092 39.2574 30 39.2574C31.2225 39.2574 32.4325 39.2312 33.625 39.1774C32.5245 40.6838 31.348 42.1332 30.1 43.5199ZM45.665 47.0937C45.3075 49.0237 44.5887 50.3111 43.7 50.8261C41.8088 51.9236 37.765 50.4974 33.405 46.7362C32.905 46.3062 32.405 45.8449 31.8963 45.3612C33.7141 43.343 35.3941 41.2048 36.925 38.9612C39.659 38.7295 42.3737 38.3098 45.05 37.7049C45.1725 38.1999 45.2808 38.6849 45.375 39.1599C45.9762 42.1974 46.0625 44.9449 45.665 47.0937ZM47.84 34.2636C47.5125 34.3724 47.175 34.4774 46.8325 34.5799C45.9933 31.9748 44.9781 29.4298 43.7938 26.9624C44.9336 24.5279 45.9092 22.0198 46.7137 19.4549C47.3275 19.6336 47.9238 19.8211 48.4975 20.0199C54.05 21.9349 57.4375 24.7699 57.4375 26.9486C57.4375 29.2736 53.7788 32.2911 47.84 34.2636Z" fill="#CECECE"/>
</svg>