<svg xmlns="http://www.w3.org/2000/svg" xmlns:xlink="http://www.w3.org/1999/xlink" viewBox="0,0,256,256" width="50px" height="50px" fill-rule="nonzero"><g fill="#ffffff" fill-rule="nonzero" stroke="none" stroke-width="1" stroke-linecap="butt" stroke-linejoin="miter" stroke-miterlimit="10" stroke-dasharray="" stroke-dashoffset="0" font-family="none" font-weight="none" font-size="none" text-anchor="none" style="mix-blend-mode: normal"><g transform="scale(5.12,5.12)"><path d="M32.5,2c-8.36764,0 -15.21376,6.66281 -15.5,14.96484c-0.01344,0.38059 0.19044,0.73578 0.52585,0.91614c0.33541,0.18035 0.74415,0.15456 1.05423,-0.06653c1.42611,-1.01564 2.89042,-1.64174 4.64453,-1.7832c-0.14261,0.63465 -0.22461,1.29198 -0.22461,1.96875c0,1.3404 0.30315,2.60928 0.83203,3.75391l-1.83203,1.83203l-0.29297,-0.29297c-0.25082,-0.26124 -0.62327,-0.36648 -0.97371,-0.27512c-0.35044,0.09136 -0.62411,0.36503 -0.71547,0.71547c-0.09136,0.35044 0.01388,0.72289 0.27512,0.97371l0.29297,0.29297l-13.58594,13.58594l-0.29297,-0.29297c-0.25082,-0.26124 -0.62327,-0.36647 -0.97371,-0.27511c-0.35044,0.09136 -0.62411,0.36503 -0.71547,0.71547c-0.09136,0.35044 0.01388,0.72289 0.27511,0.97371l0.36523,0.36523c-0.53303,0.23189 -1.06758,0.40198 -1.64062,0.97461c0,0.00065 0,0.0013 0,0.00195c-0.45596,0.45638 -0.67527,0.98248 -0.9043,1.57617c-0.22902,0.59369 -0.42317,1.24761 -0.58398,1.86523c-0.32163,1.23525 -0.51367,2.33594 -0.51367,2.33594c-0.05649,0.32121 0.04719,0.64978 0.27781,0.8804c0.23061,0.23061 0.55919,0.33429 0.8804,0.27781c0,0 1.10085,-0.19218 2.33594,-0.51367c0.61754,-0.16075 1.2717,-0.35316 1.86523,-0.58203c0.59353,-0.22887 1.11978,-0.44837 1.57617,-0.9043c0,-0.00065 0,-0.0013 0,-0.00195c0.55095,-0.55095 0.73289,-1.11039 0.96094,-1.65625l0.38086,0.38086c0.25082,0.26124 0.62327,0.36648 0.97371,0.27512c0.35044,-0.09136 0.62411,-0.36503 0.71547,-0.71547c0.09136,-0.35044 -0.01388,-0.72289 -0.27512,-0.97371l-0.29297,-0.29297l13.58594,-13.58594l0.29297,0.29297c0.25082,0.26124 0.62327,0.36648 0.97371,0.27512c0.35044,-0.09136 0.62411,-0.36503 0.71547,-0.71547c0.09136,-0.35044 -0.01388,-0.72289 -0.27512,-0.97371l-0.29297,-0.29297l1.83203,-1.83203c1.14463,0.52888 2.4135,0.83203 3.75391,0.83203c0.67677,0 1.3341,-0.08199 1.96875,-0.22461c-0.14146,1.75411 -0.76756,3.21842 -1.7832,4.64453c-0.22109,0.31008 -0.24688,0.71881 -0.06653,1.05423c0.18035,0.33541 0.53555,0.53929 0.91614,0.52585c8.30204,-0.28624 14.96484,-7.13236 14.96484,-15.5c0,-0.5466 -0.02988,-1.0754 -0.08398,-1.60156c-0.05315,-0.52291 -0.50201,-0.91545 -1.02734,-0.89844c-0.32608,0.01074 -0.62643,0.17987 -0.80469,0.45313c0,0 -2.37447,3.39991 -5.40039,4.86914c0.19917,-0.74246 0.31641,-1.51825 0.31641,-2.32227c0,-4.95872 -4.04128,-9 -9,-9c-0.80401,0 -1.57981,0.11723 -2.32227,0.31641c1.4688,-3.02586 4.86914,-5.40039 4.86914,-5.40039c0.35285,-0.23202 0.52193,-0.66067 0.4225,-1.0711c-0.09943,-0.41043 -0.44594,-0.71417 -0.86586,-0.75898c-0.52918,-0.05514 -1.05506,-0.08594 -1.60352,-0.08594zM31.15039,4.13281c-1.57567,1.39379 -3.23573,3.36268 -3.86914,6.20508c-0.01539,0.01321 -0.03037,0.02689 -0.04492,0.04101c-1.15645,0.72594 -2.13398,1.70451 -2.85937,2.86133c-0.09757,0.10293 -0.17214,0.22543 -0.21875,0.35938c-0.07442,0.13197 -0.14114,0.26833 -0.20898,0.4043c-1.75647,0.01014 -3.28039,0.52508 -4.70898,1.22852c1.01308,-5.92964 5.84938,-10.4909 11.91016,-11.09961zM32,11c3.87784,0 7,3.12216 7,7c0,0.82557 -0.14997,1.61342 -0.41016,2.34766l-1.63477,-1.63672c-0.01479,-0.01479 -0.0199,-0.02643 -0.02148,-0.02734c0.21201,-1.49021 -0.24933,-3.06964 -1.39844,-4.21875c-1.14761,-1.14761 -2.72788,-1.61168 -4.21875,-1.40039c-0.00044,-0.00102 -0.01204,-0.00421 -0.02734,-0.01953l-1.63477,-1.63477c0.73375,-0.25979 1.52078,-0.41016 2.3457,-0.41016zM27.82422,12.4082l2.04883,2.05078c0.41537,0.41537 1.02544,0.68998 1.70313,0.58789c0.90834,-0.13569 1.84602,0.13313 2.54492,0.83203c0.69989,0.69989 0.96576,1.63736 0.83008,2.54492l0.00195,-0.00195c-0.10252,0.67841 0.16951,1.2867 0.58594,1.70313l2.05078,2.05078c-0.40235,0.53797 -0.88036,1.00765 -1.41797,1.41016l-2.04492,-2.04492c-0.41537,-0.41537 -1.02544,-0.68998 -1.70312,-0.58789c-0.90895,0.13578 -1.84477,-0.13188 -2.54492,-0.83203c-0.69989,-0.69989 -0.96576,-1.63736 -0.83008,-2.54492l-0.00195,0.00195c0.10261,-0.67847 -0.16951,-1.2867 -0.58594,-1.70312l-2.04492,-2.04492c0.40241,-0.5381 0.87027,-1.01903 1.4082,-1.42187zM25.41016,15.65234l1.63477,1.63672c0.01479,0.01479 0.0199,0.02643 0.02148,0.02734c-0.21201,1.49021 0.24933,3.06964 1.39844,4.21875c1.14836,1.14836 2.72849,1.6116 4.21875,1.40039c0.00044,0.00102 0.01204,0.00421 0.02734,0.01953l1.63672,1.63477c-0.73424,0.26018 -1.52208,0.41016 -2.34766,0.41016c-3.87784,0 -7,-3.12216 -7,-7c0,-0.82557 0.14997,-1.61342 0.41016,-2.34766zM32,17c-0.55228,0 -1,0.44772 -1,1c0,0.55228 0.44772,1 1,1c0.55228,0 1,-0.44772 1,-1c0,-0.55228 -0.44772,-1 -1,-1zM45.86719,18.84961c-0.60871,6.06078 -5.16997,10.89707 -11.09961,11.91016c0.70344,-1.4286 1.21838,-2.95251 1.22852,-4.70898c0.12233,-0.06104 0.24613,-0.11918 0.36523,-0.18555c0.16822,-0.04959 0.32045,-0.14254 0.44141,-0.26953c1.13099,-0.7181 2.08916,-1.67778 2.80469,-2.81055c0.02188,-0.02181 0.04273,-0.04462 0.0625,-0.06836c2.83967,-0.63442 4.80408,-2.29264 6.19727,-3.86719zM24.90234,23.51172c0.46145,0.59271 0.99322,1.12448 1.58594,1.58594l-1.48828,1.48828l-1.58594,-1.58594zM22,26.41406l1.58594,1.58594l-13.58594,13.58594l-1.58594,-1.58594zM7.12695,41.54102h0.00195l1.30859,1.30859v0.00195c-0.04332,0.35876 -0.17597,0.99238 -0.90039,1.7168c-0.02961,0.02958 -0.40197,0.26771 -0.88281,0.45313c-0.48084,0.18541 -1.07648,0.36479 -1.64844,0.51367c-0.36382,0.0947 -0.38133,0.08305 -0.69336,0.15234c0.06931,-0.31204 0.0576,-0.32951 0.15234,-0.69336c0.14894,-0.572 0.32813,-1.16747 0.51367,-1.64844c0.18521,-0.48013 0.42241,-0.8516 0.45313,-0.88281c0.56599,-0.56558 1.08875,-0.78888 1.46289,-0.88867c0.16988,-0.04531 0.15096,-0.02518 0.23242,-0.0332z"></path></g></g></svg>