<svg width="64" height="49" viewBox="0 0 64 49" fill="none" xmlns="http://www.w3.org/2000/svg">
<path d="M30.1837 36.2921C30.1537 36.3521 30.1237 36.4001 30.1837 36.2921V36.2921ZM55.0957 27.5921C53.0837 27.5921 51.0997 28.0521 49.2957 28.9421C48.7057 27.7521 48.0957 26.7121 47.9957 25.9321C47.8757 25.0221 47.7457 24.4821 47.8857 23.4021C48.0257 22.3221 48.6557 20.7921 48.6457 20.6821C48.6357 20.5721 48.5057 20.0221 47.2157 20.0121C45.9257 20.0021 44.8157 20.2621 44.6857 20.6021C44.4574 21.2233 44.2802 21.8621 44.1557 22.5121C43.9257 23.6821 41.5777 27.8621 40.2477 30.0421C39.8077 29.1921 39.4377 28.4421 39.3577 27.8421C39.2377 26.9321 39.1077 26.3921 39.2477 25.3121C39.3877 24.2321 40.0177 22.7021 40.0077 22.5921C39.9977 22.4821 39.8677 21.9321 38.5797 21.9221C37.2917 21.9121 36.1797 22.1721 36.0497 22.5121C35.9197 22.8521 35.7797 23.6521 35.5197 24.4221C35.2597 25.1921 32.1297 32.1521 31.3117 33.9621C30.8917 34.8821 30.5317 35.6221 30.2717 36.1221C30.2317 36.2021 30.2017 36.2521 30.1817 36.2921C30.2117 36.2421 30.2317 36.1921 30.2317 36.2121C30.0117 36.6421 29.8817 36.8821 29.8817 36.8821V36.8921C29.7117 37.2121 29.5217 37.5021 29.4317 37.5021C29.3717 37.5021 29.2417 36.6621 29.4617 35.5121C29.9317 33.0921 31.0417 29.3321 31.0317 29.2021C31.0217 29.1321 31.2417 28.4821 30.3017 28.1321C29.3917 27.8021 29.0617 28.3521 28.9817 28.3521C28.9017 28.3521 28.8417 28.5521 28.8417 28.5521C28.8417 28.5521 29.8517 24.3121 26.9017 24.3121C25.0617 24.3121 22.5017 26.3321 21.2437 28.1621C20.4537 28.5921 18.7437 29.5221 16.9437 30.5121L14.8737 31.6521C14.8237 31.6021 14.7837 31.5521 14.7337 31.5021C11.1537 27.6821 4.54571 24.9821 4.82571 19.8521C4.92571 17.9821 5.57571 13.0721 17.5337 7.11206C27.3337 2.23206 35.1677 3.57206 36.5177 6.55206C38.4577 10.8021 32.3277 18.7121 22.1517 19.8521C18.2717 20.2821 16.2337 18.7821 15.7237 18.2221C15.1937 17.6321 15.1137 17.6021 14.9137 17.7121C14.5837 17.8921 14.7937 18.4121 14.9137 18.7221C15.2137 19.5121 16.4637 20.9121 18.5937 21.6121C20.4637 22.2221 25.0117 22.5621 30.5097 20.4321C36.6877 18.0521 41.4977 11.4221 40.0857 5.87206C38.6497 0.232064 29.2977 -1.61794 20.4557 1.52206C15.1857 3.39206 9.48771 6.33206 5.38971 10.1621C0.519708 14.7221 -0.258292 18.6921 0.0617079 20.3521C1.20171 26.2421 9.31971 30.0821 12.5677 32.9221L12.1177 33.1721C10.4877 33.9821 4.29971 37.2221 2.74971 40.6421C0.999708 44.5221 3.03971 47.3021 4.37771 47.6821C8.55771 48.8421 12.8357 46.7521 15.1357 43.3221C17.4357 39.8921 17.1557 35.4121 16.0957 33.3721C16.0857 33.3421 16.0657 33.3221 16.0557 33.2921C17.2556 32.5813 18.4658 31.8879 19.6857 31.2121C19.2857 32.2921 18.9957 33.5921 18.8457 35.4721C18.6657 37.6721 19.5757 40.5221 20.7557 41.6421C21.2757 42.1321 21.9037 42.1421 22.2957 42.1421C23.6757 42.1421 24.2957 41.0021 24.9857 39.6421C25.8357 37.9821 26.5857 36.0521 26.5857 36.0521C26.5857 36.0521 25.6457 41.2721 28.2157 41.2721C29.1557 41.2721 30.0957 40.0621 30.5157 39.4421V39.4521C30.5157 39.4521 30.5357 39.4121 30.5857 39.3321C30.6857 39.1821 30.7357 39.0921 30.7357 39.0921V39.0621C31.1157 38.4121 31.9457 36.9221 33.1957 34.4621C34.8157 31.2821 36.3637 27.3121 36.3637 27.3121C36.5137 28.1841 36.7217 29.0461 36.9837 29.8921C37.2637 30.8421 37.8537 31.8821 38.3237 32.8921C37.9437 33.4121 37.7137 33.7121 37.7137 33.7121C37.7137 33.7201 37.7177 33.7261 37.7237 33.7321C37.4237 34.1321 37.0837 34.5621 36.7337 34.9821C35.4557 36.5021 33.9337 38.2421 33.7337 38.7421C33.4937 39.3321 33.5537 39.7721 34.0137 40.1121C34.3537 40.3721 34.9537 40.4121 35.5837 40.3621C36.7337 40.2821 37.5437 40.0021 37.9337 39.8221C38.653 39.5643 39.3329 39.2076 39.9537 38.7621C41.2037 37.8421 41.9637 36.5221 41.8937 34.7821C41.8537 33.8221 41.5437 32.8621 41.1637 31.9621C41.2737 31.8021 41.3937 31.6321 41.5037 31.4621C42.805 29.5203 43.9776 27.4953 45.0137 25.4001C45.1637 26.2721 45.3697 27.1341 45.6337 27.9801C45.8737 28.7901 46.3437 29.6801 46.7737 30.5501C44.9137 32.0601 43.7637 33.8101 43.3657 34.9601C42.6257 37.0901 43.2057 38.0501 44.2957 38.2701C44.7857 38.3701 45.4857 38.1401 46.0057 37.9201C46.7777 37.6621 47.5057 37.2881 48.1637 36.8101C49.4137 35.8901 50.6237 34.6001 50.5417 32.8501C50.5117 32.0601 50.2917 31.2701 50.0017 30.5101C51.5717 29.8501 53.6117 29.4901 56.2117 29.7901C61.7797 30.4401 62.8697 33.9201 62.6597 35.3701C62.4497 36.8201 61.2797 37.6301 60.8897 37.8701C60.4997 38.1101 60.3797 38.2001 60.4097 38.3801C60.4597 38.6401 60.6397 38.6301 60.9697 38.5701C61.4297 38.4901 63.8897 37.3901 63.9997 34.7001C64.1597 31.3001 60.8897 27.5601 55.0997 27.5901L55.0957 27.5921ZM12.1777 42.0621C10.3377 44.0721 7.75971 44.8321 6.64971 44.1921C5.45971 43.5001 5.92971 40.5421 8.19771 38.4001C9.57771 37.1001 11.3577 35.9001 12.5377 35.1601C12.8077 35.0001 13.1977 34.7601 13.6777 34.4701C13.7167 34.4451 13.7567 34.4217 13.7977 34.4001C13.8877 34.3401 13.9877 34.2901 14.0877 34.2301C14.9157 37.2701 14.1177 39.9501 12.1777 42.0601V42.0621ZM25.6137 32.9221C24.9737 34.4921 23.6257 38.4921 22.8037 38.2821C22.1037 38.1021 21.6737 35.0521 22.6637 32.0521C23.1637 30.5421 24.2237 28.7421 24.8537 28.0421C25.8637 26.9121 26.9737 26.5521 27.2337 27.0021C27.5837 27.5921 26.0137 31.9421 25.6137 32.9221ZM36.7137 38.2221C36.4437 38.3621 36.1937 38.4521 36.0737 38.3821C35.9837 38.3321 36.1837 38.1421 36.1837 38.1421C36.1837 38.1421 37.5737 36.6521 38.1237 35.9721C38.4437 35.5721 38.8137 35.1021 39.2137 34.5821C39.2137 34.6321 39.2237 34.6821 39.2237 34.7421C39.2117 36.5321 37.4917 37.7421 36.7117 38.2221H36.7137ZM45.2737 36.2721C45.0737 36.1321 45.1037 35.6621 45.7737 34.2021C46.0337 33.6321 46.6337 32.6721 47.6737 31.7521C47.7917 32.1001 47.8557 32.4641 47.8637 32.8321C47.8537 35.0821 46.2437 35.9221 45.2737 36.2721Z" fill="#CECECE"/>
</svg>