<svg xmlns="http://www.w3.org/2000/svg" width="32" height="32">
<path d="M10.599 6.473s-1.186 0.685-1.186 2.052v6.834s0 1.369-1.186 0.685-1.186-2.052-1.186-2.052v-6.834c0-0.085 0.004-0.168 0.013-0.25 0.13-1.203 1.171-1.804 1.171-1.804l-2.37-1.367s-0.002 0-0.004 0.002c-0.070 0.041-1.182 0.725-1.182 2.050v6.834s0 1.369-1.186 0.685c-1.186-0.685-1.186-2.052-1.186-2.052v-6.834c0-1.367 1.186-2.052 1.186-2.052l-2.37-1.369s-1.186 0.685-1.186 2.052v6.834s0 4.106 3.556 6.158c1.090 0.629 1.845 0.678 2.37 0.446 0.525 0.838 1.28 1.662 2.37 2.291 3.556 2.052 3.556-2.052 3.556-2.052v-6.834c0-1.369 1.186-2.052 1.186-2.052-0.365-0.458-0.689-0.77-0.973-0.934-0.242-0.14-0.706-0.285-1.393-0.435z"></path>
<path d="M23.634 18.102c0-4.053 3.556-2.052 3.556-2.052l4.739 2.736v2.737l-4.739-2.737s-0.015-0.009-0.041-0.022l-0.016-0.008c-0.237-0.116-1.129-0.473-1.129 0.716 0 1.367 1.186 2.052 1.186 2.052l2.37 1.367s2.37 1.369 2.37 5.473-3.556 2.052-3.556 2.052l-4.739-2.736v-2.736l4.742 2.736s1.186 0.685 1.186-0.685c0-1.367-1.186-2.052-1.186-2.052l-1.186-0.685c-0.071-0.042-3.556-2.146-3.556-6.158zM20.078 11.946c0.709 0.081 1.189 0.195 1.441 0.341 0.274 0.159 0.584 0.501 0.928 1.028 0 0-1.186 0.685-1.186 2.052l-0 6.845c-0.003 0.23-0.107 4.031-3.556 2.041s-3.552-5.913-3.555-6.147l-0-0.011 2.37 1.369v0.005c0.001 0.087 0.040 1.386 1.186 2.047 1.15 0.664 1.185-0.603 1.186-0.681v-6.838c0-1.367 1.186-2.052 1.186-2.052zM14.155 12.646l2.37 1.367v2.737l-2.37-1.367v-2.737z"></path>
<path d="M27.189 6.473c-1.092-0.631-2.071-0.939-2.905-1.062-0.217-0.476-0.751-1.035-1.834-1.653-3.556-2.030-7.109-0.021-7.109-0.021l-4.742 2.736 2.37 1.367 4.739-2.736s1.186-0.685 2.37 0c1.186 0.685 0 1.369 0 1.369l-4.739 2.737 2.37 1.367 4.744-2.739c0.070-0.040 1.218-0.661 2.365 0.002 1.186 0.685 0 1.367 0 1.367l-4.739 2.737 2.37 1.369 5.925-3.421s2.37-1.367-1.184-3.419z"></path>
</svg>