<svg id="e65EWMwi7Iy1" xmlns="http://www.w3.org/2000/svg" xmlns:xlink="http://www.w3.org/1999/xlink" viewBox="0 0 96 96" shape-rendering="geometricPrecision" text-rendering="geometricPrecision" width="96" height="96"><g transform="matrix(2.999719 0 0 2.879309 0.218973 4.117812)"><path d="M10.599,6.473c0,0-1.186.685-1.186,2.052v6.834c0,0,0,1.369-1.186.685s-1.186-2.052-1.186-2.052v-6.834c0-.085.004-.168.013-.25.13-1.203,1.171-1.804,1.171-1.804L5.855,3.737c0,0-.002,0-.004.002-.07.041-1.182.725-1.182,2.05v6.834c0,0,0,1.369-1.186.685-1.186-.685-1.186-2.052-1.186-2.052v-6.834c0-1.367,1.186-2.052,1.186-2.052L1.113,1.001c0,0-1.186.685-1.186,2.052v6.834c0,0,0,4.106,3.556,6.158c1.09.629,1.845.678,2.37.446.525.838,1.28,1.662,2.37,2.291c3.556,2.052,3.556-2.052,3.556-2.052v-6.834c0-1.369,1.186-2.052,1.186-2.052-.365-.458-.689-.77-.973-.934-.242-.14-.706-.285-1.393-.435Z" fill="#ed600f"/><path d="M23.634,18.102c0-4.053,3.556-2.052,3.556-2.052l4.739,2.736v2.737L27.19,18.786c0,0-.015-.009-.041-.022l-.016-.008c-.237-.116-1.129-.473-1.129.716c0,1.367,1.186,2.052,1.186,2.052l2.37,1.367c0,0,2.37,1.369,2.37,5.473s-3.556,2.052-3.556,2.052L23.635,27.68v-2.736l4.742,2.736c0,0,1.186.685,1.186-.685c0-1.367-1.186-2.052-1.186-2.052l-1.186-.685c-.071-.042-3.556-2.146-3.556-6.158Zm-3.556-6.156c.709.081,1.189.195,1.441.341.274.159.584.501.928,1.028c0,0-1.186.685-1.186,2.052v6.845c-.003.23-.107,4.031-3.556,2.041s-3.552-5.913-3.555-6.147v-.011l2.37,1.369v.005c.001.087.04,1.386,1.186,2.047c1.15.664,1.185-.603,1.186-.681v-6.838c0-1.367,1.186-2.052,1.186-2.052Zm-5.923.7l2.37,1.367v2.737l-2.37-1.367v-2.737Z" fill="#ed600f"/><path d="M27.189,6.473c-1.092-.631-2.071-.939-2.905-1.062-.217-.476-.751-1.035-1.834-1.653-3.556-2.03-7.109-.021-7.109-.021L10.599,6.473l2.37,1.367l4.739-2.736c0,0,1.186-.685,2.37,0c1.186.685,0,1.369,0,1.369L15.339,9.21l2.37,1.367l4.744-2.739c.07-.04,1.218-.661,2.365.002c1.186.685,0,1.367,0,1.367l-4.739,2.737l2.37,1.369l5.925-3.421c0,0,2.37-1.367-1.184-3.419Z" fill="#ed600f"/></g></svg>
