<svg width="120" height="120" viewBox="0 0 120 120" fill="none" xmlns="http://www.w3.org/2000/svg">
<g clip-path="url(#clip0_667_120402)">
<path d="M55.4726 52.9733C57.364 52.1571 59.4277 51.8205 61.4804 51.9933C62.836 52.1044 64.126 52.4811 65.3915 52.9533C67.6071 53.7789 69.7026 54.86 71.7748 55.9878C73.3771 56.8611 74.9726 57.7467 76.5793 58.6133C78.1151 59.4327 79.6987 60.1592 81.3215 60.7889C82.0526 61.0756 82.776 61.3878 83.4804 61.7333C85.4671 62.7044 86.826 64.2478 87.576 66.3289C87.6415 66.5122 87.7248 66.69 87.7982 66.87C87.8047 66.9818 87.8181 67.0931 87.8382 67.2033C88.5518 70.0517 88.65 73.0196 88.126 75.9089C87.8257 77.641 87.1838 79.2961 86.2378 80.7777C85.2917 82.2594 84.0603 83.538 82.6154 84.5392C81.1704 85.5403 79.5407 86.244 77.8211 86.6093C76.1015 86.9745 74.3265 86.994 72.5993 86.6667C69.5637 86.1 66.526 85.8156 63.4549 86.2956C61.076 86.6678 58.8504 87.3733 57.1904 89.2722C56.9567 89.5156 56.7076 89.7438 56.4449 89.9556C54.9415 91.2833 53.3604 92.5 51.5082 93.3111C49.9738 93.9833 48.3971 94.2833 46.7449 93.77C46.6351 93.7484 46.5233 93.739 46.4115 93.7422C46.2891 93.6733 46.1629 93.611 46.0338 93.5556C43.3304 92.6122 41.5315 90.7289 40.5338 88.1C39.1771 84.5278 39.1793 80.9033 40.3449 77.2744C40.6215 76.4122 41.1449 75.6678 41.5404 74.8611C41.6015 74.7356 41.6515 74.6045 41.7015 74.4756C42.8868 72.2797 43.9488 70.0196 44.8826 67.7056C45.7715 65.8622 46.5349 63.9644 47.2638 62.0544C48.456 58.9289 50.3749 56.3656 53.0638 54.3878C53.1277 54.3339 53.1885 54.2764 53.246 54.2156L55.4726 52.9733ZM63.3615 57.0389C63.8393 57.0389 64.3182 57.0611 64.7937 57.0289C64.9087 57.0265 65.0195 56.9853 65.1083 56.9122C65.197 56.839 65.2584 56.738 65.2826 56.6256C65.3293 56.3422 65.0826 56.2433 64.8704 56.1722C64.6059 56.0786 64.3332 56.0098 64.056 55.9667C63.1371 55.8467 62.2149 55.7444 61.2938 55.6422C59.3815 55.42 57.5271 55.65 55.7782 56.4689C53.8104 57.3889 52.4604 58.9522 51.476 60.8411C50.1738 63.3367 49.066 65.9245 47.9382 68.5022C47.2049 70.1756 46.576 71.9011 45.6482 73.4811C45.066 74.4745 44.3782 75.4045 43.7426 76.37C43.056 77.4111 42.5038 78.5133 42.2727 79.7522C42.1204 80.57 42.1438 81.38 42.4804 82.1533C42.6838 82.6189 42.8938 82.6389 43.1726 82.2022C43.377 81.8657 43.5561 81.5143 43.7082 81.1511C44.326 79.7622 44.9538 78.3733 45.7871 77.1C47.0414 75.1997 48.0284 73.1359 48.7204 70.9667C49.8249 67.4833 51.6293 64.3344 53.9749 61.5056C56.4204 58.5556 59.6671 57.3333 63.3626 57.0389H63.3615Z" fill="#F586B8"/>
<path d="M46.4103 93.7423C46.5221 93.7391 46.6339 93.7485 46.7436 93.7701C48.3959 94.2834 49.9725 93.9834 51.507 93.3112C53.3592 92.5001 54.9403 91.2834 56.4436 89.9557C56.7068 89.7436 56.9562 89.515 57.1903 89.2712C58.8503 87.3723 61.0792 86.6668 63.4547 86.2946C66.5259 85.8146 69.5659 86.099 72.5992 86.6657C74.3264 86.9932 76.1015 86.9739 77.8211 86.6088C79.5407 86.2437 81.1705 85.5401 82.6156 84.539C84.0607 83.5379 85.2922 82.2594 86.2384 80.7778C87.1846 79.2962 87.8266 77.6411 88.127 75.909C88.651 73.0197 88.5529 70.0519 87.8392 67.2035C87.8191 67.0933 87.8057 66.9819 87.7992 66.8701C89.0214 67.3246 90.1581 67.9212 91.147 68.7801C92.7325 70.1579 93.4525 71.9912 93.8759 73.9779C94.2903 75.9168 94.3459 77.8923 94.1892 79.8457C93.957 82.7423 93.0781 85.4223 91.1981 87.7446C89.1247 90.3112 86.4614 91.8323 83.2803 92.4846C81.6822 92.8206 80.0317 92.8206 78.4336 92.4846C75.9792 91.9612 73.4947 91.7201 70.9892 91.8812C68.767 92.0234 66.6081 92.5246 64.6347 93.639C64.2814 93.8379 64.0136 94.119 63.7314 94.3901C62.3336 95.7346 60.867 96.989 59.2447 98.0634C58.0347 98.8646 56.747 99.4546 55.3214 99.7301C54.127 99.9612 52.9636 99.7623 51.8425 99.3712C49.4703 98.5434 47.7859 96.9268 46.6525 94.7046C46.5014 94.4012 46.3825 94.0923 46.4103 93.7423Z" fill="#2E1246"/>
<path d="M41.0165 48.9313C40.92 48.8767 40.8198 48.8292 40.7165 48.7891C38.1965 47.9924 36.4943 46.3069 35.3832 43.9491C34.4765 42.0146 34.0232 39.9591 33.802 37.8546C33.4809 34.7869 33.5643 31.7313 34.2576 28.7102C34.4329 27.9134 34.6894 27.1368 35.0232 26.3924C36.0965 24.0502 37.7621 23.1702 40.2821 23.6968C44.0854 24.4857 46.8976 26.6624 48.8843 29.9591C49.0721 30.2702 49.2632 30.5791 49.4521 30.8891C49.4398 31.128 49.5832 31.3157 49.6687 31.5202C50.3846 33.1987 51.015 34.9124 51.5576 36.6546C52.0609 38.3269 52.4676 40.0202 52.4465 41.7802C52.4254 43.278 52.0921 44.6946 50.9809 45.7891C49.2743 47.4713 47.2243 48.5091 44.8698 48.9702C43.5765 49.2224 42.2987 49.1113 41.0165 48.9313ZM36.0809 38.6102C36.0954 38.3969 36.1065 38.1846 36.1243 37.9713C36.2565 36.4057 36.4376 34.8513 36.7909 33.3124C37.4687 30.3768 39.2787 28.6135 42.1809 27.9257C42.7274 27.7809 43.3024 27.7832 43.8476 27.9324C44.0043 27.978 44.1532 28.0891 44.3143 27.9468C44.3609 27.7513 44.2321 27.6302 44.1221 27.5024C43.0421 26.2891 41.6398 26.1091 40.1787 26.4246C38.0487 26.8857 36.7343 28.3291 35.9565 30.2991C35.1787 32.2924 35.1232 34.3513 35.5265 36.4324C35.6665 37.1657 35.6854 37.9257 36.0809 38.6102Z" fill="#F586B8"/>
<path d="M64.1913 44.4832C63.5624 44.2454 62.9224 44.0321 62.3024 43.7665C60.8768 43.1532 59.8713 42.1188 59.159 40.7343C57.7779 38.0532 57.069 35.2365 57.2413 32.2132C57.3724 29.9176 57.809 27.6988 58.9279 25.6576C60.4302 22.9243 62.7479 21.1976 65.7213 20.3788C67.6824 19.8388 69.4468 20.3221 70.9246 21.7499C71.8679 22.6621 72.5379 23.761 73.1002 24.9332L73.6102 25.991C74.2768 27.991 74.8791 30.0065 75.2157 32.0921C75.5713 34.2976 75.7324 36.5099 75.2868 38.7176C74.7224 41.5121 73.2157 43.541 70.4191 44.4543C69.6123 44.6997 68.781 44.8554 67.9402 44.9188C66.6546 45.0465 65.429 44.7332 64.1913 44.4832ZM69.6668 26.0165C69.739 24.3843 68.5802 23.0865 67.0424 23.101C64.8135 23.121 63.0035 24.121 61.6624 25.821C60.3213 27.521 59.6224 29.5554 59.2879 31.6988C59.2031 32.2311 59.2806 32.7766 59.5102 33.2643C59.6424 33.5476 59.8168 33.571 60.0024 33.3032C60.2779 32.9054 60.4202 32.4454 60.5946 32.0032C61.1502 30.6154 61.7313 29.2488 62.6224 28.0354C63.199 27.2499 63.8913 26.5654 64.8202 26.2576C66.3902 25.7454 68.0002 25.5876 69.6668 26.0165Z" fill="#F586B8"/>
<path d="M26.4794 69.422C26.2139 69.2654 25.9494 69.1076 25.6839 68.9531C21.7117 66.6398 19.5261 63.1987 19.3239 58.6009C19.1972 55.7343 20.0372 53.1565 22.1594 51.1143C24.465 48.892 28.7606 47.5254 32.6039 50.2254C34.1705 51.3265 35.3905 52.742 36.4272 54.3365C36.6561 54.6876 36.8872 55.0376 37.1172 55.3876C37.1905 55.5687 37.2505 55.7554 37.3394 55.9287C38.207 57.5744 38.7359 59.3773 38.895 61.2309C39.0261 62.8632 38.8028 64.4354 37.9872 65.8765C37.0256 67.5643 35.5269 68.8817 33.7297 69.6189C31.9325 70.3561 29.9404 70.4706 28.0705 69.9443C27.5372 69.7898 27.0117 69.5954 26.4794 69.422ZM21.7939 58.4076C21.7796 58.716 21.7826 59.025 21.8028 59.3332C21.8294 59.5732 21.8461 59.8887 22.1528 59.9387C22.4061 59.9798 22.5261 59.7298 22.6361 59.532C22.7461 59.3343 22.8494 59.1354 22.9494 58.9343C23.3261 58.1798 23.7183 57.4332 24.0717 56.6676C24.6894 55.3343 25.7506 54.5198 27.0972 54.0276C27.2817 53.9598 27.4706 53.9032 27.6528 53.8343C28.6894 53.452 29.7839 53.352 30.8661 53.1954C31.0361 53.1709 31.2272 53.1487 31.2883 52.9732C31.3739 52.722 31.1394 52.6398 30.9872 52.5354C30.7275 52.3652 30.4361 52.2492 30.1305 52.1943C29.5828 52.0754 29.0317 51.9343 28.475 51.8954C26.6972 51.772 25.0772 52.1998 23.7439 53.462C22.3261 54.8054 21.8517 56.5276 21.7939 58.4076Z" fill="#F586B8"/>
<path d="M94.8893 39.6788C94.8893 41.901 94.8126 44.1232 94.3859 46.3077C93.6548 50.0621 91.4737 52.7521 88.1182 54.5032C86.8526 55.1699 85.4737 55.1999 84.0859 54.9243C83.5304 54.7343 82.9615 54.5743 82.4193 54.3488C80.3771 53.501 78.9948 52.0577 78.4637 49.8677C78.4315 49.7321 78.3793 49.601 78.3359 49.4677C77.9959 47.1754 78.2248 44.9343 78.9193 42.731C79.4359 41.0821 80.2459 39.5799 81.1904 38.1443C81.8671 37.3554 82.5237 36.5532 83.3526 35.9054C84.6659 34.8743 86.1193 34.2054 87.8048 34.0765C88.6448 34.0132 89.4804 33.8865 90.3193 33.8165C92.7959 33.6121 93.7537 34.3054 94.4081 36.6888C94.6726 37.6721 94.6893 38.6877 94.8893 39.6788ZM89.697 36.0243C86.5293 36.3065 84.0615 37.5743 82.4126 40.2121C81.8037 41.1877 81.577 42.2865 81.887 43.4454C81.9526 43.6877 81.9448 43.991 82.2382 44.0599C82.5848 44.141 82.7193 43.8277 82.8593 43.5965C83.0626 43.2632 83.2404 42.9088 83.4148 42.5565C84.1497 41.0325 85.2459 39.7112 86.6082 38.7077C87.3304 38.1743 88.0393 37.6232 88.7415 37.0654C89.0715 36.7977 89.4548 36.5554 89.6915 36.0243H89.697Z" fill="#F586B8"/>
<path d="M41.017 48.9308C42.2993 49.1052 43.5726 49.223 44.8693 48.9697C47.2237 48.5086 49.2737 47.4708 50.9804 45.7886C52.0915 44.6941 52.4248 43.2775 52.4459 41.7797C52.4704 40.0197 52.0637 38.3264 51.557 36.6541C51.0144 34.9119 50.384 33.1982 49.6681 31.5197C49.5826 31.3152 49.4393 31.1275 49.4515 30.8886C49.8448 30.8619 50.1426 31.0675 50.4515 31.2763C52.7984 32.8482 54.6098 35.0988 55.6437 37.7275C56.3481 39.4952 57.077 41.2575 57.557 43.1064C57.9881 44.763 58.3637 46.4319 58.2292 48.1564C58.1292 49.4375 57.7326 50.6152 56.7704 51.5508C56.3115 51.9952 55.777 52.3841 55.4715 52.973L53.2493 54.2141C52.5493 54.1319 51.9459 54.4997 51.2948 54.6419C49.2104 55.0975 47.1648 55.0419 45.2337 54.0864C43.8183 53.3827 42.6379 52.2829 41.8359 50.9208C41.4615 50.303 41.0004 49.713 41.017 48.9308Z" fill="#2E1246"/>
<path d="M81.1842 38.1446C80.2397 39.5802 79.4297 41.0824 78.9131 42.7313C78.2231 44.9346 77.9897 47.1757 78.3297 49.4679C78.0331 49.4402 77.7853 49.5791 77.5353 49.7046C76.402 50.2957 75.2019 50.5535 73.9208 50.6813C71.8097 50.8924 69.8797 50.3313 68.0008 49.5202C66.6164 48.9213 65.6019 47.8724 64.9653 46.5035C64.6631 45.8524 64.2664 45.2257 64.1875 44.4835C65.4253 44.7335 66.6508 45.0468 67.9386 44.9224C68.7795 44.8591 69.6108 44.7033 70.4175 44.458C73.2142 43.5446 74.7208 41.5157 75.2853 38.7213C75.7297 36.5135 75.5697 34.3013 75.2142 32.0957C74.8808 30.0102 74.2764 27.9935 73.6086 25.9946C74.5691 26.1884 75.476 26.5888 76.2664 27.168C77.1553 27.8346 77.7508 28.6857 78.2819 29.6068C79.3675 31.4957 80.0475 33.528 80.5486 35.6368C80.752 36.4746 80.8331 37.3457 81.1842 38.1446Z" fill="#2E1246"/>
<path d="M26.4805 69.4221C27.0127 69.5954 27.5382 69.7898 28.0771 69.941C29.9469 70.4673 31.9391 70.3528 33.7363 69.6156C35.5335 68.8784 37.0322 67.561 37.9938 65.8732C38.8094 64.4287 39.0327 62.8598 38.9016 61.2276C38.7425 59.374 38.2136 57.5711 37.346 55.9254C37.256 55.7521 37.196 55.5654 37.1238 55.3843C38.1794 55.6965 39.0127 56.3843 39.7671 57.1187C42.1282 59.4265 43.736 62.1898 44.4849 65.4187C44.616 65.9843 44.7527 66.5654 44.7327 67.161C44.726 67.3576 44.7227 67.5587 44.8849 67.7099C43.9511 70.0238 42.8891 72.284 41.7038 74.4799C41.4682 74.2043 41.306 74.4532 41.1382 74.5699C40.2828 75.1662 39.3199 75.5911 38.3027 75.821C36.3938 76.2499 34.5182 76.1332 32.7116 75.3699C31.0942 74.7047 29.6376 73.7015 28.4394 72.4276C27.6194 71.5454 26.8316 70.6187 26.4805 69.4221Z" fill="#2E1246"/>
<path d="M63.3625 57.0391C59.6669 57.3336 56.4203 58.5558 53.9758 61.5025C51.6303 64.3314 49.8258 67.4803 48.7214 70.9636C48.0294 73.1328 47.0424 75.1966 45.7881 77.0969C44.9547 78.3725 44.3269 79.7636 43.7092 81.1481C43.557 81.5112 43.378 81.8626 43.1736 82.1992C42.8947 82.6358 42.6847 82.6158 42.4814 82.1503C42.1481 81.3725 42.1214 80.5669 42.2736 79.7492C42.5047 78.5103 43.0569 77.408 43.7436 76.3669C44.3792 75.4047 45.0669 74.478 45.6492 73.478C46.5769 71.898 47.2047 70.1725 47.9392 68.4992C49.0669 65.9214 50.1747 63.3336 51.4769 60.838C52.4614 58.9491 53.8103 57.3858 55.7792 56.4658C57.5281 55.6469 59.3825 55.4203 61.2947 55.6391C62.2158 55.7436 63.138 55.8436 64.0569 55.9636C64.3342 56.0068 64.6068 56.0756 64.8714 56.1691C65.0836 56.2403 65.3303 56.3391 65.2836 56.6225C65.2594 56.7349 65.1979 56.8359 65.1092 56.9091C65.0205 56.9823 64.9097 57.0234 64.7947 57.0258C64.3192 57.0614 63.8403 57.0391 63.3625 57.0391Z" fill="#FFFBF9"/>
<path d="M36.0811 38.6098C35.6855 37.9254 35.6666 37.1654 35.5255 36.4365C35.1222 34.3554 35.1733 32.2965 35.9555 30.3032C36.7333 28.3332 38.0489 26.8898 40.1778 26.4287C41.6389 26.1132 43.0411 26.2932 44.1211 27.5065C44.2322 27.6298 44.36 27.7509 44.3133 27.9509C44.1522 28.0932 44.0033 27.982 43.8466 27.9365C43.3014 27.7873 42.7264 27.785 42.18 27.9298C39.2777 28.6176 37.4677 30.3809 36.79 33.3165C36.4355 34.8554 36.2544 36.4098 36.1233 37.9754C36.1111 38.1843 36.0955 38.3965 36.0811 38.6098Z" fill="#FFFBF9"/>
<path d="M69.6667 26.017C68 25.5881 66.39 25.7459 64.8244 26.2603C63.8956 26.5659 63.2033 27.2504 62.6267 28.0381C61.7378 29.2515 61.1489 30.6181 60.5989 32.0059C60.4244 32.4504 60.2822 32.9081 60.0067 33.3059C59.8211 33.5737 59.6467 33.5504 59.5144 33.267C59.2849 32.7793 59.2074 32.2338 59.2922 31.7015C59.6255 29.5592 60.3233 27.527 61.6667 25.8237C63.01 24.1203 64.8178 23.1237 67.0467 23.1037C68.58 23.087 69.7389 24.3848 69.6667 26.017Z" fill="#FFFBF9"/>
<path d="M21.794 58.4078C21.8518 56.5278 22.3262 54.8056 23.7462 53.46C25.0795 52.1978 26.6951 51.77 28.4773 51.8934C29.0329 51.9323 29.5884 52.0734 30.1329 52.1923C30.4385 52.2472 30.7298 52.3632 30.9895 52.5334C31.1418 52.6445 31.3762 52.72 31.2907 52.9711C31.2295 53.1489 31.0384 53.1711 30.8684 53.1934C29.7862 53.35 28.6918 53.45 27.6551 53.8322C27.4707 53.9011 27.2818 53.9578 27.0995 54.0256C25.7507 54.52 24.6895 55.3334 24.0718 56.6667C23.7184 57.4322 23.3262 58.1789 22.9496 58.9334C22.8496 59.1345 22.7451 59.3345 22.6362 59.5311C22.5273 59.7278 22.4062 59.9756 22.1529 59.9378C21.8462 59.89 21.8296 59.5722 21.8029 59.3322C21.7827 59.0245 21.7798 58.7159 21.794 58.4078Z" fill="#FFFBF9"/>
<path d="M89.6907 36.0244C89.4541 36.56 89.0707 36.8022 88.733 37.0655C88.0307 37.6211 87.3219 38.1766 86.5996 38.7077C85.2376 39.711 84.1413 41.0319 83.4063 42.5555C83.2341 42.9078 83.0563 43.26 82.8507 43.5955C82.7107 43.8266 82.5763 44.14 82.2296 44.0589C81.9363 43.99 81.9441 43.6866 81.8785 43.4444C81.5685 42.2855 81.7952 41.1866 82.4041 40.2111C84.0552 37.5744 86.523 36.3066 89.6907 36.0244Z" fill="#FFFBF9"/>
<path d="M99.679 53.9821C100.211 51.8221 100.802 48.801 100.669 46.4266C100.573 44.5536 100.225 42.7022 99.6346 40.9221C98.9234 39.7699 97.8801 39.6143 96.7401 39.6677C96.1223 39.6966 95.5023 39.6777 94.8834 39.6799C94.8834 41.9021 94.8068 44.1243 94.3801 46.3088C93.649 50.0632 91.4679 52.7532 88.1123 54.5043C86.8468 55.171 85.4679 55.201 84.0801 54.9254C84.1423 55.1654 84.2012 55.4054 84.2668 55.6443C84.5623 56.711 84.9812 57.6999 85.7723 58.5232C86.979 59.7766 88.519 60.3588 90.1401 60.7554C90.5845 60.8666 91.0612 60.9999 91.5512 60.9454C93.4968 60.7299 95.1345 59.8821 96.5423 58.5488C97.9079 57.2554 98.9868 55.771 99.6679 54.0032C99.6668 53.9999 99.6757 53.9888 99.679 53.9821Z" fill="#2E1246"/>
</g>
<defs>
<clipPath id="clip0_667_120402">
<rect width="120" height="120" fill="white"/>
</clipPath>
</defs>
</svg>
