<svg width="50" height="64" viewBox="0 0 50 64" fill="none" xmlns="http://www.w3.org/2000/svg">
<path d="M28.1285 59.4092C28.1215 59.2985 28.1144 59.2354 28.1144 59.2354C28.1144 59.2354 28.1174 59.2988 28.1285 59.4092ZM28.1295 59.425C28.177 60.2048 28.1934 63.1228 25.7868 63.0811C23.0104 63.0332 23.5921 58.5423 21.6513 56.6484C19.8768 56.004 16.6436 56.9663 11.3616 55.7042C6.08077 54.4431 -0.232683 46.0253 7.35585 36.2923C16.2257 24.9162 31.438 23.7361 40.6981 29.2264C40.6981 29.2264 43.2337 30.6717 44.8278 32.5688C52.5673 41.154 49.0654 52.8908 42.8047 53.96L41.195 54.3152C41.3784 57.0916 41.2809 61.3106 39.0477 61.6786C37.6745 61.9057 37.2786 61.1182 36.8927 57.7812C36.8927 57.7812 37.0589 62.3655 34.6035 62.5214C32.6934 62.6426 32.5119 58.6229 32.5119 58.6229C32.5119 58.6229 32.7267 62.6356 30.2665 62.7967C28.5686 62.9075 28.1988 60.1776 28.1295 59.425L28.1295 59.425ZM45.3129 43.5295C45.1014 40.1983 42.8537 37.6293 40.2913 37.792C37.7288 37.9547 35.823 40.7873 36.0345 44.1186C36.246 47.4499 38.4947 50.0178 41.0571 49.8551C43.6196 49.6924 45.5244 46.8608 45.3129 43.5295ZM25.1645 46.7991C25.1131 43.3624 22.6364 40.6205 19.6332 40.6742C16.6299 40.728 14.2367 43.5568 14.2891 46.9934C14.3404 50.4291 16.8161 53.1711 19.8194 53.1174C22.8226 53.0636 25.2158 50.2348 25.1645 46.7991Z" fill="#8DF4A5"/>
<path d="M40.2913 37.792C42.8538 37.6293 45.1015 40.1983 45.313 43.5295C45.5245 46.8608 43.6196 49.6924 41.0572 49.8551C38.4948 50.0177 36.2461 47.4498 36.0346 44.1186C35.8231 40.7873 37.7289 37.9547 40.2913 37.792Z" fill="#373780"/>
<path d="M19.6332 40.6741C22.6365 40.6204 25.1132 43.3623 25.1645 46.799C25.2159 50.2347 22.8227 53.0635 19.8194 53.1173C16.8162 53.171 14.3405 50.429 14.2892 46.9934C14.2368 43.5567 16.6299 40.7279 19.6332 40.6741Z" fill="#373780"/>
<path d="M45.9849 52.1617C49.5315 47.4171 47.7596 42.1877 47.6837 43.4089C47.6066 44.6292 47.1353 45.701 46.652 45.3735C47.8677 39.6338 43.4937 36.8933 43.4054 36.7114C43.3172 36.5304 43.6981 36.4695 44.4745 36.8677C45.251 37.2669 44.8016 35.6524 44.5116 35.2749C43.5669 33.8396 42.1258 32.5629 39.9013 31.6484C36.5934 30.2898 37.2128 28.6818 38.8682 28.3525L38.9036 28.2808C39.5237 28.5698 40.1219 28.8851 40.6982 29.2265C40.6982 29.2265 43.2338 30.6719 44.8279 32.5689C51.0701 39.494 49.9995 48.4689 46.0657 52.2419L45.9849 52.1617Z" fill="#FFFFCC"/>
<path d="M28.1286 59.409C28.1216 59.2984 28.1145 59.2353 28.1145 59.2353C28.1145 59.2353 28.1175 59.2986 28.1286 59.409ZM40.9903 52.2494L40.906 52.2597C39.6585 50.8258 38.9568 52.1036 39.2479 54.1579C39.539 56.2121 40.2379 59.306 39.4112 59.3585C38.5856 59.4109 39.8135 62.3581 37.9579 61.3558L37.8313 61.3916C37.3676 60.9061 37.1287 59.8189 36.8928 57.781C36.8928 57.781 37.059 62.3653 34.6036 62.5212C32.6935 62.6425 32.512 58.6227 32.512 58.6227C32.512 58.6227 32.7268 62.6354 30.2666 62.7966C28.5687 62.9074 28.1989 60.1775 28.1296 59.4248C28.1663 60.0347 28.1852 61.9594 27.0335 62.7439C25.9 62.8466 25.0789 60.6812 25.5054 60.0171C26.0317 59.1989 26.142 56.3909 25.0231 56.966C23.9043 57.541 23.8228 56.2574 22.5926 55.1597C21.3623 54.0611 17.2661 54.9373 16.1688 54.9504C15.0716 54.9645 12.3204 54.4109 10.6417 53.4529C8.96288 52.4948 6.64131 49.617 6.70007 45.9809C6.75781 42.3448 9.49898 37.2763 13.5197 34.1635C17.5415 31.0506 16.6945 32.2811 16.6945 32.2811C16.6945 32.2811 14.9359 35.5311 18.6249 33.5596C22.3139 31.589 26.1212 30.5625 31.8008 30.818C37.4804 31.0736 37.243 27.3352 32.3261 26.3585L32.3298 26.3354C34.6033 26.6637 36.8175 27.3188 38.9036 28.2805L38.8682 28.3522C37.2129 28.6815 36.5935 30.2895 39.9013 31.6482C42.1259 32.5626 43.567 33.8394 44.5116 35.2746C44.8017 35.6521 45.2511 37.2666 44.4746 36.8675C43.6982 36.4693 43.3172 36.5302 43.4055 36.7111C43.4938 36.893 47.8677 39.6336 46.652 45.3732C47.1354 45.7007 47.6067 44.629 47.6837 43.4086C47.7597 42.1874 49.5316 47.4169 45.9849 52.1615L46.0657 52.2417C45.1234 53.1468 44.0157 53.753 42.8048 53.9598L41.1951 54.315C41.1359 53.4149 41.0464 52.6665 40.9903 52.2494ZM45.313 43.5294C45.1015 40.1981 42.8538 37.6292 40.2914 37.7919C37.7289 37.9545 35.8231 40.7872 36.0346 44.1185C36.2461 47.4497 38.4948 50.0176 41.0573 49.8549C43.6197 49.6922 45.5245 46.8606 45.313 43.5294ZM39.2384 33.2797C41.1548 33.418 39.335 32.077 37.8212 31.4449C36.3441 30.8272 37.322 33.1405 39.2384 33.2797V33.2797ZM27.3113 46.4066C27.7172 44.4342 27.6212 41.6641 24.5168 40.3194C24.3106 40.2303 24.1315 40.4887 24.2985 40.6358C26.2595 42.3796 26.738 44.6779 26.7794 46.362C26.7869 46.6741 27.2489 46.7132 27.3113 46.4066ZM25.1646 46.7989C25.1132 43.3623 22.6366 40.6203 19.6333 40.6741C16.63 40.7278 14.2368 43.5567 14.2892 46.9933C14.3406 50.429 16.8162 53.171 19.8195 53.1172C22.8228 53.0635 25.2159 50.2346 25.1646 46.7989ZM13.9696 36.2364C14.5301 36.425 16.3791 34.5991 15.2657 34.8097C13.9309 35.0621 13.4081 36.0478 13.9696 36.2364ZM12.8045 53.5398C14.1636 52.7996 11.4516 52.2515 10.8972 51.7231C9.97451 50.8431 10.0886 50.4806 9.44339 50.6337C8.2235 50.9235 10.9873 54.5293 12.8045 53.5398ZM8.50596 48.4896C9.7894 49.1364 9.40251 45.7666 8.48567 45.8973C7.85381 45.987 7.22252 47.8428 8.50596 48.4896Z" fill="#FDEAD9"/>
<path d="M41.1951 54.3155C41.3786 57.0919 41.2811 61.3109 39.0479 61.6789C38.5132 61.7674 38.1273 61.7016 37.8313 61.392L37.958 61.3562C39.8135 62.3586 38.5856 59.4113 39.4113 59.3589C40.2379 59.3064 39.539 56.2125 39.2479 54.1583C38.9568 52.1041 39.6586 50.8262 40.906 52.2601L40.9903 52.2498C41.0465 52.6669 41.1359 53.4153 41.1951 54.3155Z" fill="#FFFFCC"/>
<path d="M37.8212 31.4449C39.3349 32.0771 41.1547 33.4181 39.2384 33.2798C37.3219 33.1405 36.3441 30.8273 37.8212 31.4449Z" fill="#FFFFCC"/>
<path d="M32.326 26.3586C37.2429 27.3352 37.4803 31.0736 31.8007 30.8181C26.1211 30.5625 22.3138 31.5891 18.6247 33.5596C14.9358 35.5312 16.6943 32.2812 16.6943 32.2812C16.6943 32.2812 17.5413 31.0507 13.5196 34.1635C9.49885 37.2763 6.75768 42.3449 6.69994 45.9809C6.64118 49.6171 8.96275 52.4949 10.6415 53.4529C12.3203 54.411 15.0715 54.9646 16.1687 54.9505C17.2659 54.9374 21.3622 54.0611 22.5924 55.1598C23.8226 56.2574 23.9041 57.5411 25.023 56.966C26.1419 56.391 26.0316 59.1989 25.5053 60.0172C25.0788 60.6812 25.8999 62.8467 27.0334 62.7439C26.7156 62.9606 26.3072 63.0897 25.7868 63.081C23.0104 63.0331 23.5921 58.5422 21.6513 56.6483C19.8768 56.0039 16.6436 56.9662 11.3616 55.7041C6.08077 54.443 -0.232683 46.0252 7.35585 36.2922C13.8798 27.9246 23.8353 25.073 32.3296 26.3355L32.326 26.3586Z" fill="#F9CCA7"/>
<path d="M24.5169 40.3195C27.6212 41.6643 27.7173 44.4343 27.3114 46.4068C27.249 46.7134 26.787 46.6743 26.7794 46.3622C26.738 44.6781 26.2595 42.3798 24.2985 40.636C24.1316 40.4888 24.3106 40.2304 24.5169 40.3195Z" fill="#FFFFCC"/>
<path d="M15.2657 34.8099C16.3791 34.5993 14.5302 36.4253 13.9697 36.2366C13.4081 36.048 13.9309 35.0623 15.2657 34.8099Z" fill="#F9CCA7"/>
<path d="M10.8971 51.7236C11.4516 52.252 14.1635 52.8001 12.8044 53.5402C10.9873 54.5297 8.22344 50.924 9.44333 50.6342C10.0886 50.4811 9.97445 50.8436 10.8971 51.7236Z" fill="#F9CCA7"/>
<path d="M8.48551 45.8973C9.40235 45.7666 9.78924 49.1364 8.5058 48.4896C7.22235 47.8428 7.85364 45.987 8.48551 45.8973Z" fill="#F9CCA7"/>
<path d="M32.5241 47.885C35.6993 49.8273 36.7073 53.2653 35.0211 53.8558C33.8218 54.2756 32.8708 52.9643 32.8708 52.9643C32.8708 52.9643 32.1165 55.0026 30.4524 54.4981C28.4827 53.3544 30.1308 49.5675 31.3919 48.1312C31.6738 47.8104 32.1599 47.6618 32.5241 47.885Z" fill="#373780"/>
<path d="M41.1944 54.875C41.0564 54.8749 40.9234 54.8238 40.8207 54.7316C40.7181 54.6394 40.6531 54.5125 40.6383 54.3753C40.6234 54.2381 40.6597 54.1003 40.7402 53.9882C40.8207 53.8762 40.9398 53.7978 41.0745 53.7681L42.6847 53.4134C42.6934 53.4115 42.7021 53.4098 42.7108 53.4083C44.9908 53.0186 46.9634 51.0239 47.9874 48.0724C48.7573 45.8534 48.9094 43.259 48.4158 40.7672C47.854 37.9313 46.4695 35.226 44.4119 32.9436C44.3624 32.889 44.3243 32.8252 44.2996 32.7558C44.2748 32.6865 44.264 32.6129 44.2678 32.5394C44.2715 32.4659 44.2897 32.3938 44.3213 32.3273C44.353 32.2608 44.3974 32.2012 44.4521 32.1519C44.5068 32.1026 44.5707 32.0645 44.6401 32.04C44.7095 32.0154 44.7831 32.0047 44.8566 32.0086C44.9301 32.0125 45.0022 32.0308 45.0686 32.0626C45.135 32.0943 45.1945 32.1389 45.2437 32.1937C47.4367 34.6261 48.9135 37.5155 49.5144 40.5495C50.0538 43.2723 49.8916 46.0006 49.0455 48.4395C47.8876 51.7771 45.5958 54.0453 42.9129 54.51L41.3155 54.8618C41.2757 54.8706 41.2351 54.875 41.1944 54.875Z" fill="#373780"/>
<path d="M25.8384 63.6416C25.8181 63.6416 25.7978 63.6414 25.7772 63.6411C23.739 63.606 23.1567 61.6847 22.6429 59.9896C22.3203 58.9252 21.9871 57.8261 21.3454 57.1366C20.7068 56.943 19.7918 56.9518 18.6504 56.9625C16.8515 56.9797 14.3878 57.0031 11.232 56.2493C8.61606 55.6244 5.34587 53.1942 3.937 49.1737C3.25063 47.215 3.10669 45.149 3.50915 43.0332C3.96294 40.6478 5.10852 38.264 6.91411 35.9482C11.0712 30.5892 17.0963 26.9949 23.7868 25.8826C29.8974 24.8449 36.1655 25.888 40.9838 28.7446C41.1116 28.8203 41.204 28.9437 41.2408 29.0876C41.2776 29.2315 41.2557 29.3841 41.1799 29.5119C41.1042 29.6396 40.9808 29.7321 40.8369 29.7688C40.693 29.8056 40.5404 29.7837 40.4126 29.708C35.819 26.9846 29.8276 25.9927 23.9743 26.9869C20.9156 27.5004 17.973 28.5554 15.2848 30.1024C12.3893 31.775 9.84637 33.9943 7.79739 36.6369C6.10223 38.811 5.02965 41.0335 4.60942 43.2425C4.24426 45.1621 4.37364 47.033 4.99399 48.8034C6.26321 52.4253 9.17223 54.6057 11.4922 55.1599C14.5145 55.8819 16.8018 55.8601 18.6398 55.8426C19.9641 55.8298 21.0102 55.8201 21.842 56.1217C21.9169 56.1489 21.9851 56.1918 22.0421 56.2474C22.9465 57.13 23.337 58.4185 23.7147 59.6647C24.2476 61.4227 24.6332 62.5012 25.7965 62.5212C26.2937 62.5307 26.6726 62.3839 26.9534 62.0752C27.536 61.4346 27.607 60.2014 27.5768 59.548C27.5632 59.4066 27.5573 59.3066 27.5551 59.2634C27.5479 59.1182 27.5974 58.9759 27.6931 58.8665C27.7889 58.7571 27.9234 58.6893 28.0683 58.6773C28.2132 58.6654 28.357 58.7102 28.4694 58.8024C28.5819 58.8945 28.654 59.0268 28.6707 59.1712C28.6728 59.1894 28.6833 59.2846 28.6914 59.4357C28.7599 60.1325 29.0079 61.479 29.6188 62.0223C29.6997 62.0993 29.7961 62.1584 29.9015 62.1955C30.0069 62.2327 30.119 62.2471 30.2304 62.2379C32.0698 62.1178 31.9596 58.8283 31.9526 58.6593C31.9524 58.6555 31.9522 58.6519 31.9521 58.6486C31.9455 58.5007 31.9977 58.3561 32.0973 58.2466C32.197 58.1371 32.336 58.0714 32.4839 58.0641C32.6318 58.0568 32.7766 58.1084 32.8865 58.2076C32.9965 58.3067 33.0627 58.4454 33.0707 58.5933C33.0709 58.5958 33.0711 58.6017 33.0716 58.6106C33.1166 59.5379 33.4224 61.2059 34.0568 61.7742C34.1239 61.8398 34.204 61.8906 34.292 61.923C34.38 61.9555 34.4739 61.969 34.5675 61.9626C36.1718 61.8607 36.3198 58.7716 36.3332 58.1534C36.3365 58.0061 36.3954 57.8656 36.4981 57.76C36.6008 57.6544 36.7397 57.5916 36.8868 57.5843C37.034 57.577 37.1784 57.6256 37.2911 57.7204C37.4038 57.8153 37.4765 57.9493 37.4944 58.0955C37.6535 59.3837 37.8736 60.7435 38.2996 61.0622C38.3876 61.128 38.5418 61.1949 38.9563 61.1264C40.3786 60.8917 40.6537 58.1764 40.691 56.5787C40.7448 54.2784 40.3906 52.0038 40.387 51.981C40.364 51.8344 40.4002 51.6847 40.4875 51.5647C40.5749 51.4447 40.7063 51.3643 40.8528 51.3412C40.9994 51.318 41.1492 51.354 41.2693 51.4411C41.3894 51.5283 41.4699 51.6596 41.4933 51.8062C41.7263 53.3903 41.8325 54.9905 41.811 56.5915C41.7323 60.0542 40.8332 61.9518 39.1387 62.2315C38.7357 62.2979 38.1409 62.3421 37.6288 61.9591C37.3511 61.7514 37.1398 61.4503 36.9709 61.0464C36.3783 62.6377 35.3816 63.0331 34.6384 63.0803C34.3963 63.0958 34.1535 63.0619 33.9248 62.9806C33.6962 62.8993 33.4865 62.7724 33.3085 62.6075C33.0032 62.3166 32.7605 61.9665 32.5951 61.5786C32.0192 62.9399 31.061 63.306 30.3034 63.3555C30.0436 63.3738 29.7829 63.339 29.537 63.2535C29.2911 63.1679 29.0652 63.0333 28.8729 62.8578C28.6292 62.6331 28.4259 62.3684 28.2716 62.075C28.1485 62.3487 27.9843 62.6019 27.7846 62.8259C27.2936 63.3673 26.639 63.6416 25.8384 63.6416Z" fill="#373780"/>
<path d="M19.7342 53.6784C18.3015 53.6784 16.9185 53.1018 15.83 52.0484C14.5236 50.7842 13.7577 48.9447 13.7287 47.0016C13.6727 43.2632 16.3171 40.1737 19.6233 40.1146C21.0893 40.0893 22.5102 40.6669 23.6228 41.7437C24.9292 43.0078 25.6952 44.8473 25.7242 46.7905V46.7905C25.7802 50.5289 23.1358 53.6184 19.8296 53.6775C19.7978 53.678 19.7659 53.6784 19.7342 53.6784ZM19.7182 41.2337C19.6933 41.2337 19.6683 41.234 19.6433 41.2344C16.9528 41.2825 14.8018 43.8621 14.8485 46.9848C14.8731 48.6326 15.5148 50.1848 16.6089 51.2436C17.5061 52.1118 18.6427 52.5791 19.8096 52.5577C22.5001 52.5096 24.6511 49.93 24.6044 46.8072V46.8073C24.5797 45.1595 23.9381 43.6073 22.844 42.5485C21.966 41.6989 20.8586 41.2337 19.7182 41.2337Z" fill="#373780"/>
<path d="M40.8289 50.4229C38.0732 50.423 35.6994 47.6763 35.4757 44.1539C35.3657 42.4202 35.7856 40.7512 36.6581 39.4544C37.5613 38.112 38.8389 37.3232 40.2557 37.2332C41.6725 37.1429 43.0395 37.7642 44.1052 38.9816C45.1347 40.1577 45.7623 41.7602 45.8724 43.4939C45.9825 45.2276 45.5626 46.8966 44.6901 48.1934C43.7869 49.5358 42.5092 50.3246 41.0925 50.4146C41.0043 50.4202 40.9165 50.423 40.8289 50.4229ZM40.5214 38.3448C40.4565 38.3448 40.3916 38.3469 40.3266 38.351C39.2648 38.4184 38.292 39.0323 37.5873 40.0796C36.8519 41.1726 36.499 42.5944 36.5935 44.083C36.7795 47.0129 38.6575 49.3029 40.8259 49.303C40.8909 49.303 40.9561 49.301 41.0215 49.2968C42.0833 49.2294 43.0562 48.6155 43.7608 47.5682C44.4962 46.4752 44.8492 45.0534 44.7546 43.5648C44.6601 42.0762 44.1302 40.7105 43.2625 39.7193C42.4819 38.8276 41.5153 38.3448 40.5214 38.3448Z" fill="#373780"/>
<path d="M30.9741 55.1396C30.7421 55.1383 30.5115 55.1026 30.2899 55.0337C30.2485 55.0211 30.2086 55.0038 30.1712 54.982C29.5488 54.6205 29.1529 54.0195 29.0262 53.2441C28.8541 52.1905 29.1981 51.0218 29.517 50.2268C29.8916 49.2931 30.4352 48.3714 30.971 47.7613C31.4541 47.2111 32.2475 47.0588 32.8165 47.4069C33.9162 48.0676 34.8509 48.9703 35.5495 50.0464C36.1681 51.023 36.4611 52.0085 36.3745 52.8213C36.2935 53.5825 35.8675 54.152 35.2059 54.3837C34.2883 54.7052 33.5098 54.3044 33.0102 53.9006C32.5896 54.5262 31.9039 55.1395 30.9741 55.1396ZM30.6781 53.9793C31.7703 54.2515 32.3225 52.8292 32.3459 52.7674C32.3816 52.6728 32.4422 52.5896 32.5213 52.5266C32.6004 52.4636 32.6951 52.4232 32.7953 52.4096C32.8955 52.396 32.9975 52.4098 33.0905 52.4494C33.1836 52.4891 33.2641 52.5531 33.3237 52.6349C33.3295 52.6426 34.0493 53.6023 34.8357 53.3267C34.9957 53.2706 35.2138 53.145 35.2609 52.7027C35.3831 51.5549 34.2836 49.6175 32.232 48.3623C32.1286 48.299 31.9326 48.3636 31.8125 48.5004C30.9582 49.4731 29.9054 51.6796 30.1315 53.0635C30.2003 53.4843 30.3793 53.7846 30.6781 53.9793V53.9793Z" fill="#373780"/>
<path d="M44.5257 31.5104C44.5631 32.2327 44.3169 32.7646 43.795 33.0922C43.7241 33.1372 43.0125 33.4877 39.8541 32.1299C38.0612 31.3588 36.263 30.3659 35.6541 29.9461C34.7588 29.3289 33.8612 29.2801 33.1907 29.812C32.1346 30.6509 31.9297 32.6838 32.7031 34.6474C33.5351 36.7588 33.8963 39.7808 33.0284 40.9809C32.7541 41.3596 32.38 41.5219 31.8527 41.4929C30.7288 41.4289 30.3455 40.6403 29.8891 39.444C29.6826 38.9045 29.4883 38.3948 29.1546 38.0435C29.0641 37.9483 28.9418 37.8898 28.8109 37.8791C28.6801 37.8684 28.5499 37.9063 28.4452 37.9856C27.8326 38.4511 27.3061 38.6012 26.8801 38.4313C26.2446 38.1776 25.7715 37.1901 25.6335 36.3451L25.6175 36.2491C25.4004 34.9103 25.1025 33.0762 22.0081 30.513C20.4545 29.226 18.3514 28.9951 16.5197 29.911C14.7382 30.8018 13.6867 32.5185 13.7774 34.3914C13.8749 36.4121 12.8935 37.8751 11.8732 38.2759C11.5692 38.3955 11.144 38.4641 10.8453 38.1098C10.3035 37.4682 10.4049 36.9958 10.6662 36.0723C10.8087 35.5671 10.971 34.9941 10.971 34.3228C10.971 33.5494 10.5108 32.9818 9.85094 32.9414C8.92668 32.885 7.86831 33.8664 7.58486 36.1858C7.58333 36.1942 7.58257 36.2026 7.58181 36.211C7.45151 37.978 7.12234 38.4915 6.93871 38.6409C6.80308 38.7506 6.63849 38.7415 6.29637 38.695C5.89482 38.6401 5.22276 38.5479 4.84711 39.2367C4.38384 40.0833 3.88246 41.8312 3.63635 42.7471C1.95774 41.9531 1.31845 40.1663 1.29407 38.6637C1.25597 36.3626 2.50026 34.8951 3.74912 34.4607C3.78569 34.4478 3.82227 34.4356 3.85884 34.4234C2.60008 35.8772 2.43092 38.2119 2.86448 38.7117C3.42376 39.3571 4.3686 35.9892 5.50926 35.5222C6.65069 35.0543 8.40473 32.1718 10.2174 32.4293C12.0294 32.6876 11.5997 34.0218 12.7182 32.9894C13.8368 31.9562 14.9554 26.3199 21.7109 28.6866C28.4665 31.0525 27.4341 33.9289 29.198 34.793C30.962 35.657 31.823 32.4728 30.9193 30.7088C30.0156 28.9441 32.1651 25.7286 35.7159 28.1113C38.0086 29.6497 38.2936 28.9487 37.9667 28.0816L38.0764 28.0366C38.1145 28.156 38.1932 28.2582 38.2989 28.3254C39.7307 29.2352 40.8043 29.5224 41.5891 29.5224C41.9613 29.5283 42.3303 29.4529 42.6703 29.3015C42.8656 29.212 43.0458 29.0927 43.2045 28.9479C43.8224 29.3853 44.4716 30.4528 44.5257 31.5104Z" fill="url(#paint0_linear_5378_64961)"/>
<path d="M42.8807 27.3476C42.8373 27.6204 42.7275 27.9503 42.4654 28.1759C41.9031 28.2261 41.0786 28.0463 40.0637 27.0939C38.0902 25.2408 36.212 26.1902 37.1065 26.8477C37.4235 27.0801 37.7869 27.6059 37.9668 28.0814C38.2937 28.9485 38.0087 29.6495 35.7159 28.1111C32.1652 25.7284 30.0157 28.9439 30.9193 30.7086C31.823 32.4726 30.962 35.6568 29.1981 34.7928C27.4341 33.9287 28.4666 31.0523 21.711 28.6864C14.9554 26.3197 13.8368 31.956 12.7183 32.9892C11.5997 34.0217 12.0295 32.6875 10.2175 32.4291C8.40478 32.1716 6.65074 35.0541 5.50931 35.522C4.36865 35.9891 3.42381 39.3569 2.86453 38.7116C2.43097 38.2117 2.60013 35.877 3.85889 34.4232C4.24521 34.2929 4.65438 34.1741 5.08566 34.0483C6.13641 33.7428 7.22297 33.4266 8.05656 32.9099C8.83224 32.4299 9.30085 31.8196 9.45782 31.0881C10.1116 31.1811 11.2538 32.2928 12.8044 29.9337C14.7832 26.9217 18.1473 24.8224 22.0158 26.8188C25.885 28.8151 30.8523 28.0105 31.8086 26.05C32.7671 24.0849 31.9046 22.519 31.7057 21.7037C31.5632 21.1162 31.7651 20.9189 33.2426 21.242C33.1565 22.6623 34.7056 24.1252 37.1065 24.5984C38.7493 24.9223 40.7868 25.3688 41.9435 25.7719C41.9465 25.7749 41.9503 25.7772 41.9534 25.7802C42.553 26.2755 42.8555 26.7792 42.8807 27.3476ZM36.599 25.416C37.6064 26.018 37.9363 25.32 37.1065 25.131C36.1533 24.9146 35.5917 24.8133 36.599 25.416ZM28.5093 31.6123C29.8435 31.1818 30.1018 31.2679 29.0259 30.0632C28.3325 29.2868 27.1758 32.0421 28.5093 31.6123ZM3.73698 35.7856C4.11263 35.8717 5.07727 35.4694 4.4136 34.965C3.90613 34.5802 3.36133 35.6995 3.73698 35.7856Z" fill="#FF83AB"/>
<path d="M40.0636 27.0938C41.0786 28.0463 41.903 28.2261 42.4654 28.1758C42.3928 28.2393 42.3114 28.2919 42.2238 28.332C41.5144 28.6589 40.293 28.3282 38.8712 27.4245C38.7787 27.3658 38.6704 27.337 38.561 27.342C38.4516 27.3469 38.3464 27.3854 38.2596 27.4522C38.1728 27.519 38.1087 27.6109 38.0759 27.7154C38.0432 27.8199 38.0433 27.932 38.0764 28.0364L37.9667 28.0813C37.7869 27.6058 37.4234 27.0801 37.1064 26.8477C36.2119 26.1901 38.0901 25.2407 40.0636 27.0938Z" fill="#FF83AB"/>
<path d="M41.9436 25.7716C40.7869 25.3685 38.7494 24.922 37.1066 24.5982C34.7056 24.125 33.1566 22.662 33.2427 21.2417C33.9383 21.3941 34.4321 21.4124 34.7704 21.3385C35.1049 22.5279 36.7835 23.2403 38.5505 23.9909C39.7979 24.5204 41.0871 25.0683 41.9436 25.7716Z" fill="#FFFFCC"/>
<path d="M37.1066 25.1311C37.9364 25.32 37.6064 26.018 36.5991 25.416C35.5918 24.8133 36.1534 24.9147 37.1066 25.1311Z" fill="#FFFFCC"/>
<path d="M34.7103 20.8974C34.7099 21.0465 34.7301 21.195 34.7705 21.3386C34.4322 21.4125 33.9384 21.3942 33.2427 21.2418C33.3098 20.1339 32.6743 18.6359 31.0818 17.9272C32.0586 18.1025 33.1322 18.5223 33.8561 19.1654C34.423 19.6691 34.7103 20.2512 34.7103 20.8974Z" fill="#FFFFCC"/>
<path d="M31.0816 17.9273C32.6741 18.6359 33.3096 20.134 33.2426 21.2419C31.7651 20.9188 31.5632 21.1161 31.7057 21.7036H31.7019C31.561 21.1016 31.2888 20.5383 30.9047 20.0539C30.5205 19.5695 30.034 19.1761 29.48 18.9019C29.6118 18.5742 29.7718 18.2085 29.9593 17.8366C30.3355 17.8272 30.7117 17.8576 31.0816 17.9273Z" fill="#FDE75D"/>
<path d="M31.7057 21.7039C31.9046 22.5192 32.7671 24.085 31.8085 26.0502C30.8523 28.0107 25.885 28.8153 22.0158 26.819C18.1473 24.8226 14.7832 26.9218 12.8044 29.9339C11.2538 32.2929 10.1116 31.1812 9.4578 31.0883C9.51234 30.8289 9.52978 30.5631 9.50961 30.2989C9.50485 30.229 9.48635 30.1607 9.45517 30.0979C9.42399 30.0352 9.38075 29.9792 9.32792 29.9332C9.27509 29.8871 9.2137 29.852 9.14726 29.8297C9.08083 29.8074 9.01066 29.7984 8.94076 29.8033C8.87085 29.8081 8.8026 29.8267 8.73988 29.858C8.67717 29.8892 8.62124 29.9326 8.57528 29.9855C8.52932 30.0383 8.49424 30.0998 8.47204 30.1662C8.44984 30.2327 8.44096 30.3029 8.44591 30.3728C8.45361 30.4774 8.45208 30.5824 8.44134 30.6867C7.81424 31.0578 6.80159 31.5241 6.33298 31.0098C5.72645 30.3438 6.04724 29.2032 7.92472 28.2949C8.20483 28.3712 8.49392 28.4093 8.78422 28.4084C8.85966 28.4084 8.93585 28.4061 9.01205 28.4008C10.9711 28.2728 12.4942 27.7958 14.4845 25.7362C14.5332 25.6858 14.5715 25.6264 14.5972 25.5612C14.6229 25.496 14.6355 25.4264 14.6343 25.3564C14.6331 25.2863 14.6181 25.2172 14.5902 25.1529C14.5623 25.0887 14.5219 25.0305 14.4715 24.9819C14.4634 24.9734 14.4545 24.9658 14.4449 24.959C14.9516 24.3997 15.4141 23.8694 15.8103 23.3848C15.8111 23.3848 15.8118 23.3856 15.8126 23.3863C15.8678 23.4294 15.931 23.4612 15.9985 23.4798C16.066 23.4985 16.1365 23.5037 16.206 23.495C16.2755 23.4864 16.3426 23.4641 16.4035 23.4295C16.4644 23.3949 16.5179 23.3486 16.5608 23.2934C17.0896 22.616 17.6131 21.8692 18.1625 21.0105C19.4677 18.9715 20.8964 17.6388 24.3298 16.8692C25.2638 16.7559 26.2054 16.7192 27.1453 16.7595C27.5911 16.7984 27.9088 16.9386 28.0886 17.1778C28.2502 17.3927 28.3858 17.7904 28.3058 18.5257C27.4627 18.3884 26.5977 18.5131 25.8277 18.8829C25.0577 19.2528 24.4197 19.85 23.9999 20.5939C23.5801 21.3378 23.3986 22.1927 23.48 23.043C23.5614 23.8934 23.9018 24.6982 24.4552 25.349C25.0086 25.9997 25.7483 26.465 26.5745 26.682C27.4007 26.899 28.2736 26.8573 29.0753 26.5625C29.877 26.2677 30.569 25.734 31.0578 25.0334C31.5466 24.3328 31.8086 23.4991 31.8085 22.6449C31.8085 22.3282 31.7727 22.0126 31.7019 21.7039H31.7057ZM7.28239 29.9247C8.07102 30.0634 8.436 29.271 7.81576 28.9891C7.58565 28.8847 6.49451 29.7861 7.28239 29.9247Z" fill="#FDE75D"/>
<path d="M30.7418 22.6446C30.742 22.804 30.7298 22.9633 30.7052 23.1208C30.4835 22.3969 29.8313 22.4061 29.2407 21.8544C28.5976 21.2525 28.843 20.5416 29.2819 20.0112C29.7284 20.2905 30.0967 20.6786 30.3521 21.1393C30.6075 21.5999 30.7416 22.1179 30.7418 22.6446Z" fill="#FFFFCC"/>
<path d="M30.7054 23.1209C30.6037 23.7764 30.2941 24.3819 29.8222 24.8482C29.6752 24.657 29.4009 24.4886 29.1121 24.356C28.2907 23.9781 26.3583 26.3623 25.4973 23.8226C24.9472 22.1981 25.2565 20.8647 26.0109 19.9976C26.6345 19.6145 27.3734 19.4639 28.0972 19.5724C28.0888 19.6029 28.0804 19.6341 28.0712 19.6661C28.0408 19.7659 28.0232 19.8307 28.0171 19.8528C27.9799 19.9881 27.9974 20.1326 28.066 20.255C28.1347 20.3774 28.2488 20.4678 28.3837 20.5066C28.4317 20.5207 28.4814 20.5278 28.5315 20.5279C28.6461 20.5278 28.7577 20.4907 28.8496 20.4222C28.9416 20.3537 29.009 20.2575 29.042 20.1477C29.0519 20.1149 29.0618 20.0814 29.0717 20.0486C29.0824 20.0136 29.0969 19.9678 29.1136 19.9137C29.1144 19.913 29.1144 19.9137 29.1144 19.9137C29.1715 19.9442 29.2271 19.977 29.282 20.0113C28.8431 20.5416 28.5978 21.2525 29.2409 21.8545C29.8314 22.4061 30.4836 22.397 30.7054 23.1209ZM26.8178 24.5549C27.3908 24.5983 27.7078 23.8668 26.8178 23.6512C26.3515 23.5384 26.2448 24.5122 26.8178 24.5549Z" fill="#E5606D"/>
<path d="M29.1121 24.356C29.4008 24.4886 29.6752 24.657 29.8222 24.8482C29.5114 25.1571 29.1387 25.3966 28.7287 25.5512C28.3186 25.7057 27.8805 25.7717 27.4432 25.7449C27.0058 25.718 26.5791 25.5989 26.191 25.3954C25.803 25.1918 25.4624 24.9085 25.1917 24.5639C24.9209 24.2194 24.7262 23.8214 24.6202 23.3962C24.5143 22.9711 24.4995 22.5283 24.5769 22.097C24.6542 21.6657 24.822 21.2556 25.0692 20.8938C25.3163 20.532 25.6372 20.2265 26.0109 19.9976C25.2565 20.8647 24.9472 22.1981 25.4973 23.8226C26.3583 26.3623 28.2907 23.9781 29.1121 24.356Z" fill="#CE495C"/>
<path d="M29.0259 30.0631C30.1018 31.2677 29.8435 31.1816 28.5093 31.6121C27.1758 32.0419 28.3325 29.2866 29.0259 30.0631Z" fill="url(#paint1_linear_5378_64961)"/>
<path d="M26.8178 23.6512C27.7077 23.8668 27.3908 24.5983 26.8178 24.5549C26.2448 24.5122 26.3514 23.5384 26.8178 23.6512Z" fill="#CE495C"/>
<path d="M25.5551 14.5951L26.4557 15.6755H26.4298C25.6759 15.6772 24.9228 15.7232 24.1744 15.8135C22.1277 16.0565 19.9645 16.6166 17.8417 17.4646C14.5881 18.7661 11.7772 20.5917 9.80828 22.6689L9.72446 22.2643L9.5393 21.3636C9.49463 21.1489 9.50292 20.9265 9.56345 20.7157C9.62399 20.5048 9.73496 20.3119 9.88676 20.1536C9.918 20.1216 9.94924 20.0888 9.98124 20.0568C11.6812 18.3188 14.1119 16.7644 16.8435 15.6725C19.2925 14.6941 21.8534 14.144 24.1088 14.1089C24.185 14.1082 24.2612 14.1074 24.3367 14.1074C24.4045 14.1074 24.4723 14.1074 24.5401 14.1089C24.7343 14.112 24.9256 14.1571 25.1008 14.241C25.276 14.3249 25.4309 14.4457 25.5551 14.5951Z" fill="#FFBF5C"/>
<path d="M17.8615 7.33283L22.9697 13.0956C20.8789 13.2609 18.6539 13.8004 16.448 14.6828C14.0425 15.6444 11.8519 16.9542 10.1443 18.44L10.7234 3.83389C10.8438 2.09279 11.0388 1.75296 11.6446 1.48932C11.9646 1.34988 12.3189 1.39941 12.6984 1.63714C13.2965 2.0105 15.7958 4.42974 17.5498 6.17998L17.5445 6.18531C16.794 6.92442 15.9162 7.77401 15.1291 8.91849C14.2886 10.1392 13.9183 11.66 14.1873 11.7789C14.2574 11.8094 14.5896 11.0444 15.4933 9.86104C16.8945 8.02622 17.3258 7.77325 17.8615 7.33283ZM13.2882 13.8324C14.009 13.9269 13.8779 13.3585 13.1906 13.0407C12.575 12.7557 12.5673 13.7372 13.2882 13.8324Z" fill="#FFBF5C"/>
<path d="M18.2379 18.4553C18.5602 18.3265 18.883 18.2049 19.2064 18.0903C18.4398 18.7616 17.8348 19.5442 17.2641 20.4349C16.7323 21.2654 16.2271 21.9863 15.7196 22.6377C15.665 22.7076 15.6287 22.79 15.6141 22.8774C15.5994 22.9648 15.6069 23.0545 15.6358 23.1384C15.0212 23.7175 14.3669 24.253 13.6775 24.7408C11.1966 26.4773 9.65055 26.3958 9.51112 26.0498C9.31605 25.5652 10.696 25.502 11.4313 24.356C12.0058 23.4614 13.6981 21.4156 15.2883 19.8581C16.2406 19.3281 17.2258 18.8595 18.2379 18.4553ZM12.1749 24.356C12.9765 24.34 13.4345 23.2641 13.055 23.3502C12.6748 23.4363 11.3734 24.3712 12.1749 24.356Z" fill="#A4E2E7"/>
<path d="M15.636 23.1387C15.6692 23.2358 15.7298 23.3213 15.8105 23.3848C15.4143 23.8694 14.9517 24.3997 14.445 24.959C14.3564 24.8836 14.2456 24.8393 14.1294 24.833C14.0132 24.8267 13.8982 24.8586 13.8019 24.924L13.6777 24.7411C14.3671 24.2533 15.0214 23.7179 15.636 23.1387Z" fill="#A4E2E7"/>
<path d="M13.6776 24.7411L13.8018 24.9239C13.7712 24.9446 13.7428 24.9683 13.7172 24.9948C11.9479 26.8266 10.7211 27.2205 8.94271 27.3363C8.47112 27.369 8.00227 27.242 7.61156 26.9759C7.42476 26.8446 7.26569 26.6778 7.14344 26.4849C7.0212 26.2921 6.93817 26.077 6.89912 25.852C6.653 24.5651 7.68013 23.6225 8.81089 23.112L8.98005 23.9303C9.00017 24.0291 9.04797 24.1201 9.11786 24.1926C9.18775 24.2652 9.27684 24.3164 9.37475 24.3403C9.41635 24.3508 9.45908 24.3562 9.50199 24.3563C9.5811 24.3562 9.65921 24.3385 9.73064 24.3045C9.80207 24.2705 9.86504 24.221 9.91498 24.1597C11.2019 22.584 13.0832 21.089 15.2884 19.8584C13.6981 21.4159 12.0058 23.4617 11.4313 24.3563C10.696 25.5023 9.31607 25.5655 9.51114 26.0501C9.65058 26.3961 11.1966 26.4776 13.6776 24.7411Z" fill="url(#paint2_linear_5378_64961)"/>
<path d="M13.1908 13.041C13.8781 13.3587 14.0091 13.9271 13.2883 13.8326C12.5675 13.7374 12.5751 12.756 13.1908 13.041Z" fill="#FFBF5C"/>
<path d="M13.0552 23.3501C13.4346 23.264 12.9767 24.3399 12.1751 24.3559C11.3735 24.3712 12.675 23.4362 13.0552 23.3501Z" fill="url(#paint3_linear_5378_64961)"/>
<path d="M10.7097 41.6627C10.8987 41.8547 11.3048 42.574 10.9977 45.1014C10.8674 46.1804 10.3539 46.8288 9.65973 46.7953C9.01663 46.7641 8.31943 46.1377 8.29276 45.039C8.25314 43.3436 9.00825 42.3896 9.33513 42.0582C9.68716 41.6993 10.0377 41.54 10.2297 41.54H10.232C10.2521 41.5402 10.2722 41.5391 10.2922 41.537C10.5268 41.5126 10.635 41.5865 10.7097 41.6627Z" fill="url(#paint4_linear_5378_64961)"/>
<path d="M7.81576 28.9889C8.436 29.2708 8.07101 30.0632 7.28238 29.9246C6.49451 29.7859 7.58564 28.8845 7.81576 28.9889Z" fill="url(#paint5_linear_5378_64961)"/>
<path d="M7.0852 27.9183C7.34358 28.0871 7.62695 28.2141 7.92489 28.2947C6.0474 29.203 5.72661 30.3436 6.33314 31.0096C6.80175 31.5239 7.8144 31.0576 8.4415 30.6865C8.32035 31.86 6.98767 32.3758 5.00579 32.961C5.00344 32.9576 5.0009 32.9543 4.99817 32.9511C4.59131 32.4541 4.34193 31.8471 4.28194 31.2077C4.22194 30.5682 4.35406 29.9254 4.66139 29.3615C5.178 28.3999 6.07712 27.868 7.0852 27.9183Z" fill="url(#paint6_linear_5378_64961)"/>
<path d="M4.41371 34.965C5.07739 35.4694 4.11274 35.8718 3.73709 35.7857C3.36144 35.6996 3.90624 34.5802 4.41371 34.965Z" fill="#FF83AB"/>
<path d="M34.9131 27.0917L36.325 26.5327" stroke="#00D0E6" stroke-width="0.8" stroke-linecap="round" stroke-linejoin="round"/>
<path d="M23.4866 29.5996L24.9779 29.8861" stroke="#00D0E6" stroke-width="0.8" stroke-linecap="round" stroke-linejoin="round"/>
<path d="M9.81494 29.4097L11.3062 29.6962" stroke="#00D0E6" stroke-width="0.8" stroke-linecap="round" stroke-linejoin="round"/>
<path d="M2.58887 39.9212L3.39351 38.6333" stroke="#00D0E6" stroke-width="0.8" stroke-linecap="round" stroke-linejoin="round"/>
<path d="M20.2837 22.9656L21.3808 22.2393" stroke="#FF549A" stroke-width="0.8" stroke-linecap="round" stroke-linejoin="round"/>
<path d="M31.1824 35.5444L32.0207 36.5586" stroke="#FF549A" stroke-width="0.8" stroke-linecap="round" stroke-linejoin="round"/>
<path d="M31.7781 19.3433L32.685 19.538" stroke="#FF549A" stroke-width="0.8" stroke-linecap="round" stroke-linejoin="round"/>
<path d="M7.88818 25.3626L9.19958 25.2554" stroke="#FF549A" stroke-width="0.8" stroke-linecap="round" stroke-linejoin="round"/>
<path d="M14.6343 20.9336H15.7914" stroke="#FFD100" stroke-width="0.8" stroke-linecap="round" stroke-linejoin="round"/>
<path d="M16.7971 28.5231L17.7363 27.8472" stroke="#FFD100" stroke-width="0.8" stroke-linecap="round" stroke-linejoin="round"/>
<path d="M38.908 29.6948L39.9558 30.1857" stroke="#FFD100" stroke-width="0.8" stroke-linecap="round" stroke-linejoin="round"/>
<path d="M5.48022 34.7584L6.6289 34.6187" stroke="#FFD100" stroke-width="0.8" stroke-linecap="round" stroke-linejoin="round"/>
<path d="M11.4316 1.00049C11.3985 1.61809 11.1262 4.8482 11.1692 5.83786C11.2122 6.82752 11.2891 11.2936 11.1646 13.0407C11.0401 14.7878 10.825 19.0046 10.825 19.0046" stroke="#FFE293" stroke-width="0.4" stroke-linecap="round" stroke-linejoin="round"/>
<path d="M12.7574 1.00049C13.0393 1.63723 12.7574 3.90157 12.7574 6.91357C12.7574 9.92557 12.7125 13.4591 12.7125 14.6613C12.7125 15.8635 12.5422 17.3278 12.5422 17.3278" stroke="#FFE293" stroke-width="0.4" stroke-linecap="round" stroke-linejoin="round"/>
<path d="M15.8791 8.71446C15.8791 8.71446 15.7947 7.53759 15.8807 7.02125C15.9668 6.5049 15.8652 4.52071 15.8807 4.03076" stroke="#FFE293" stroke-width="0.4" stroke-linecap="round" stroke-linejoin="round"/>
<path d="M17.6169 7.05713C17.6282 7.44478 17.76 10.1598 17.8588 11.1131C17.9565 12.0553 17.8588 14.7745 17.8588 14.7745" stroke="#FFE293" stroke-width="0.4" stroke-linecap="round" stroke-linejoin="round"/>
<path d="M19.28 8.57031C19.5101 9.19277 19.5439 12.4835 19.4793 14.2417" stroke="#FFE293" stroke-width="0.4" stroke-linecap="round" stroke-linejoin="round"/>
<path d="M21.2593 10.5708C21.5582 11.5028 21.3712 13.5439 21.3798 13.8323" stroke="#FFE293" stroke-width="0.4" stroke-linecap="round" stroke-linejoin="round"/>
<path d="M17.2662 7.01051C17.2701 6.71272 17.2468 5.41846 17.2468 5.41846" stroke="#FFE293" stroke-width="0.4" stroke-linecap="round" stroke-linejoin="round"/>
<path d="M9.56323 16.7684C10.9478 16.683 12.1079 17.5919 12.1079 17.5919" stroke="#FFE293" stroke-width="0.4" stroke-linecap="round" stroke-linejoin="round"/>
<path d="M9.73804 15.2178C10.2754 15.127 14.1676 16.015 14.411 16.6491C14.411 16.6491 14.7089 13.5827 14.5798 13.0404C14.4507 12.4981 14.3459 9.40892 14.5236 7.68777C14.7012 5.96663 14.3561 2.77953 14.4907 2.18701" stroke="#FFE293" stroke-width="0.4" stroke-linecap="round" stroke-linejoin="round"/>
<path d="M9.81494 13.2793C10.6528 13.1957 15.7463 14.7631 16.2951 15.2181C16.2559 14.6277 16.2546 13.5448 16.2896 12.8945C16.3246 12.2443 16.1836 9.27491 16.1405 8.71436" stroke="#FFE293" stroke-width="0.4" stroke-linecap="round" stroke-linejoin="round"/>
<path d="M9.88916 11.4059C10.7818 11.1304 12.9246 12.0332 13.7133 12.2018C14.5019 12.3704 15.6891 12.9171 16.295 13.1743C17.8962 13.8539 18.6764 14.4676 18.6764 14.4676" stroke="#FFE293" stroke-width="0.4" stroke-linecap="round" stroke-linejoin="round"/>
<path d="M10.0933 9.40935C10.7602 9.30177 12.4877 9.7966 12.8825 9.7966C13.2774 9.7966 14.2781 10.1753 14.612 10.399C14.946 10.6227 14.9555 10.0027 14.9555 10.0027C14.9555 10.0027 15.6295 10.7877 16.2499 10.9161C16.8703 11.0444 19.2583 12.3179 20.8289 13.8326" stroke="#FFE293" stroke-width="0.4" stroke-linecap="round" stroke-linejoin="round"/>
<path d="M10.0933 7.51611C10.9538 7.51611 13.8703 7.75363 14.4882 8.09743C15.1061 8.44123 15.8419 8.91454 15.8419 8.91454C15.8419 8.91454 17.6663 9.25877 18.1181 9.603C18.5699 9.94723 21.3424 11.1408 22.3779 11.9664" stroke="#FFE293" stroke-width="0.4" stroke-linecap="round" stroke-linejoin="round"/>
<path d="M10.2173 5.64853C10.6594 5.44554 15.0847 5.88068 16.8489 7.34365" stroke="#FFE293" stroke-width="0.4" stroke-linecap="round" stroke-linejoin="round"/>
<path d="M10.1907 3.80518C10.7233 3.83411 12.756 4.03074 13.5331 4.03074C14.3102 4.03074 17.0401 5.27527 17.9284 5.80503" stroke="#FFE293" stroke-width="0.4" stroke-linecap="round" stroke-linejoin="round"/>
<path d="M10.3921 2.26608C11.0379 2.02897 14.3829 2.36899 14.7825 2.74656" stroke="#FFE293" stroke-width="0.4" stroke-linecap="round" stroke-linejoin="round"/>
<g opacity="0.76">
<path opacity="0.76" d="M20.8286 15.2178C21.4961 15.3473 21.5387 15.8205 21.0625 15.8113C20.5855 15.8014 20.5642 15.1667 20.8286 15.2178Z" fill="#F2A540"/>
<path opacity="0.76" d="M17.7594 16.3448C19.0197 15.9341 20.9094 16.0705 22.1057 16.7044C20.7183 17.011 19.3584 17.4309 18.0398 17.9601C14.3397 19.4399 11.3292 21.5848 9.502 23.8227L9.01663 21.472C8.95469 21.1724 8.9665 20.8623 9.05106 20.5683C9.13561 20.2742 9.29037 20.0052 9.502 19.7843C9.53781 19.7469 9.57438 19.7096 9.61172 19.6723C10.2864 18.9892 11.0189 18.3656 11.8008 17.8085C10.6488 18.6985 10.8507 20.7024 11.6424 19.9946C12.4599 19.2631 16.4618 16.7669 17.7594 16.3448Z" fill="#F2A540"/>
<path opacity="0.76" d="M19.2796 14.2417C19.2796 14.2417 19.086 14.3171 18.7797 14.4367C18.779 14.4367 18.779 14.4367 18.7782 14.4375C18.0734 14.6455 17.3602 14.8924 16.6455 15.1781C16.042 15.4197 15.4593 15.6795 14.8975 15.9576C14.8959 15.9578 14.8943 15.9583 14.8929 15.9591C13.8569 16.4684 12.8625 17.0585 11.919 17.7238C11.9136 17.727 11.9085 17.7305 11.9037 17.7345C11.8702 17.7566 11.8375 17.7802 11.8062 17.8046C11.8041 17.8053 11.8023 17.8067 11.8009 17.8084C11.0189 18.3655 10.2865 18.9891 9.61175 19.6722L9.56299 19.6249L10.1908 3.80501C10.3105 2.06925 10.5124 1.40025 11.4313 1.00021C11.9129 0.790669 12.4539 0.854674 12.9819 1.18461C11.791 0.904968 11.413 4.84814 11.4313 6.01014C11.4496 7.17137 11.5136 15.3038 12.5423 15.3899C13.5709 15.476 16.1601 14.0565 17.2665 13.8325C18.3728 13.6085 19.2796 14.2417 19.2796 14.2417Z" fill="#F2A540"/>
<path opacity="0.76" d="M17.8029 7.38037C18.0719 7.87412 18.478 8.74124 17.9019 8.57056C17.3945 8.41969 16.0656 9.4994 15.1672 10.3033C15.2671 10.1638 15.3753 10.016 15.4934 9.86133C16.8428 8.09433 17.2931 7.79412 17.8029 7.38037Z" fill="#F2A540"/>
<path opacity="0.76" d="M17.9286 5.80513C17.8037 5.92933 17.6749 6.05582 17.5446 6.18535C16.794 6.92446 15.9163 7.77405 15.1292 8.91852C14.7125 9.52894 14.3983 10.2033 14.1988 10.9149C13.4688 8.7928 15.8195 7.30544 15.9155 6.17011C16.0153 4.99592 12.9819 1.18457 12.9819 1.18457C13.7424 1.6608 16.8436 4.7239 17.9286 5.80513Z" fill="#FFFEE6"/>
</g>
<path d="M24.109 14.1362C24.0297 14.1363 23.9513 14.1195 23.8791 14.087C23.8068 14.0545 23.7422 14.007 23.6898 13.9476L17.597 7.07502C17.5482 7.02 17.5108 6.9559 17.4868 6.88639C17.4627 6.81688 17.4527 6.74333 17.4571 6.66992C17.4615 6.59652 17.4803 6.5247 17.5125 6.45857C17.5446 6.39244 17.5895 6.3333 17.6446 6.28451C17.6996 6.23573 17.7637 6.19826 17.8332 6.17425C17.9027 6.15024 17.9762 6.14015 18.0497 6.14456C18.1231 6.14898 18.1949 6.16781 18.261 6.19998C18.3271 6.23215 18.3863 6.27703 18.4351 6.33205L24.5278 13.2047C24.5994 13.2854 24.6461 13.3851 24.6623 13.4917C24.6786 13.5983 24.6637 13.7074 24.6195 13.8058C24.5753 13.9042 24.5035 13.9877 24.413 14.0463C24.3224 14.1049 24.2168 14.1361 24.109 14.1362Z" fill="#373780"/>
<path d="M14.1876 11.7791C13.918 11.6605 14.2886 10.1398 15.1292 8.91843C15.9167 7.77421 16.7941 6.92448 17.5442 6.18532C17.6753 6.05625 17.8033 5.92948 17.9284 5.805C17.9779 5.7554 18.0367 5.71604 18.1014 5.68918C18.1661 5.66231 18.2355 5.64847 18.3056 5.64844C18.3757 5.64841 18.4451 5.66219 18.5099 5.68899C18.5746 5.7158 18.6335 5.7551 18.683 5.80466C18.7326 5.85422 18.7719 5.91305 18.7987 5.97781C18.8255 6.04257 18.8393 6.11197 18.8392 6.18205C18.8392 6.25214 18.8254 6.32153 18.7985 6.38626C18.7716 6.45099 18.7323 6.50979 18.6827 6.55931C18.5561 6.68592 18.4262 6.81455 18.2929 6.9452C17.4809 7.74534 17.2406 7.5731 15.4934 9.86109C14.5899 11.0444 14.2575 11.8099 14.1876 11.7791Z" fill="#373780"/>
<path d="M9.56357 20.1848C9.55607 20.1848 9.54853 20.1846 9.541 20.1844C9.46751 20.1814 9.39532 20.1641 9.32855 20.1333C9.26177 20.1025 9.20172 20.0588 9.15182 20.0048C9.10192 19.9508 9.06314 19.8874 9.03772 19.8184C9.01229 19.7494 9.0007 19.6761 9.00361 19.6026L9.63111 3.78283C9.63135 3.77736 9.63162 3.77193 9.63201 3.7665C9.74342 2.15146 9.91326 1.05065 11.208 0.486973C11.8593 0.203344 12.5947 0.2826 13.2785 0.710064C14.2325 1.30651 18.2478 5.33014 18.7025 5.78698C18.8067 5.89235 18.865 6.03476 18.8644 6.183C18.8638 6.33124 18.8045 6.4732 18.6995 6.57777C18.5944 6.68235 18.4521 6.74099 18.3039 6.74086C18.1557 6.74072 18.0135 6.68182 17.9087 6.57706C16.1594 4.81967 13.3247 2.05982 12.6847 1.65975C12.3131 1.4274 11.9667 1.37834 11.6551 1.51385C11.061 1.77256 10.8695 2.10916 10.7499 3.83541L10.1228 19.647C10.117 19.7915 10.0556 19.9282 9.95138 20.0284C9.84715 20.1286 9.70819 20.1847 9.56357 20.1848Z" fill="#373780"/>
<path d="M9.50223 24.3825C9.37338 24.3825 9.24848 24.338 9.14858 24.2566C9.04868 24.1752 8.97989 24.0619 8.95379 23.9357L8.4684 21.5851C8.38808 21.1967 8.40342 20.7945 8.51312 20.4134C8.62281 20.0322 8.82355 19.6834 9.09805 19.3971C10.9075 17.5101 13.5143 15.827 16.4379 14.6579C19.2151 13.5474 22.0214 12.9803 24.5556 13.0157C24.9074 13.021 25.2539 13.1024 25.5714 13.2542C25.8888 13.406 26.1696 13.6248 26.3945 13.8954L28.0634 15.8964C28.1339 15.981 28.178 16.0846 28.19 16.1941C28.202 16.3036 28.1814 16.4143 28.1308 16.5121C28.0802 16.61 28.0019 16.6908 27.9057 16.7444C27.8094 16.798 27.6995 16.822 27.5896 16.8134C24.7997 16.5951 21.4822 17.1871 18.2481 18.4804C14.7939 19.8617 11.7642 21.9379 9.93598 24.1767C9.88345 24.241 9.81729 24.2928 9.74227 24.3284C9.66725 24.364 9.58526 24.3825 9.50223 24.3825ZM24.3366 14.1342C22.0305 14.1342 19.3828 14.6866 16.8538 15.6978C14.0751 16.809 11.6078 18.398 9.90641 20.1722C9.75762 20.3275 9.64882 20.5166 9.5894 20.7233C9.52997 20.93 9.52169 21.148 9.56528 21.3586L9.82446 22.6137C11.7943 20.5496 14.594 18.7354 17.8323 17.4405C20.7459 16.2754 23.738 15.6542 26.3989 15.6493L25.5343 14.6127C25.4128 14.4661 25.2609 14.3476 25.0892 14.2652C24.9175 14.1829 24.73 14.1387 24.5396 14.1356C24.4723 14.1347 24.4045 14.1342 24.3366 14.1342Z" fill="#373780"/>
<path d="M16.1402 23.5256C16.0353 23.5255 15.9326 23.496 15.8437 23.4404C15.7548 23.3848 15.6833 23.3054 15.6373 23.2112C15.5913 23.117 15.5727 23.0117 15.5836 22.9075C15.5945 22.8032 15.6344 22.7041 15.6988 22.6214C16.206 21.9704 16.7107 21.2506 17.2418 20.4209C18.6667 18.1952 20.3127 16.6455 24.1104 15.7981C24.2554 15.7658 24.4073 15.7923 24.5326 15.872C24.658 15.9516 24.7466 16.0778 24.779 16.2227C24.8113 16.3677 24.7847 16.5195 24.7051 16.6449C24.6255 16.7703 24.4993 16.8589 24.3544 16.8912C20.9167 17.6583 19.4892 18.9877 18.1851 21.0248C17.6352 21.8839 17.1109 22.6313 16.5823 23.3097C16.53 23.377 16.4629 23.4315 16.3863 23.4689C16.3096 23.5063 16.2255 23.5257 16.1402 23.5256Z" fill="#373780"/>
<path d="M8.78365 28.4346C7.29853 28.4347 6.09892 27.4835 5.82564 26.0577C5.56236 24.6841 6.24443 22.7592 9.03318 21.8549C9.17446 21.8091 9.32815 21.8213 9.46044 21.8888C9.59274 21.9563 9.6928 22.0736 9.73861 22.2149C9.78442 22.3562 9.77223 22.5099 9.70473 22.6422C9.63722 22.7745 9.51993 22.8745 9.37865 22.9203C8.06962 23.3448 6.64173 24.3659 6.9256 25.8469C7.13294 26.9287 8.11591 27.3637 8.94119 27.3094C10.7125 27.1938 11.9345 26.8011 13.6981 24.9759C13.8013 24.8691 13.9427 24.8077 14.0912 24.8051C14.2397 24.8026 14.3832 24.8591 14.49 24.9623C14.5968 25.0655 14.6582 25.2069 14.6608 25.3554C14.6633 25.504 14.6068 25.6474 14.5036 25.7542C12.5072 27.8203 10.9791 28.2987 9.01415 28.4271C8.93669 28.4321 8.8597 28.4346 8.78365 28.4346Z" fill="#373780"/>
<path d="M4.58602 33.8493C4.50318 33.8495 4.42135 33.8312 4.34644 33.7958C4.27154 33.7604 4.20544 33.7088 4.15293 33.6448C3.60813 32.9805 3.27385 32.1689 3.19283 31.3137C3.11181 30.4584 3.28775 29.5985 3.69813 28.8438C4.44469 27.454 5.84043 26.6867 7.34012 26.8414C7.4133 26.8489 7.4843 26.8708 7.54904 26.9057C7.61378 26.9407 7.671 26.988 7.71743 27.0451C7.76387 27.1022 7.7986 27.1678 7.81965 27.2383C7.84069 27.3088 7.84764 27.3828 7.8401 27.4559C7.83256 27.5291 7.81067 27.6001 7.77568 27.6648C7.74069 27.7295 7.6933 27.7867 7.6362 27.8331C7.5791 27.8795 7.51342 27.9142 7.44291 27.9352C7.37241 27.9562 7.29845 27.9631 7.22527 27.9555C6.16953 27.8466 5.22031 28.3769 4.68477 29.3738C4.37992 29.9331 4.24884 30.5706 4.30829 31.2048C4.36773 31.839 4.61501 32.441 5.01848 32.9339C5.0858 33.0159 5.12846 33.1153 5.14149 33.2205C5.15452 33.3258 5.13738 33.4326 5.09207 33.5285C5.04676 33.6244 4.97515 33.7055 4.88556 33.7623C4.79597 33.8191 4.69209 33.8493 4.58602 33.8493V33.8493Z" fill="#373780"/>
<path d="M28.5314 20.5544C28.4452 20.5543 28.3601 20.5344 28.2829 20.4961C28.2057 20.4579 28.1383 20.4023 28.086 20.3338C28.0338 20.2652 27.998 20.1855 27.9816 20.1009C27.9651 20.0163 27.9684 19.929 27.9911 19.8459C27.9973 19.8236 28.0154 19.7586 28.0459 19.6585C28.4683 18.1666 28.2943 17.4953 28.0675 17.194C27.852 16.9077 27.4348 16.7661 26.8249 16.774C26.8225 16.7741 26.8202 16.7741 26.8178 16.7741C26.6698 16.7741 26.5278 16.7156 26.4229 16.6113C26.3179 16.507 26.2585 16.3654 26.2576 16.2175C26.2567 16.0695 26.3144 15.9272 26.4181 15.8216C26.5217 15.7161 26.663 15.6558 26.8109 15.6541C27.7944 15.642 28.5203 15.9332 28.9623 16.5204C29.0566 16.646 29.1362 16.782 29.1997 16.9257C30.0814 15.3507 31.4537 13.796 33.346 14.1513C33.4918 14.1788 33.6208 14.2631 33.7046 14.3856C33.7884 14.5082 33.82 14.6589 33.7927 14.8048C33.7653 14.9507 33.6812 15.0798 33.5587 15.1636C33.4362 15.2475 33.2855 15.2793 33.1396 15.2521C30.7958 14.8136 29.3 19.3928 29.0951 20.0623C29.086 20.0933 29.0768 20.1245 29.0673 20.1558C29.0326 20.271 28.9617 20.3719 28.8652 20.4437C28.7687 20.5155 28.6517 20.5543 28.5314 20.5544Z" fill="#373780"/>
<path d="M27.6348 26.8453C26.804 26.8453 25.9919 26.5989 25.3011 26.1374C24.6104 25.6758 24.072 25.0198 23.7541 24.2523C23.4361 23.4847 23.353 22.6401 23.515 21.8253C23.6771 21.0105 24.0772 20.2621 24.6646 19.6746C25.2521 19.0872 26.0005 18.6871 26.8153 18.525C27.6301 18.363 28.4747 18.4462 29.2422 18.7641C30.0098 19.082 30.6658 19.6204 31.1274 20.3112C31.5889 21.0019 31.8353 21.814 31.8353 22.6448C31.834 23.7585 31.391 24.8261 30.6036 25.6136C29.8161 26.4011 28.7484 26.844 27.6348 26.8453ZM27.6348 19.5643C27.0255 19.5643 26.43 19.745 25.9234 20.0835C25.4168 20.422 25.022 20.9031 24.7888 21.466C24.5557 22.0288 24.4947 22.6482 24.6135 23.2458C24.7324 23.8433 25.0258 24.3922 25.4566 24.823C25.8874 25.2538 26.4363 25.5472 27.0338 25.6661C27.6314 25.7849 28.2508 25.7239 28.8136 25.4908C29.3765 25.2576 29.8576 24.8628 30.1961 24.3562C30.5346 23.8496 30.7153 23.2541 30.7153 22.6448C30.7143 21.8281 30.3895 21.0451 29.812 20.4676C29.2345 19.8901 28.4515 19.5653 27.6348 19.5643Z" fill="#373780"/>
<path d="M4.00253 44.0197C3.94619 44.0197 3.89017 44.0112 3.83636 43.9944C1.66991 43.3212 0.242882 41.2358 0.200851 38.6817C0.182258 37.5522 0.452297 36.4303 0.961202 35.5226C1.53089 34.5065 2.37105 33.7822 3.39085 33.4281C3.83507 33.2738 4.31546 33.134 4.78003 32.9988C7.04245 32.3403 8.51804 31.8018 8.41909 30.3743C8.41399 30.3009 8.42338 30.2272 8.44675 30.1575C8.47012 30.0877 8.507 30.0233 8.55528 29.9678C8.60357 29.9123 8.66231 29.8669 8.72816 29.8341C8.794 29.8013 8.86566 29.7818 8.93904 29.7767C9.01242 29.7716 9.08609 29.7811 9.15582 29.8044C9.22556 29.8278 9.29001 29.8647 9.34549 29.913C9.40096 29.9613 9.44638 30.0201 9.47914 30.0859C9.51191 30.1518 9.53137 30.2235 9.53644 30.2969C9.61265 31.3969 9.1196 32.2838 8.07089 32.933C7.23425 33.4509 6.14573 33.7678 5.09304 34.0742C4.6212 34.2115 4.1755 34.3412 3.75827 34.4862C2.51784 34.9169 1.28304 36.3756 1.3207 38.6633C1.34515 40.1489 1.97261 41.9136 3.61929 42.709C3.86808 41.7842 4.36487 40.0629 4.82355 39.2237C5.2087 38.5188 5.89179 38.6122 6.29987 38.6683C6.63441 38.7141 6.79425 38.7234 6.92171 38.6201C7.10265 38.4737 7.42558 37.9658 7.55558 36.2092C7.55625 36.2003 7.55712 36.1914 7.5582 36.1825C7.84441 33.8458 8.91535 32.8569 9.85296 32.9147C10.5269 32.9558 10.9976 33.5349 10.9976 34.3229C10.9976 34.9981 10.8352 35.5726 10.6919 36.0795C10.4335 36.9937 10.333 37.4612 10.8656 38.0925C11.1542 38.4346 11.5676 38.3677 11.8635 38.2513C12.8746 37.8539 13.8476 36.4009 13.7509 34.3928C13.66 32.5089 14.7165 30.7823 16.5078 29.8869C18.3494 28.9664 20.4636 29.1983 22.0254 30.4924C25.1269 33.0623 25.4259 34.9018 25.6442 36.2449L25.6598 36.3408C25.7968 37.178 26.2635 38.1563 26.8904 38.4064C27.3067 38.5724 27.8243 38.4237 28.4292 37.9645C28.539 37.8812 28.6756 37.8412 28.813 37.8524C28.9504 37.8635 29.0789 37.9249 29.1738 38.0249C29.5118 38.3806 29.7071 38.8924 29.9139 39.4343C30.1057 39.9371 30.3041 40.457 30.613 40.8433C30.9285 41.2379 31.323 41.4358 31.8544 41.4659C32.3727 41.4951 32.7387 41.336 33.007 40.9649C33.8693 39.7724 33.5079 36.7622 32.6787 34.6572C31.9011 32.6832 32.1096 30.6368 33.1744 29.7914C33.8548 29.2513 34.7641 29.2997 35.6692 29.9243C36.277 30.3436 38.073 31.3348 39.8647 32.105C43.0108 33.4575 43.7116 33.1136 43.7811 33.0699C44.2943 32.7478 44.5359 32.2234 44.4992 31.5113C44.4394 30.3519 43.6609 29.181 42.9995 28.8552C42.8767 28.7947 42.7804 28.6914 42.7286 28.5648C42.6768 28.4381 42.6731 28.2969 42.7183 28.1678C43.226 26.7178 42.3799 25.7163 39.5967 24.4723C39.4617 24.4113 39.3563 24.2993 39.3036 24.1608C39.251 24.0223 39.2553 23.8686 39.3158 23.7333C39.3763 23.5981 39.4879 23.4923 39.6262 23.4391C39.7645 23.386 39.9183 23.3898 40.0537 23.4498C41.5203 24.1053 44.4919 25.4337 43.9007 28.1012C44.828 28.7916 45.5513 30.1654 45.6177 31.4538C45.6751 32.5692 45.2344 33.48 44.3766 34.0185C43.3214 34.6811 41.0437 33.831 39.4223 33.1339C37.4794 32.2987 35.6546 31.275 35.0331 30.8461C34.5411 30.5066 34.15 30.4469 33.8708 30.6686C33.2995 31.1222 33.0796 32.6192 33.7207 34.2467C34.5041 36.2353 35.2023 39.8403 33.9146 41.6211C33.4224 42.3019 32.6886 42.6348 31.7912 42.5841C29.8757 42.4756 29.293 40.9486 28.8675 39.8336C28.7792 39.6022 28.6935 39.3777 28.6049 39.1892C28.0027 39.5311 27.2459 39.7541 26.4754 39.4467C25.3366 38.9924 24.7289 37.5871 24.5545 36.5217L24.5387 36.4246C24.3278 35.1272 24.0888 33.6566 21.3108 31.3548C19.8586 30.1517 18.1362 30.3251 17.0086 30.8888C15.6201 31.5828 14.8004 32.9048 14.8695 34.3389C14.9264 35.5186 14.6791 36.6288 14.1542 37.5497C13.6784 38.3846 13.0104 39.004 12.2732 39.2937C11.3988 39.6374 10.5526 39.4583 10.0096 38.8147C9.06976 37.7008 9.35898 36.6776 9.61417 35.7749C9.74366 35.3167 9.87761 34.8428 9.87761 34.3229C9.87761 34.1372 9.82367 34.035 9.78476 34.0326C9.57281 34.0181 8.88898 34.5545 8.67152 36.3057C8.54273 38.0274 8.22023 39.0101 7.62632 39.4908C7.10886 39.9096 6.53046 39.8303 6.14788 39.7779C6.03712 39.7583 5.92475 39.7491 5.81226 39.7506C5.81054 39.7534 5.80855 39.7567 5.80636 39.7608C5.33953 40.615 4.73839 42.8176 4.54617 43.5942C4.5161 43.7157 4.44623 43.8236 4.3477 43.9007C4.24917 43.9778 4.12765 44.0197 4.00253 44.0197L4.00253 44.0197Z" fill="#373780"/>
<path d="M35.6509 22.3565C35.5748 22.3567 35.4994 22.3412 35.4295 22.3111C35.3595 22.281 35.2965 22.2369 35.2442 22.1816C34.8721 21.7887 34.6835 21.3567 34.6835 20.8976C34.6835 20.2595 34.3991 19.6835 33.8384 19.1854C32.7367 18.2071 30.8235 17.7481 29.6823 17.8837C29.5349 17.9012 29.3864 17.8594 29.2697 17.7676C29.153 17.6757 29.0776 17.5412 29.0601 17.3937C29.0425 17.2462 29.0843 17.0978 29.1762 16.9811C29.268 16.8644 29.4025 16.789 29.55 16.7715C30.962 16.6037 33.2301 17.1473 34.5821 18.348C35.3811 19.0576 35.8035 19.9393 35.8035 20.8976C35.8035 21.0031 35.8298 21.1711 36.0574 21.4115C36.1327 21.491 36.183 21.5908 36.2022 21.6985C36.2213 21.8063 36.2085 21.9173 36.1652 22.0178C36.122 22.1184 36.0502 22.204 35.9588 22.2642C35.8674 22.3244 35.7603 22.3565 35.6509 22.3565Z" fill="#373780"/>
<path d="M9.70555 47.8898C9.67235 47.8898 9.63939 47.889 9.60668 47.8874C8.4711 47.8323 7.24164 46.8243 7.2 45.0646C7.16481 43.5768 7.65895 42.2013 8.55574 41.2907C9.07754 40.7609 9.67778 40.4549 10.2083 40.4468C10.4419 40.4191 10.6787 40.4451 10.9006 40.5229C11.1225 40.6007 11.3237 40.7282 11.4888 40.8957C12.1601 41.578 12.3547 42.9969 12.0835 45.2335C11.8449 47.2018 10.6761 47.8898 9.70555 47.8898ZM10.2293 41.5666C10.043 41.5666 9.70106 41.7239 9.35375 42.0766C9.02957 42.4057 8.27984 43.3532 8.31969 45.0381C8.34531 46.1212 9.02989 46.7381 9.66098 46.7688C10.3392 46.8016 10.8427 46.1618 10.9716 45.0988C11.2767 42.5822 10.8767 41.8705 10.6905 41.6813C10.6203 41.6099 10.5186 41.5404 10.2951 41.5636C10.2741 41.5658 10.2529 41.5663 10.232 41.5667L10.2293 41.5666Z" fill="#373780"/>
<path d="M41.5898 29.5487C40.7997 29.5487 39.7208 29.2603 38.2848 28.3474C38.2226 28.308 38.1688 28.2567 38.1265 28.1965C38.0842 28.1363 38.0542 28.0683 38.0381 27.9965C38.0221 27.9247 38.0204 27.8504 38.033 27.7779C38.0457 27.7054 38.0726 27.6361 38.1121 27.574C38.1516 27.5119 38.2029 27.4582 38.2631 27.4159C38.3234 27.3737 38.3914 27.3437 38.4632 27.3278C38.5351 27.3118 38.6094 27.3102 38.6819 27.3229C38.7543 27.3357 38.8236 27.3627 38.8856 27.4022C40.2993 28.3009 41.5121 28.6312 42.213 28.3081C42.5722 28.1425 42.7904 27.8042 42.8614 27.3028C42.8822 27.1557 42.9606 27.023 43.0793 26.9337C43.198 26.8444 43.3473 26.806 43.4944 26.8268C43.6414 26.8476 43.7742 26.926 43.8634 27.0447C43.9527 27.1634 43.9911 27.3127 43.9703 27.4598C43.8461 28.3369 43.3886 28.9994 42.6818 29.3252C42.3385 29.4784 41.9657 29.5547 41.5898 29.5487Z" fill="#373780"/>
<defs>
<linearGradient id="paint0_linear_5378_64961" x1="1.29321" y1="35.0054" x2="44.5294" y2="35.0054" gradientUnits="userSpaceOnUse">
<stop offset="0.31651" stop-color="#FF83AB"/>
<stop offset="1" stop-color="#C39AEF"/>
</linearGradient>
<linearGradient id="paint1_linear_5378_64961" x1="27.8965" y1="30.7911" x2="29.6946" y2="30.7911" gradientUnits="userSpaceOnUse">
<stop stop-color="#FBB03B"/>
<stop offset="0.96641" stop-color="#FDE75D"/>
</linearGradient>
<linearGradient id="paint2_linear_5378_64961" x1="6.86231" y1="23.5996" x2="15.2884" y2="23.5996" gradientUnits="userSpaceOnUse">
<stop offset="0.0594" stop-color="#29ABE2"/>
<stop offset="0.80988" stop-color="#A4E2E7"/>
</linearGradient>
<linearGradient id="paint3_linear_5378_64961" x1="198.192" y1="320.683" x2="218.404" y2="320.683" gradientUnits="userSpaceOnUse">
<stop offset="0.0594" stop-color="#29ABE2"/>
<stop offset="0.80988" stop-color="#A4E2E7"/>
</linearGradient>
<linearGradient id="paint4_linear_5378_64961" x1="293.281" y1="2926.67" x2="392.525" y2="2926.67" gradientUnits="userSpaceOnUse">
<stop offset="0.31651" stop-color="#FF83AB"/>
<stop offset="1" stop-color="#C39AEF"/>
</linearGradient>
<linearGradient id="paint5_linear_5378_64961" x1="102.917" y1="378.753" x2="118.83" y2="378.753" gradientUnits="userSpaceOnUse">
<stop stop-color="#FBB03B"/>
<stop offset="0.96641" stop-color="#FDE75D"/>
</linearGradient>
<linearGradient id="paint6_linear_5378_64961" x1="216.524" y1="1927.6" x2="434.233" y2="1927.6" gradientUnits="userSpaceOnUse">
<stop stop-color="#FBB03B"/>
<stop offset="0.96641" stop-color="#FDE75D"/>
</linearGradient>
</defs>
</svg>
