<svg width="87" height="24" viewBox="0 0 87 24" fill="none" xmlns="http://www.w3.org/2000/svg">
<path d="M67.6074 23.8947C74.1845 23.8947 80.104 14.6213 82.3164 9.78546L78.8485 7.2822C75.9783 13.199 72.4506 17.5797 70.298 17.5797C69.7001 17.5797 69.2815 17.2383 69.2815 16.6694C69.2815 15.844 70.039 14.4086 70.9357 12.7097C72.2639 10.1932 73.8973 7.09859 73.8258 4.55138C73.766 1.93434 71.6733 0 68.9826 0C66.2918 0 62.8239 1.70677 60.8507 5.06341C61.2095 2.16191 59.5352 0 56.6652 0C54.0941 0 51.4034 1.36541 48.2941 5.12029L50.0879 0.568924H43.0921C41.7176 4.35043 40.3729 8.14614 39.0282 11.9419L39.022 11.9591C37.6781 15.7528 36.3341 19.5465 34.9603 23.3258H42.0159L42.03 23.2828C43.8889 17.6343 47.7076 6.03058 52.1807 6.03058C52.8982 6.03058 53.3766 6.65639 53.3766 7.39599C53.3766 8.66821 52.6921 10.5029 50.762 15.6763C50.0164 17.6746 49.085 20.1712 47.9354 23.3258H54.8115C56.426 18.1486 60.8507 6.03058 65.096 6.03058C65.9331 6.03058 66.2322 6.59949 66.2322 7.2822C66.2322 8.2696 65.4606 9.70553 64.571 11.3613L64.57 11.3632L64.57 11.3632C63.358 13.6186 61.9269 16.2816 61.9269 18.7744C61.9269 21.6759 63.7806 23.8947 67.6074 23.8947Z" fill="url(#paint0_linear_1045_4400)"/>
<path d="M87 2.19081C87 4.04743 84.8945 6.01546 82.6484 6.01546C80.9173 6.01546 79.8879 5.08714 79.8879 3.78752C79.8879 1.85662 81.9466 0 84.2395 0C85.8303 0 87 0.928311 87 2.19081Z" fill="url(#paint1_linear_1045_4400)"/>
<path d="M17.5397 20.3487C15.8229 22.7521 13.0852 24 9.83711 24C4.26893 24 0 20.7646 0 13.4158V0.566775H6.96022V13.4158C6.96022 16.4662 8.44506 17.5293 10.5331 17.5293C12.5748 17.5293 14.0596 16.4662 14.0596 13.4158V0.566775H21.0199V13.4158C21.0199 16.4662 22.5047 17.5293 24.5464 17.5293C26.6344 17.5293 28.1193 16.4662 28.1193 13.4158V0.566775H35.0795V13.4158C35.0795 20.7646 30.8106 24 25.2424 24C21.9479 24 19.2566 22.7521 17.5397 20.3487Z" fill="url(#paint2_linear_1045_4400)"/>
<defs>
<linearGradient id="paint0_linear_1045_4400" x1="4.51678" y1="26.9087" x2="46.8994" y2="-22.902" gradientUnits="userSpaceOnUse">
<stop stop-color="#D89EFF"/>
<stop offset="1" stop-color="#99EDC9"/>
</linearGradient>
<linearGradient id="paint1_linear_1045_4400" x1="4.51678" y1="26.9087" x2="46.8994" y2="-22.902" gradientUnits="userSpaceOnUse">
<stop stop-color="#D89EFF"/>
<stop offset="1" stop-color="#99EDC9"/>
</linearGradient>
<linearGradient id="paint2_linear_1045_4400" x1="4.51678" y1="26.9087" x2="46.8994" y2="-22.902" gradientUnits="userSpaceOnUse">
<stop stop-color="#D89EFF"/>
<stop offset="1" stop-color="#99EDC9"/>
</linearGradient>
</defs>
</svg>
